%TF.GenerationSoftware,KiCad,Pcbnew,8.0.6+1*%
%TF.CreationDate,2024-11-21T22:42:00+01:00*%
%TF.ProjectId,8051,38303531-2e6b-4696-9361-645f70636258,rev?*%
%TF.SameCoordinates,Original*%
%TF.FileFunction,Copper,L1,Top*%
%TF.FilePolarity,Positive*%
%FSLAX46Y46*%
G04 Gerber Fmt 4.6, Leading zero omitted, Abs format (unit mm)*
G04 Created by KiCad (PCBNEW 8.0.6+1) date 2024-11-21 22:42:00*
%MOMM*%
%LPD*%
G01*
G04 APERTURE LIST*
G04 Aperture macros list*
%AMRoundRect*
0 Rectangle with rounded corners*
0 $1 Rounding radius*
0 $2 $3 $4 $5 $6 $7 $8 $9 X,Y pos of 4 corners*
0 Add a 4 corners polygon primitive as box body*
4,1,4,$2,$3,$4,$5,$6,$7,$8,$9,$2,$3,0*
0 Add four circle primitives for the rounded corners*
1,1,$1+$1,$2,$3*
1,1,$1+$1,$4,$5*
1,1,$1+$1,$6,$7*
1,1,$1+$1,$8,$9*
0 Add four rect primitives between the rounded corners*
20,1,$1+$1,$2,$3,$4,$5,0*
20,1,$1+$1,$4,$5,$6,$7,0*
20,1,$1+$1,$6,$7,$8,$9,0*
20,1,$1+$1,$8,$9,$2,$3,0*%
G04 Aperture macros list end*
%ADD10C,0.300000*%
%TA.AperFunction,NonConductor*%
%ADD11C,0.300000*%
%TD*%
%TA.AperFunction,ComponentPad*%
%ADD12C,2.000000*%
%TD*%
%TA.AperFunction,SMDPad,CuDef*%
%ADD13R,1.925000X0.700000*%
%TD*%
%TA.AperFunction,SMDPad,CuDef*%
%ADD14R,0.700000X1.925000*%
%TD*%
%TA.AperFunction,ComponentPad*%
%ADD15R,1.700000X1.700000*%
%TD*%
%TA.AperFunction,ComponentPad*%
%ADD16O,1.700000X1.700000*%
%TD*%
%TA.AperFunction,SMDPad,CuDef*%
%ADD17RoundRect,0.250000X0.462500X0.625000X-0.462500X0.625000X-0.462500X-0.625000X0.462500X-0.625000X0*%
%TD*%
%TA.AperFunction,SMDPad,CuDef*%
%ADD18RoundRect,0.249999X-0.325001X-0.450001X0.325001X-0.450001X0.325001X0.450001X-0.325001X0.450001X0*%
%TD*%
%TA.AperFunction,SMDPad,CuDef*%
%ADD19RoundRect,0.249999X0.325001X0.450001X-0.325001X0.450001X-0.325001X-0.450001X0.325001X-0.450001X0*%
%TD*%
%TA.AperFunction,ComponentPad*%
%ADD20R,1.600000X1.600000*%
%TD*%
%TA.AperFunction,ComponentPad*%
%ADD21O,1.600000X1.600000*%
%TD*%
%TA.AperFunction,SMDPad,CuDef*%
%ADD22RoundRect,0.249999X-0.450001X0.325001X-0.450001X-0.325001X0.450001X-0.325001X0.450001X0.325001X0*%
%TD*%
%TA.AperFunction,ComponentPad*%
%ADD23C,1.500000*%
%TD*%
%TA.AperFunction,SMDPad,CuDef*%
%ADD24RoundRect,0.249999X0.450001X-0.325001X0.450001X0.325001X-0.450001X0.325001X-0.450001X-0.325001X0*%
%TD*%
%TA.AperFunction,SMDPad,CuDef*%
%ADD25R,1.950000X0.600000*%
%TD*%
%TA.AperFunction,SMDPad,CuDef*%
%ADD26RoundRect,0.150000X-0.875000X-0.150000X0.875000X-0.150000X0.875000X0.150000X-0.875000X0.150000X0*%
%TD*%
%TA.AperFunction,SMDPad,CuDef*%
%ADD27RoundRect,0.250000X0.450000X-0.325000X0.450000X0.325000X-0.450000X0.325000X-0.450000X-0.325000X0*%
%TD*%
%TA.AperFunction,ViaPad*%
%ADD28C,0.800000*%
%TD*%
%TA.AperFunction,Conductor*%
%ADD29C,0.508000*%
%TD*%
%TA.AperFunction,Conductor*%
%ADD30C,0.254000*%
%TD*%
%TA.AperFunction,Conductor*%
%ADD31C,0.762000*%
%TD*%
%TA.AperFunction,Conductor*%
%ADD32C,0.250000*%
%TD*%
%TA.AperFunction,Conductor*%
%ADD33C,0.381000*%
%TD*%
%TA.AperFunction,Conductor*%
%ADD34C,0.635000*%
%TD*%
%TA.AperFunction,Conductor*%
%ADD35C,0.889000*%
%TD*%
G04 APERTURE END LIST*
D10*
D11*
X106877225Y-73841828D02*
X106020082Y-73841828D01*
X106448653Y-73841828D02*
X106448653Y-72341828D01*
X106448653Y-72341828D02*
X106305796Y-72556114D01*
X106305796Y-72556114D02*
X106162939Y-72698971D01*
X106162939Y-72698971D02*
X106020082Y-72770400D01*
D12*
%TO.P,SW1,1,1*%
%TO.N,+5V*%
X120000000Y-63500000D03*
X126500000Y-63500000D03*
%TO.P,SW1,2,2*%
%TO.N,Net-(U1-RST)*%
X120000000Y-68000000D03*
X126500000Y-68000000D03*
%TD*%
D13*
%TO.P,U1,1,NC*%
%TO.N,unconnected-(U1-NC-Pad1)*%
X123862500Y-83940000D03*
%TO.P,U1,2,P1.0*%
%TO.N,P0*%
X123862500Y-82670000D03*
%TO.P,U1,3,P1.1*%
%TO.N,P1*%
X123862500Y-81400000D03*
%TO.P,U1,4,P1.2*%
%TO.N,P2*%
X123862500Y-80130000D03*
%TO.P,U1,5,P1.3*%
%TO.N,P3*%
X123862500Y-78860000D03*
%TO.P,U1,6,P1.4*%
%TO.N,P4*%
X123862500Y-77590000D03*
D14*
%TO.P,U1,7,P1.5*%
%TO.N,P5*%
X122350000Y-76077500D03*
%TO.P,U1,8,P1.6*%
%TO.N,P6*%
X121080000Y-76077500D03*
%TO.P,U1,9,P1.7*%
%TO.N,P7*%
X119810000Y-76077500D03*
%TO.P,U1,10,RST*%
%TO.N,Net-(U1-RST)*%
X118540000Y-76077500D03*
%TO.P,U1,11,P3.0/RxD*%
%TO.N,RxD*%
X117270000Y-76077500D03*
%TO.P,U1,12,NC*%
%TO.N,unconnected-(U1-NC-Pad12)*%
X116000000Y-76077500D03*
%TO.P,U1,13,P3.1/TxD*%
%TO.N,TxD*%
X114730000Y-76077500D03*
%TO.P,U1,14,P3.2/nINT0*%
%TO.N,INT0*%
X113460000Y-76077500D03*
%TO.P,U1,15,P3.3/nINT1*%
%TO.N,INT1*%
X112190000Y-76077500D03*
%TO.P,U1,16,P3.4/T0*%
%TO.N,T0*%
X110920000Y-76077500D03*
%TO.P,U1,17,P3.5/T1*%
%TO.N,T1*%
X109650000Y-76077500D03*
D13*
%TO.P,U1,18,P3.6/nWR*%
%TO.N,Net-(U1-P3.6{slash}nWR)*%
X108137500Y-77590000D03*
%TO.P,U1,19,P3.7/nRD*%
%TO.N,Net-(U1-P3.7{slash}nRD)*%
X108137500Y-78860000D03*
%TO.P,U1,20,XTAL2*%
%TO.N,Net-(U1-XTAL2)*%
X108137500Y-80130000D03*
%TO.P,U1,21,XTAL1*%
%TO.N,Net-(J7-Pin_2)*%
X108137500Y-81400000D03*
%TO.P,U1,22,VSS*%
%TO.N,GND*%
X108137500Y-82670000D03*
%TO.P,U1,23,NC*%
%TO.N,unconnected-(U1-NC-Pad23)*%
X108137500Y-83940000D03*
%TO.P,U1,24,P2.0/A8*%
%TO.N,Net-(U1-P2.0{slash}A8)*%
X108137500Y-85210000D03*
%TO.P,U1,25,P2.1/A9*%
%TO.N,Net-(U1-P2.1{slash}A9)*%
X108137500Y-86480000D03*
%TO.P,U1,26,P2.2/A10*%
%TO.N,Net-(U1-P2.2{slash}A10)*%
X108137500Y-87750000D03*
%TO.P,U1,27,P2.3/A11*%
%TO.N,Net-(U1-P2.3{slash}A11)*%
X108137500Y-89020000D03*
%TO.P,U1,28,P2.4/A12*%
%TO.N,Net-(U1-P2.4{slash}A12)*%
X108137500Y-90290000D03*
D14*
%TO.P,U1,29,P2.5/A13*%
%TO.N,Net-(U1-P2.5{slash}A13)*%
X109650000Y-91802500D03*
%TO.P,U1,30,P2.6/A14*%
%TO.N,Net-(J4-Pin_1)*%
X110920000Y-91802500D03*
%TO.P,U1,31,P2.7/A15*%
%TO.N,Net-(J3-Pin_1)*%
X112190000Y-91802500D03*
%TO.P,U1,32,PSEN*%
%TO.N,Net-(J5-Pin_1)*%
X113460000Y-91802500D03*
%TO.P,U1,33,ALE/PROG*%
%TO.N,Net-(U1-ALE{slash}PROG)*%
X114730000Y-91802500D03*
%TO.P,U1,34,NC*%
%TO.N,unconnected-(U1-NC-Pad34)*%
X116000000Y-91802500D03*
%TO.P,U1,35,EA/VPP*%
%TO.N,GND*%
X117270000Y-91802500D03*
%TO.P,U1,36,P0.7/AD7*%
%TO.N,AD7*%
X118540000Y-91802500D03*
%TO.P,U1,37,P0.6/AD6*%
%TO.N,AD6*%
X119810000Y-91802500D03*
%TO.P,U1,38,P0.5/AD5*%
%TO.N,AD5*%
X121080000Y-91802500D03*
%TO.P,U1,39,P0.4/AD4*%
%TO.N,AD4*%
X122350000Y-91802500D03*
D13*
%TO.P,U1,40,P0.3/AD3*%
%TO.N,AD3*%
X123862500Y-90290000D03*
%TO.P,U1,41,P0.2/AD2*%
%TO.N,AD2*%
X123862500Y-89020000D03*
%TO.P,U1,42,P0.1/AD1*%
%TO.N,AD1*%
X123862500Y-87750000D03*
%TO.P,U1,43,P0.0/AD0*%
%TO.N,AD0*%
X123862500Y-86480000D03*
%TO.P,U1,44,VCC*%
%TO.N,+5V*%
X123862500Y-85210000D03*
%TD*%
D15*
%TO.P,J2,1,Pin_1*%
%TO.N,+5V*%
X90960000Y-63330000D03*
D16*
%TO.P,J2,2,Pin_2*%
%TO.N,RxD*%
X93500000Y-63330000D03*
%TO.P,J2,3,Pin_3*%
%TO.N,+5V*%
X90960000Y-65870000D03*
%TO.P,J2,4,Pin_4*%
%TO.N,TxD*%
X93500000Y-65870000D03*
%TO.P,J2,5,Pin_5*%
%TO.N,+5V*%
X90960000Y-68410000D03*
%TO.P,J2,6,Pin_6*%
%TO.N,INT0*%
X93500000Y-68410000D03*
%TO.P,J2,7,Pin_7*%
%TO.N,+5V*%
X90960000Y-70950000D03*
%TO.P,J2,8,Pin_8*%
%TO.N,INT1*%
X93500000Y-70950000D03*
%TO.P,J2,9,Pin_9*%
%TO.N,GND*%
X90960000Y-73490000D03*
%TO.P,J2,10,Pin_10*%
%TO.N,T0*%
X93500000Y-73490000D03*
%TO.P,J2,11,Pin_11*%
%TO.N,GND*%
X90960000Y-76030000D03*
%TO.P,J2,12,Pin_12*%
%TO.N,T1*%
X93500000Y-76030000D03*
%TO.P,J2,13,Pin_13*%
%TO.N,GND*%
X90960000Y-78570000D03*
%TO.P,J2,14,Pin_14*%
%TO.N,P7*%
X93500000Y-78570000D03*
%TO.P,J2,15,Pin_15*%
%TO.N,GND*%
X90960000Y-81110000D03*
%TO.P,J2,16,Pin_16*%
%TO.N,P6*%
X93500000Y-81110000D03*
%TO.P,J2,17,Pin_17*%
%TO.N,GND*%
X90960000Y-83650000D03*
%TO.P,J2,18,Pin_18*%
%TO.N,P5*%
X93500000Y-83650000D03*
%TO.P,J2,19,Pin_19*%
%TO.N,GND*%
X90960000Y-86190000D03*
%TO.P,J2,20,Pin_20*%
%TO.N,P4*%
X93500000Y-86190000D03*
%TO.P,J2,21,Pin_21*%
%TO.N,GND*%
X90960000Y-88730000D03*
%TO.P,J2,22,Pin_22*%
%TO.N,P3*%
X93500000Y-88730000D03*
%TO.P,J2,23,Pin_23*%
%TO.N,GND*%
X90960000Y-91270000D03*
%TO.P,J2,24,Pin_24*%
%TO.N,P2*%
X93500000Y-91270000D03*
%TO.P,J2,25,Pin_25*%
%TO.N,GND*%
X90960000Y-93810000D03*
%TO.P,J2,26,Pin_26*%
%TO.N,P1*%
X93500000Y-93810000D03*
%TO.P,J2,27,Pin_27*%
%TO.N,GND*%
X90960000Y-96350000D03*
%TO.P,J2,28,Pin_28*%
%TO.N,P0*%
X93500000Y-96350000D03*
%TO.P,J2,29,Pin_29*%
%TO.N,GND*%
X90960000Y-98890000D03*
%TO.P,J2,30,Pin_30*%
%TO.N,O7*%
X93500000Y-98890000D03*
%TO.P,J2,31,Pin_31*%
%TO.N,GND*%
X90960000Y-101430000D03*
%TO.P,J2,32,Pin_32*%
%TO.N,O6*%
X93500000Y-101430000D03*
%TO.P,J2,33,Pin_33*%
%TO.N,GND*%
X90960000Y-103970000D03*
%TO.P,J2,34,Pin_34*%
%TO.N,O5*%
X93500000Y-103970000D03*
%TO.P,J2,35,Pin_35*%
%TO.N,GND*%
X90960000Y-106510000D03*
%TO.P,J2,36,Pin_36*%
%TO.N,O4*%
X93500000Y-106510000D03*
%TO.P,J2,37,Pin_37*%
%TO.N,GND*%
X90960000Y-109050000D03*
%TO.P,J2,38,Pin_38*%
%TO.N,O3*%
X93500000Y-109050000D03*
%TO.P,J2,39,Pin_39*%
%TO.N,GND*%
X90960000Y-111590000D03*
%TO.P,J2,40,Pin_40*%
%TO.N,O2*%
X93500000Y-111590000D03*
%TO.P,J2,41,Pin_41*%
%TO.N,GND*%
X90960000Y-114130000D03*
%TO.P,J2,42,Pin_42*%
%TO.N,O1*%
X93500000Y-114130000D03*
%TO.P,J2,43,Pin_43*%
%TO.N,GND*%
X90960000Y-116670000D03*
%TO.P,J2,44,Pin_44*%
%TO.N,O0*%
X93500000Y-116670000D03*
%TO.P,J2,45,Pin_45*%
%TO.N,GND*%
X90960000Y-119210000D03*
%TO.P,J2,46,Pin_46*%
%TO.N,I7*%
X93500000Y-119210000D03*
%TO.P,J2,47,Pin_47*%
%TO.N,GND*%
X90960000Y-121750000D03*
%TO.P,J2,48,Pin_48*%
%TO.N,I6*%
X93500000Y-121750000D03*
%TO.P,J2,49,Pin_49*%
%TO.N,GND*%
X90960000Y-124290000D03*
%TO.P,J2,50,Pin_50*%
%TO.N,I5*%
X93500000Y-124290000D03*
%TO.P,J2,51,Pin_51*%
%TO.N,GND*%
X90960000Y-126830000D03*
%TO.P,J2,52,Pin_52*%
%TO.N,I4*%
X93500000Y-126830000D03*
%TO.P,J2,53,Pin_53*%
%TO.N,GND*%
X90960000Y-129370000D03*
%TO.P,J2,54,Pin_54*%
%TO.N,I3*%
X93500000Y-129370000D03*
%TO.P,J2,55,Pin_55*%
%TO.N,GND*%
X90960000Y-131910000D03*
%TO.P,J2,56,Pin_56*%
%TO.N,I2*%
X93500000Y-131910000D03*
%TO.P,J2,57,Pin_57*%
%TO.N,GND*%
X90960000Y-134450000D03*
%TO.P,J2,58,Pin_58*%
%TO.N,I1*%
X93500000Y-134450000D03*
%TO.P,J2,59,Pin_59*%
%TO.N,GND*%
X90960000Y-136990000D03*
%TO.P,J2,60,Pin_60*%
%TO.N,I0*%
X93500000Y-136990000D03*
%TD*%
D17*
%TO.P,C4,1*%
%TO.N,+5V*%
X103609800Y-95580200D03*
%TO.P,C4,2*%
%TO.N,GND*%
X100634800Y-95580200D03*
%TD*%
D18*
%TO.P,D1,1,K*%
%TO.N,Net-(D1-K)*%
X115450000Y-63500000D03*
%TO.P,D1,2,A*%
%TO.N,+5V*%
X117500000Y-63500000D03*
%TD*%
D19*
%TO.P,R5,1*%
%TO.N,Net-(D2-A)*%
X104368600Y-113258600D03*
%TO.P,R5,2*%
%TO.N,O0*%
X102318600Y-113258600D03*
%TD*%
D18*
%TO.P,D3,1,K*%
%TO.N,Net-(D3-K)*%
X98280000Y-63246000D03*
%TO.P,D3,2,A*%
%TO.N,+5V*%
X100330000Y-63246000D03*
%TD*%
%TO.P,D4,1,K*%
%TO.N,Net-(D4-K)*%
X98298000Y-65913000D03*
%TO.P,D4,2,A*%
%TO.N,+5V*%
X100348000Y-65913000D03*
%TD*%
D15*
%TO.P,J3,1,Pin_1*%
%TO.N,Net-(J3-Pin_1)*%
X113284000Y-102489000D03*
D16*
%TO.P,J3,2,Pin_2*%
X113284000Y-99949000D03*
%TD*%
D20*
%TO.P,U5,1,A15*%
%TO.N,Net-(J3-Pin_1)*%
X111250000Y-102500000D03*
D21*
%TO.P,U5,2,A12*%
%TO.N,Net-(U1-P2.4{slash}A12)*%
X111250000Y-105040000D03*
%TO.P,U5,3,A7*%
%TO.N,A7*%
X111250000Y-107580000D03*
%TO.P,U5,4,A6*%
%TO.N,A6*%
X111250000Y-110120000D03*
%TO.P,U5,5,A5*%
%TO.N,A5*%
X111250000Y-112660000D03*
%TO.P,U5,6,A4*%
%TO.N,A4*%
X111250000Y-115200000D03*
%TO.P,U5,7,A3*%
%TO.N,A3*%
X111250000Y-117740000D03*
%TO.P,U5,8,A2*%
%TO.N,A2*%
X111250000Y-120280000D03*
%TO.P,U5,9,A1*%
%TO.N,A1*%
X111250000Y-122820000D03*
%TO.P,U5,10,A0*%
%TO.N,A0*%
X111250000Y-125360000D03*
%TO.P,U5,11,D0*%
%TO.N,AD0*%
X111250000Y-127900000D03*
%TO.P,U5,12,D1*%
%TO.N,AD1*%
X111250000Y-130440000D03*
%TO.P,U5,13,D2*%
%TO.N,AD2*%
X111250000Y-132980000D03*
%TO.P,U5,14,GND*%
%TO.N,GND*%
X111250000Y-135520000D03*
%TO.P,U5,15,D3*%
%TO.N,AD3*%
X126490000Y-135520000D03*
%TO.P,U5,16,D4*%
%TO.N,AD4*%
X126490000Y-132980000D03*
%TO.P,U5,17,D5*%
%TO.N,AD5*%
X126490000Y-130440000D03*
%TO.P,U5,18,D6*%
%TO.N,AD6*%
X126490000Y-127900000D03*
%TO.P,U5,19,D7*%
%TO.N,AD7*%
X126490000Y-125360000D03*
%TO.P,U5,20,~{CE}*%
%TO.N,Net-(J5-Pin_1)*%
X126490000Y-122820000D03*
%TO.P,U5,21,A10*%
%TO.N,Net-(U1-P2.2{slash}A10)*%
X126490000Y-120280000D03*
%TO.P,U5,22,~{OE}*%
%TO.N,GND*%
X126490000Y-117740000D03*
%TO.P,U5,23,A11*%
%TO.N,Net-(U1-P2.3{slash}A11)*%
X126490000Y-115200000D03*
%TO.P,U5,24,A9*%
%TO.N,Net-(U1-P2.1{slash}A9)*%
X126490000Y-112660000D03*
%TO.P,U5,25,A8*%
%TO.N,Net-(U1-P2.0{slash}A8)*%
X126490000Y-110120000D03*
%TO.P,U5,26,A13*%
%TO.N,Net-(U1-P2.5{slash}A13)*%
X126490000Y-107580000D03*
%TO.P,U5,27,A14*%
%TO.N,Net-(J4-Pin_1)*%
X126490000Y-105040000D03*
%TO.P,U5,28,VCC*%
%TO.N,+5V*%
X126490000Y-102500000D03*
%TD*%
D15*
%TO.P,J4,1,Pin_1*%
%TO.N,Net-(J4-Pin_1)*%
X124333000Y-102616000D03*
D16*
%TO.P,J4,2,Pin_2*%
X124333000Y-105156000D03*
%TD*%
D22*
%TO.P,C1,1*%
%TO.N,Net-(U1-XTAL2)*%
X99187000Y-77579000D03*
%TO.P,C1,2*%
%TO.N,GND*%
X99187000Y-79629000D03*
%TD*%
D23*
%TO.P,Y1,1,1*%
%TO.N,Net-(U1-XTAL2)*%
X103250000Y-78250000D03*
%TO.P,Y1,2,2*%
%TO.N,Net-(J7-Pin_2)*%
X103250000Y-83130000D03*
%TD*%
D24*
%TO.P,C2,1*%
%TO.N,Net-(J7-Pin_2)*%
X99187000Y-83820000D03*
%TO.P,C2,2*%
%TO.N,GND*%
X99187000Y-81770000D03*
%TD*%
D15*
%TO.P,J1,1,Pin_1*%
%TO.N,GND*%
X114300000Y-84582000D03*
D16*
%TO.P,J1,2,Pin_2*%
X116840000Y-84582000D03*
%TD*%
D25*
%TO.P,U2,1,1OE*%
%TO.N,Net-(U1-P3.7{slash}nRD)*%
X107000000Y-135965000D03*
%TO.P,U2,2,1A0*%
%TO.N,I0*%
X107000000Y-134695000D03*
%TO.P,U2,3,2Y0*%
%TO.N,AD2*%
X107000000Y-133425000D03*
%TO.P,U2,4,1A1*%
%TO.N,I1*%
X107000000Y-132155000D03*
%TO.P,U2,5,2Y1*%
%TO.N,AD3*%
X107000000Y-130885000D03*
%TO.P,U2,6,1A2*%
%TO.N,I4*%
X107000000Y-129615000D03*
%TO.P,U2,7,2Y2*%
%TO.N,AD6*%
X107000000Y-128345000D03*
%TO.P,U2,8,1A3*%
%TO.N,I5*%
X107000000Y-127075000D03*
%TO.P,U2,9,2Y3*%
%TO.N,AD7*%
X107000000Y-125805000D03*
%TO.P,U2,10,GND*%
%TO.N,GND*%
X107000000Y-124535000D03*
%TO.P,U2,11,2A3*%
%TO.N,I7*%
X97600000Y-124535000D03*
%TO.P,U2,12,1Y3*%
%TO.N,AD5*%
X97600000Y-125805000D03*
%TO.P,U2,13,2A2*%
%TO.N,I6*%
X97600000Y-127075000D03*
%TO.P,U2,14,1Y2*%
%TO.N,AD4*%
X97600000Y-128345000D03*
%TO.P,U2,15,2A1*%
%TO.N,I3*%
X97600000Y-129615000D03*
%TO.P,U2,16,1Y1*%
%TO.N,AD1*%
X97600000Y-130885000D03*
%TO.P,U2,17,2A0*%
%TO.N,I2*%
X97600000Y-132155000D03*
%TO.P,U2,18,1Y0*%
%TO.N,AD0*%
X97600000Y-133425000D03*
%TO.P,U2,19,2OE*%
%TO.N,Net-(U1-P3.7{slash}nRD)*%
X97600000Y-134695000D03*
%TO.P,U2,20,VCC*%
%TO.N,+5V*%
X97600000Y-135965000D03*
%TD*%
D15*
%TO.P,J5,1,Pin_1*%
%TO.N,Net-(J5-Pin_1)*%
X124000000Y-120300000D03*
%TD*%
D26*
%TO.P,U6,1,OE*%
%TO.N,GND*%
X97380000Y-97790000D03*
%TO.P,U6,2,O0*%
%TO.N,O6*%
X97380000Y-99060000D03*
%TO.P,U6,3,D0*%
%TO.N,AD6*%
X97380000Y-100330000D03*
%TO.P,U6,4,D1*%
%TO.N,AD5*%
X97380000Y-101600000D03*
%TO.P,U6,5,O1*%
%TO.N,O5*%
X97380000Y-102870000D03*
%TO.P,U6,6,O2*%
%TO.N,O4*%
X97380000Y-104140000D03*
%TO.P,U6,7,D2*%
%TO.N,AD4*%
X97380000Y-105410000D03*
%TO.P,U6,8,D3*%
%TO.N,AD3*%
X97380000Y-106680000D03*
%TO.P,U6,9,O3*%
%TO.N,O3*%
X97380000Y-107950000D03*
%TO.P,U6,10,GND*%
%TO.N,GND*%
X97380000Y-109220000D03*
%TO.P,U6,11,Cp*%
%TO.N,Net-(U1-P3.6{slash}nWR)*%
X106680000Y-109220000D03*
%TO.P,U6,12,O4*%
%TO.N,O0*%
X106680000Y-107950000D03*
%TO.P,U6,13,D4*%
%TO.N,AD0*%
X106680000Y-106680000D03*
%TO.P,U6,14,D5*%
%TO.N,AD1*%
X106680000Y-105410000D03*
%TO.P,U6,15,O5*%
%TO.N,O1*%
X106680000Y-104140000D03*
%TO.P,U6,16,O6*%
%TO.N,O2*%
X106680000Y-102870000D03*
%TO.P,U6,17,D6*%
%TO.N,AD2*%
X106680000Y-101600000D03*
%TO.P,U6,18,D7*%
%TO.N,AD7*%
X106680000Y-100330000D03*
%TO.P,U6,19,O7*%
%TO.N,O7*%
X106680000Y-99060000D03*
%TO.P,U6,20,VCC*%
%TO.N,+5V*%
X106680000Y-97790000D03*
%TD*%
D27*
%TO.P,D6,1,K*%
%TO.N,GND*%
X106553000Y-118999000D03*
%TO.P,D6,2,A*%
%TO.N,Net-(D6-A)*%
X106553000Y-116949000D03*
%TD*%
%TO.P,D2,1,K*%
%TO.N,GND*%
X100584000Y-119008000D03*
%TO.P,D2,2,A*%
%TO.N,Net-(D2-A)*%
X100584000Y-116958000D03*
%TD*%
D15*
%TO.P,J7,1,Pin_1*%
%TO.N,GND*%
X102088000Y-88620200D03*
D16*
%TO.P,J7,2,Pin_2*%
%TO.N,Net-(J7-Pin_2)*%
X99548000Y-88620200D03*
%TD*%
D15*
%TO.P,J6,1,Pin_1*%
%TO.N,+5V*%
X127324000Y-73924000D03*
D16*
%TO.P,J6,2,Pin_2*%
%TO.N,RxD*%
X127324000Y-76464000D03*
%TO.P,J6,3,Pin_3*%
%TO.N,TxD*%
X127324000Y-79004000D03*
%TO.P,J6,4,Pin_4*%
%TO.N,GND*%
X127324000Y-81544000D03*
%TD*%
D27*
%TO.P,D5,1,K*%
%TO.N,GND*%
X103505000Y-119017000D03*
%TO.P,D5,2,A*%
%TO.N,Net-(D5-A)*%
X103505000Y-116967000D03*
%TD*%
D28*
%TO.N,GND*%
X106052000Y-82670000D03*
X113360200Y-69291200D03*
X109321600Y-121564400D03*
%TO.N,+5V*%
X123596400Y-135915400D03*
X109016800Y-135178800D03*
X99454999Y-62792317D03*
X101569305Y-71876705D03*
X99695000Y-135585200D03*
X126238000Y-85344000D03*
%TO.N,Net-(D1-K)*%
X115443000Y-63500000D03*
%TO.N,Net-(D3-K)*%
X98280000Y-63246000D03*
%TO.N,Net-(D4-K)*%
X98298000Y-65913000D03*
%TO.N,Net-(D5-A)*%
X104775000Y-116205000D03*
%TO.N,Net-(D6-A)*%
X106807000Y-115062000D03*
%TO.N,Net-(J4-Pin_1)*%
X111988600Y-86512400D03*
%TO.N,Net-(J5-Pin_1)*%
X113436400Y-90449400D03*
X123248000Y-94742518D03*
%TO.N,Net-(U1-ALE{slash}PROG)*%
X114782600Y-107188000D03*
%TO.N,Net-(U1-P2.5{slash}A13)*%
X110820200Y-86512400D03*
%TO.N,TxD*%
X119761000Y-72898000D03*
X114808000Y-72771000D03*
%TO.N,RxD*%
X117729000Y-71755000D03*
X119761000Y-71755000D03*
%TO.N,I0*%
X105154800Y-134695000D03*
%TO.N,Net-(U1-P2.3{slash}A11)*%
X109499400Y-89001600D03*
%TO.N,Net-(U1-P2.2{slash}A10)*%
X124802000Y-93853000D03*
X109474000Y-87757000D03*
%TO.N,Net-(U1-P2.1{slash}A9)*%
X109479492Y-86506908D03*
%TO.N,Net-(U1-P2.0{slash}A8)*%
X113411000Y-87833200D03*
%TO.N,P0*%
X120650000Y-82042000D03*
%TO.N,P1*%
X118110000Y-81203800D03*
%TO.N,P2*%
X120599200Y-80162400D03*
%TO.N,P3*%
X118142400Y-78860000D03*
%TO.N,P4*%
X120650000Y-77927200D03*
%TO.N,P5*%
X122301000Y-74041000D03*
%TO.N,P6*%
X121031000Y-74041000D03*
%TO.N,P7*%
X119761000Y-74041000D03*
%TO.N,Net-(U1-P3.7{slash}nRD)*%
X105841800Y-123037600D03*
X110871000Y-84632800D03*
X103733600Y-134721600D03*
X105562400Y-87757000D03*
%TO.N,Net-(U1-P3.6{slash}nWR)*%
X112153700Y-83756500D03*
X104510600Y-87807800D03*
%TO.N,AD4*%
X119659400Y-103860600D03*
X117856000Y-116687600D03*
X102819200Y-104343200D03*
%TO.N,AD5*%
X104419084Y-125805884D03*
X121080000Y-93673400D03*
X102870000Y-102463600D03*
%TO.N,AD6*%
X98958400Y-100330000D03*
X118821200Y-109143800D03*
X122047000Y-127279400D03*
X118643400Y-90068400D03*
%TO.N,AD7*%
X115925600Y-93497400D03*
X104998600Y-100325000D03*
%TO.N,AD2*%
X116255800Y-96367600D03*
X122174000Y-90068400D03*
X104952800Y-101600000D03*
X114122200Y-120116600D03*
%TO.N,AD0*%
X109118400Y-127889000D03*
X119862600Y-90043000D03*
X105054400Y-106654600D03*
X116255800Y-94538800D03*
X116103400Y-127279400D03*
X105130600Y-133400800D03*
X117297200Y-108940600D03*
X115316000Y-120116600D03*
%TO.N,AD3*%
X102717600Y-106705400D03*
X117017800Y-131749800D03*
X120294400Y-131749800D03*
X119456200Y-116713000D03*
%TO.N,AD1*%
X117551200Y-94513400D03*
X116789200Y-119126000D03*
X118084600Y-106248200D03*
X121056400Y-90043000D03*
X105079800Y-105410000D03*
%TD*%
D29*
%TO.N,GND*%
X99060000Y-97332800D02*
X98602800Y-97790000D01*
D30*
X92280124Y-97569876D02*
X90960000Y-98890000D01*
X92202000Y-84963000D02*
X95377000Y-84963000D01*
D31*
X95377000Y-84963000D02*
X95377000Y-82296000D01*
D30*
X92234135Y-87503000D02*
X94107000Y-87503000D01*
D31*
X95377000Y-85979000D02*
X95377000Y-84963000D01*
D30*
X92202000Y-77343000D02*
X90975000Y-78570000D01*
D29*
X99491800Y-95580200D02*
X99060000Y-96012000D01*
D30*
X109321600Y-121564400D02*
X106984800Y-123901200D01*
D29*
X98602800Y-97790000D02*
X97380000Y-97790000D01*
X100634800Y-95580200D02*
X99491800Y-95580200D01*
D30*
X104615226Y-76581000D02*
X106172000Y-78137774D01*
D32*
X95724124Y-97790000D02*
X95504000Y-97569876D01*
D30*
X90975000Y-119210000D02*
X90960000Y-119210000D01*
X106984800Y-123901200D02*
X106984800Y-124519800D01*
X90975000Y-86190000D02*
X92202000Y-84963000D01*
X90975000Y-111590000D02*
X90960000Y-111590000D01*
X103327200Y-90779600D02*
X103733600Y-90373200D01*
X92202000Y-84963000D02*
X90960000Y-83650000D01*
X95377000Y-78359000D02*
X94361000Y-77343000D01*
D31*
X105003600Y-83718400D02*
X105003600Y-85648800D01*
D30*
X90960000Y-83650000D02*
X90972901Y-83650000D01*
X90960000Y-81075198D02*
X92279198Y-79756000D01*
D31*
X95377000Y-79756000D02*
X95377000Y-78359000D01*
X105003600Y-85648800D02*
X104749600Y-85902800D01*
D30*
X97917000Y-77117222D02*
X98453222Y-76581000D01*
X92326901Y-82296000D02*
X92481400Y-82296000D01*
X95631000Y-109220000D02*
X94488000Y-110363000D01*
X90960000Y-88730000D02*
X91007135Y-88730000D01*
X96130000Y-119008000D02*
X96075500Y-119062500D01*
X91007135Y-88730000D02*
X92234135Y-87503000D01*
D33*
X103530400Y-85902800D02*
X104749600Y-85902800D01*
D30*
X97917000Y-80645000D02*
X97917000Y-79883000D01*
D29*
X104975800Y-124536200D02*
X101549200Y-124536200D01*
D30*
X92481400Y-82296000D02*
X90960000Y-81110000D01*
X103733600Y-86918800D02*
X104749600Y-85902800D01*
X90960000Y-81110000D02*
X90960000Y-81075198D01*
X106172000Y-78137774D02*
X106172000Y-78232000D01*
X95504000Y-97569876D02*
X92280124Y-97569876D01*
X97300000Y-109215000D02*
X95631000Y-109220000D01*
D29*
X99060000Y-96012000D02*
X99060000Y-97332800D01*
X117270000Y-91802500D02*
X117270000Y-88517200D01*
D30*
X94107000Y-87503000D02*
X95377000Y-86233000D01*
X100584000Y-119008000D02*
X96130000Y-119008000D01*
X92234135Y-87503000D02*
X90960000Y-86190000D01*
X98704400Y-90779600D02*
X103327200Y-90779600D01*
D33*
X102088000Y-88620200D02*
X102088000Y-87345200D01*
D30*
X94869000Y-117856000D02*
X92227400Y-117856000D01*
D32*
X97380000Y-97790000D02*
X95724124Y-97790000D01*
D29*
X101549200Y-124536200D02*
X96075500Y-119062500D01*
D30*
X92279198Y-79756000D02*
X90960000Y-78570000D01*
X99187000Y-80645000D02*
X99187000Y-81770000D01*
X91066800Y-116670000D02*
X90960000Y-116670000D01*
X97300000Y-109215000D02*
X97287000Y-109215000D01*
X99187000Y-80645000D02*
X97917000Y-80645000D01*
X97917000Y-80645000D02*
X97917000Y-89992200D01*
X97917000Y-79883000D02*
X97917000Y-77343000D01*
X90960000Y-109050000D02*
X92202000Y-110363000D01*
X90960000Y-96350000D02*
X92280124Y-97569876D01*
X92202000Y-110363000D02*
X90975000Y-111590000D01*
X90960000Y-86190000D02*
X90975000Y-86190000D01*
X98453222Y-76581000D02*
X104615226Y-76581000D01*
D33*
X102088000Y-87345200D02*
X103530400Y-85902800D01*
D30*
X92227400Y-117830600D02*
X91066800Y-116670000D01*
D29*
X104977000Y-124535000D02*
X104975800Y-124536200D01*
D33*
X104977000Y-124535000D02*
X107000000Y-124535000D01*
D30*
X110869000Y-66800000D02*
X101235000Y-66800000D01*
D29*
X114274600Y-85521800D02*
X114274600Y-84709000D01*
D31*
X108137500Y-82670000D02*
X106052000Y-82670000D01*
D30*
X92481400Y-82296000D02*
X95377000Y-82296000D01*
X92227400Y-117856000D02*
X92227400Y-117957600D01*
X97917000Y-77343000D02*
X97917000Y-77117222D01*
X113360200Y-69291200D02*
X110869000Y-66800000D01*
X106984800Y-124519800D02*
X107000000Y-124535000D01*
D29*
X96075500Y-119062500D02*
X94869000Y-117856000D01*
D30*
X106544000Y-119008000D02*
X106553000Y-118999000D01*
X92227400Y-117957600D02*
X90975000Y-119210000D01*
X99187000Y-79629000D02*
X99187000Y-80645000D01*
X90960000Y-76030000D02*
X92202000Y-77343000D01*
X103733600Y-90373200D02*
X103733600Y-86918800D01*
D31*
X95377000Y-82296000D02*
X95377000Y-79756000D01*
D30*
X90975000Y-78570000D02*
X90960000Y-78570000D01*
X97917000Y-89992200D02*
X98704400Y-90779600D01*
D29*
X117270000Y-88517200D02*
X114274600Y-85521800D01*
D30*
X100584000Y-119008000D02*
X106544000Y-119008000D01*
X90972901Y-83650000D02*
X92326901Y-82296000D01*
X99187000Y-80645000D02*
X105029000Y-80645000D01*
X94488000Y-110363000D02*
X92202000Y-110363000D01*
X92279198Y-79756000D02*
X95377000Y-79756000D01*
X94361000Y-77343000D02*
X92202000Y-77343000D01*
X95377000Y-86233000D02*
X95377000Y-85979000D01*
X92227400Y-117856000D02*
X92227400Y-117830600D01*
D31*
X106052000Y-82670000D02*
X105003600Y-83718400D01*
D34*
X111543800Y-135813800D02*
X111250000Y-135520000D01*
D33*
%TO.N,Net-(U1-XTAL2)*%
X103250000Y-78250000D02*
X103904000Y-78250000D01*
X103904000Y-78250000D02*
X105784000Y-80130000D01*
D30*
X103250000Y-78250000D02*
X99187000Y-77579000D01*
D33*
X105784000Y-80130000D02*
X108137500Y-80130000D01*
%TO.N,Net-(J7-Pin_2)*%
X104068000Y-83130000D02*
X105798000Y-81400000D01*
X105798000Y-81400000D02*
X108137500Y-81400000D01*
X99548000Y-88620200D02*
X99548000Y-84181000D01*
X99548000Y-84181000D02*
X99187000Y-83820000D01*
D30*
X103250000Y-83130000D02*
X99187000Y-83820000D01*
D33*
X103250000Y-83130000D02*
X104068000Y-83130000D01*
D30*
%TO.N,Net-(U1-RST)*%
X120000000Y-68000000D02*
X118491000Y-69509000D01*
X118491000Y-76028500D02*
X118540000Y-76077500D01*
X118491000Y-69509000D02*
X118491000Y-76028500D01*
D31*
%TO.N,+5V*%
X109016800Y-135178800D02*
X109016800Y-135178800D01*
D29*
X98488500Y-93789500D02*
X103060500Y-93789500D01*
D35*
X126238000Y-85979000D02*
X126238000Y-85344000D01*
X125069600Y-137871200D02*
X121767600Y-137871200D01*
D29*
X96824800Y-92125800D02*
X98488500Y-93789500D01*
X123596400Y-137871200D02*
X121767600Y-137871200D01*
X103609800Y-95580200D02*
X105105200Y-95580200D01*
X105333800Y-95808800D02*
X105333800Y-97561400D01*
D35*
X121767600Y-137871200D02*
X117830600Y-137871200D01*
X128000000Y-102682800D02*
X126672800Y-102682800D01*
D29*
X96824800Y-87553800D02*
X96824800Y-92125800D01*
X105562400Y-97790000D02*
X106680000Y-97790000D01*
D33*
X99908682Y-63246000D02*
X99454999Y-62792317D01*
D35*
X108864400Y-137871200D02*
X101981000Y-137871200D01*
X128000000Y-100990000D02*
X128000000Y-87630000D01*
D29*
X99695000Y-135585200D02*
X101981000Y-137871200D01*
X103609800Y-94338800D02*
X103609800Y-95580200D01*
D30*
X123862500Y-85210000D02*
X126104000Y-85210000D01*
D33*
X100348000Y-65913000D02*
X100348000Y-63264000D01*
D29*
X105333800Y-97561400D02*
X105562400Y-97790000D01*
D35*
X128000000Y-87630000D02*
X127889000Y-87630000D01*
X120000000Y-63500000D02*
X117500000Y-63500000D01*
X128000000Y-136972800D02*
X128000000Y-100990000D01*
D31*
X109016800Y-137718800D02*
X109016800Y-135178800D01*
D29*
X123596400Y-135915400D02*
X123596400Y-137871200D01*
D33*
X100330000Y-63246000D02*
X99908682Y-63246000D01*
D35*
X101569305Y-72039695D02*
X101569305Y-71876705D01*
X125069600Y-137871200D02*
X127101600Y-137871200D01*
D30*
X126104000Y-85210000D02*
X126238000Y-85344000D01*
D29*
X97600000Y-135965000D02*
X99315200Y-135965000D01*
D35*
X127889000Y-87630000D02*
X126746000Y-86487000D01*
X126672800Y-102682800D02*
X126490000Y-102500000D01*
D33*
X100348000Y-63264000D02*
X100330000Y-63246000D01*
D35*
X96402500Y-77206500D02*
X101569305Y-72039695D01*
X117830600Y-137871200D02*
X108864400Y-137871200D01*
X126746000Y-86487000D02*
X126238000Y-85979000D01*
X127101600Y-137871200D02*
X128000000Y-136972800D01*
D29*
X99315200Y-135965000D02*
X99695000Y-135585200D01*
X96824800Y-87553800D02*
X96402500Y-87131500D01*
X105105200Y-95580200D02*
X105333800Y-95808800D01*
X103060500Y-93789500D02*
X103609800Y-94338800D01*
D35*
X96402500Y-87131500D02*
X96402500Y-77206500D01*
D30*
%TO.N,Net-(D2-A)*%
X100584000Y-115824000D02*
X101282500Y-115125500D01*
X100584000Y-116958000D02*
X100584000Y-115824000D01*
X101282500Y-115125500D02*
X103695500Y-115125500D01*
X103695500Y-115125500D02*
X104368600Y-114452400D01*
X104368600Y-114452400D02*
X104368600Y-113258600D01*
D33*
%TO.N,Net-(D3-K)*%
X98298000Y-63264000D02*
X98280000Y-63246000D01*
D30*
%TO.N,Net-(D5-A)*%
X104648000Y-116078000D02*
X104775000Y-116205000D01*
X103505000Y-116967000D02*
X103505000Y-116078000D01*
X103505000Y-116078000D02*
X104648000Y-116078000D01*
%TO.N,Net-(D6-A)*%
X106807000Y-115062000D02*
X106807000Y-116078000D01*
X106553000Y-116949000D02*
X106553000Y-116332000D01*
X106553000Y-116332000D02*
X106807000Y-116078000D01*
D33*
%TO.N,Net-(J3-Pin_1)*%
X113284000Y-99949000D02*
X113284000Y-96647000D01*
D29*
X111250000Y-102500000D02*
X113284000Y-102489000D01*
D33*
X113284000Y-96647000D02*
X112141000Y-95504000D01*
X112141000Y-95504000D02*
X112190000Y-91802500D01*
D30*
%TO.N,Net-(J4-Pin_1)*%
X111988600Y-86512400D02*
X111988600Y-89382600D01*
X110920000Y-90451200D02*
X110920000Y-91802500D01*
D29*
X126490000Y-105040000D02*
X124333000Y-105156000D01*
D30*
X111988600Y-89382600D02*
X110920000Y-90451200D01*
%TO.N,Net-(J5-Pin_1)*%
X121793000Y-118123000D02*
X121793000Y-96197518D01*
X113460000Y-90473000D02*
X113460000Y-91802500D01*
X123935000Y-120265000D02*
X121793000Y-118123000D01*
X121793000Y-96197518D02*
X123248000Y-94742518D01*
X113436400Y-90449400D02*
X113460000Y-90473000D01*
%TO.N,Net-(U1-ALE{slash}PROG)*%
X114782600Y-107188000D02*
X114782600Y-91855100D01*
X114782600Y-91855100D02*
X114730000Y-91802500D01*
%TO.N,Net-(U1-P2.5{slash}A13)*%
X109650000Y-90476600D02*
X109650000Y-91802500D01*
X110820200Y-89306400D02*
X109650000Y-90476600D01*
X110820200Y-86512400D02*
X110820200Y-89306400D01*
%TO.N,Net-(U1-P2.4{slash}A12)*%
X108137500Y-90290000D02*
X108127800Y-94996000D01*
X109524800Y-103314800D02*
X111250000Y-105040000D01*
X108127800Y-94996000D02*
X109524800Y-96393000D01*
X109524800Y-96393000D02*
X109524800Y-103314800D01*
%TO.N,T1*%
X109194600Y-70332600D02*
X109650000Y-70788000D01*
X93500000Y-76030000D02*
X99197400Y-70332600D01*
X99197400Y-70332600D02*
X109194600Y-70332600D01*
X109650000Y-70788000D02*
X109650000Y-76077500D01*
%TO.N,T0*%
X110920000Y-71415948D02*
X109281052Y-69777000D01*
X97213000Y-69777000D02*
X93500000Y-73490000D01*
X110920000Y-76077500D02*
X110920000Y-71415948D01*
X109281052Y-69777000D02*
X97213000Y-69777000D01*
%TO.N,INT1*%
X112190000Y-72043896D02*
X109469104Y-69323000D01*
X95127000Y-69323000D02*
X93500000Y-70950000D01*
X112190000Y-76077500D02*
X112190000Y-72043896D01*
X109469104Y-69323000D02*
X95127000Y-69323000D01*
%TO.N,INT0*%
X93500000Y-68500000D02*
X93500000Y-68410000D01*
X113460000Y-72312000D02*
X109651800Y-68503800D01*
X113460000Y-76077500D02*
X113460000Y-72312000D01*
X109651800Y-68503800D02*
X93503800Y-68503800D01*
X93503800Y-68503800D02*
X93500000Y-68500000D01*
%TO.N,TxD*%
X122555000Y-72898000D02*
X119761000Y-72898000D01*
X114808000Y-74090000D02*
X114730000Y-74168000D01*
X114808000Y-72771000D02*
X109956600Y-67919600D01*
X95605600Y-67919600D02*
X95556000Y-67870000D01*
X95500000Y-67870000D02*
X93500000Y-65870000D01*
X125603000Y-75946000D02*
X122555000Y-72898000D01*
X95556000Y-67870000D02*
X95500000Y-67870000D01*
X127324000Y-79004000D02*
X125603000Y-77283000D01*
X109956600Y-67919600D02*
X95605600Y-67919600D01*
X114808000Y-72771000D02*
X114808000Y-74090000D01*
X125603000Y-77283000D02*
X125603000Y-75946000D01*
X114730000Y-74168000D02*
X114730000Y-76077500D01*
%TO.N,RxD*%
X117729000Y-73201000D02*
X117270000Y-73660000D01*
X117729000Y-71755000D02*
X117729000Y-73201000D01*
X110115644Y-67360800D02*
X97530800Y-67360800D01*
X117270000Y-73660000D02*
X117270000Y-76077500D01*
X122615000Y-71755000D02*
X119761000Y-71755000D01*
X114509844Y-71755000D02*
X114341422Y-71586578D01*
X117729000Y-71755000D02*
X114509844Y-71755000D01*
X97530800Y-67360800D02*
X93500000Y-63330000D01*
X127324000Y-76464000D02*
X122615000Y-71755000D01*
X114341422Y-71586578D02*
X110115644Y-67360800D01*
%TO.N,I7*%
X97600000Y-124535000D02*
X97600000Y-123246088D01*
X97600000Y-123246088D02*
X93563912Y-119210000D01*
X93563912Y-119210000D02*
X93500000Y-119210000D01*
%TO.N,I6*%
X94572000Y-121750000D02*
X93500000Y-121750000D01*
X96012000Y-126619000D02*
X96012000Y-123190000D01*
X96012000Y-123190000D02*
X94572000Y-121750000D01*
X96468000Y-127075000D02*
X96012000Y-126619000D01*
X97600000Y-127075000D02*
X96468000Y-127075000D01*
D32*
%TO.N,I5*%
X95072200Y-126504700D02*
X95072200Y-125234700D01*
X98679739Y-127698500D02*
X98668620Y-127709619D01*
X107000000Y-127075000D02*
X106967839Y-127107161D01*
X100476839Y-127107161D02*
X99885500Y-127698500D01*
X96277119Y-127709619D02*
X95072200Y-126504700D01*
X98668620Y-127709619D02*
X96277119Y-127709619D01*
X94127500Y-124290000D02*
X93500000Y-124290000D01*
X106967839Y-127107161D02*
X100476839Y-127107161D01*
X99885500Y-127698500D02*
X98679739Y-127698500D01*
X95072200Y-125234700D02*
X94127500Y-124290000D01*
%TO.N,I4*%
X106988500Y-129603500D02*
X100393500Y-129603500D01*
X99779999Y-128989999D02*
X96096999Y-128989999D01*
X100393500Y-129603500D02*
X99779999Y-128989999D01*
X93937000Y-126830000D02*
X93500000Y-126830000D01*
X107000000Y-129615000D02*
X106988500Y-129603500D01*
X96096999Y-128989999D02*
X93937000Y-126830000D01*
%TO.N,I3*%
X95120500Y-129370000D02*
X93500000Y-129370000D01*
X97600000Y-129615000D02*
X95365500Y-129615000D01*
X95365500Y-129615000D02*
X95120500Y-129370000D01*
%TO.N,I2*%
X95456884Y-132155000D02*
X95211884Y-131910000D01*
X95211884Y-131910000D02*
X93500000Y-131910000D01*
X97600000Y-132155000D02*
X95456884Y-132155000D01*
%TO.N,I1*%
X106975800Y-132130800D02*
X99745800Y-132130800D01*
X95377000Y-133553200D02*
X94480200Y-134450000D01*
X99745800Y-132130800D02*
X99096345Y-132780255D01*
X96137245Y-132780255D02*
X95377000Y-133540500D01*
X99096345Y-132780255D02*
X96137245Y-132780255D01*
X95377000Y-133540500D02*
X95377000Y-133553200D01*
X107000000Y-132155000D02*
X106975800Y-132130800D01*
X94480200Y-134450000D02*
X93500000Y-134450000D01*
D30*
%TO.N,I0*%
X105154800Y-134695000D02*
X107000000Y-134695000D01*
%TO.N,O7*%
X93965000Y-98425000D02*
X93500000Y-98890000D01*
X106700000Y-99055000D02*
X104140000Y-99060000D01*
X104140000Y-99060000D02*
X103632000Y-98425000D01*
X103632000Y-98425000D02*
X93965000Y-98425000D01*
%TO.N,O6*%
X97300000Y-99055000D02*
X96017000Y-99055000D01*
X93642000Y-101430000D02*
X93500000Y-101430000D01*
X96017000Y-99055000D02*
X93642000Y-101430000D01*
%TO.N,O5*%
X95763000Y-102865000D02*
X94658000Y-103970000D01*
X97300000Y-102865000D02*
X95763000Y-102865000D01*
X94658000Y-103970000D02*
X93500000Y-103970000D01*
%TO.N,O4*%
X94023000Y-106510000D02*
X93500000Y-106510000D01*
X97300000Y-104135000D02*
X96398000Y-104135000D01*
X96398000Y-104135000D02*
X94023000Y-106510000D01*
%TO.N,O3*%
X94600000Y-107950000D02*
X93500000Y-109050000D01*
X97295000Y-107950000D02*
X94600000Y-107950000D01*
X97300000Y-107945000D02*
X97295000Y-107950000D01*
%TO.N,O2*%
X106700000Y-102865000D02*
X105694400Y-102865000D01*
X105694400Y-102865000D02*
X103632000Y-104927400D01*
X103632000Y-108788200D02*
X100830200Y-111590000D01*
X103632000Y-104927400D02*
X103632000Y-108788200D01*
X100830200Y-111590000D02*
X93500000Y-111590000D01*
%TO.N,O1*%
X104165400Y-109372400D02*
X101015800Y-112522000D01*
X106700000Y-104135000D02*
X105186400Y-104135000D01*
X93500000Y-114018000D02*
X93500000Y-114130000D01*
X104165400Y-105156000D02*
X104165400Y-109372400D01*
X105186400Y-104135000D02*
X104165400Y-105156000D01*
X93553400Y-114071400D02*
X93500000Y-114018000D01*
X94564200Y-114071400D02*
X93553400Y-114071400D01*
X101015800Y-112522000D02*
X96113600Y-112522000D01*
X96113600Y-112522000D02*
X94564200Y-114071400D01*
%TO.N,O0*%
X105440400Y-107945000D02*
X105079800Y-108305600D01*
X97515100Y-113279500D02*
X95767000Y-115027600D01*
X102318600Y-112260600D02*
X102318600Y-113258600D01*
X105079800Y-109499400D02*
X102318600Y-112260600D01*
X102297700Y-113279500D02*
X97515100Y-113279500D01*
X102318600Y-113258600D02*
X102297700Y-113279500D01*
X106700000Y-107945000D02*
X105440400Y-107945000D01*
X105079800Y-108305600D02*
X105079800Y-109499400D01*
X94150000Y-116670000D02*
X93500000Y-116670000D01*
X95767000Y-115027600D02*
X95767000Y-115053000D01*
X95767000Y-115053000D02*
X94150000Y-116670000D01*
%TO.N,Net-(U1-P2.3{slash}A11)*%
X108137500Y-89020000D02*
X109481000Y-89020000D01*
X109481000Y-89020000D02*
X109499400Y-89001600D01*
%TO.N,Net-(U1-P2.2{slash}A10)*%
X124802000Y-95797000D02*
X122682000Y-97917000D01*
X108137500Y-87750000D02*
X109467000Y-87750000D01*
X122682000Y-116509800D02*
X126452200Y-120280000D01*
X122682000Y-97917000D02*
X122682000Y-116509800D01*
X126452200Y-120280000D02*
X126490000Y-120280000D01*
X109467000Y-87750000D02*
X109474000Y-87757000D01*
X124802000Y-93853000D02*
X124802000Y-95797000D01*
%TO.N,Net-(U1-P2.1{slash}A9)*%
X109452584Y-86480000D02*
X108137500Y-86480000D01*
X109479492Y-86506908D02*
X109452584Y-86480000D01*
%TO.N,Net-(U1-P2.0{slash}A8)*%
X108322300Y-85394800D02*
X108137500Y-85210000D01*
X113411000Y-86715600D02*
X112090200Y-85394800D01*
X113411000Y-87833200D02*
X113411000Y-86715600D01*
X112090200Y-85394800D02*
X108322300Y-85394800D01*
%TO.N,P0*%
X120650000Y-82042000D02*
X121278000Y-82670000D01*
X121278000Y-82670000D02*
X123862500Y-82670000D01*
%TO.N,P1*%
X123615500Y-81153000D02*
X123862500Y-81400000D01*
X118160800Y-81153000D02*
X123615500Y-81153000D01*
X118110000Y-81203800D02*
X118160800Y-81153000D01*
%TO.N,P2*%
X120631600Y-80130000D02*
X123862500Y-80130000D01*
X120599200Y-80162400D02*
X120631600Y-80130000D01*
%TO.N,P3*%
X118142400Y-78860000D02*
X123862500Y-78860000D01*
%TO.N,P4*%
X120650000Y-77927200D02*
X120987200Y-77590000D01*
X120987200Y-77590000D02*
X123862500Y-77590000D01*
%TO.N,P5*%
X122301000Y-76028500D02*
X122350000Y-76077500D01*
X122301000Y-74041000D02*
X122301000Y-76028500D01*
%TO.N,P6*%
X121080000Y-74090000D02*
X121080000Y-76077500D01*
X121031000Y-74041000D02*
X121080000Y-74090000D01*
%TO.N,P7*%
X119810000Y-74090000D02*
X119761000Y-74041000D01*
X119810000Y-76077500D02*
X119810000Y-74090000D01*
%TO.N,Net-(U1-P3.7{slash}nRD)*%
X104977000Y-135965000D02*
X107000000Y-135965000D01*
X105562400Y-87757000D02*
X105562400Y-93243400D01*
X110871000Y-84632800D02*
X110871000Y-80391000D01*
X103733600Y-134721600D02*
X103707000Y-134695000D01*
X108966000Y-119913400D02*
X105841800Y-123037600D01*
X108966000Y-96647000D02*
X108966000Y-119913400D01*
X109340000Y-78860000D02*
X108137500Y-78860000D01*
X105562400Y-93243400D02*
X108966000Y-96647000D01*
X110871000Y-80391000D02*
X109340000Y-78860000D01*
X103733600Y-134721600D02*
X104977000Y-135965000D01*
X103707000Y-134695000D02*
X97600000Y-134695000D01*
%TO.N,Net-(U1-P3.6{slash}nWR)*%
X112141000Y-80391000D02*
X109340000Y-77590000D01*
X108458000Y-108585000D02*
X108458000Y-96901000D01*
X112141000Y-83743800D02*
X112141000Y-80391000D01*
X112153700Y-83756500D02*
X112141000Y-83743800D01*
X104510600Y-92953600D02*
X104510600Y-87807800D01*
X106700000Y-109215000D02*
X107828000Y-109215000D01*
X107828000Y-109215000D02*
X108458000Y-108585000D01*
X108458000Y-96901000D02*
X104510600Y-92953600D01*
X109340000Y-77590000D02*
X108137500Y-77590000D01*
%TO.N,AD4*%
X97600000Y-128345000D02*
X104519800Y-128345000D01*
X126477600Y-132980000D02*
X126490000Y-132980000D01*
X105156000Y-128981200D02*
X109143800Y-128981200D01*
X119659400Y-96316800D02*
X122350000Y-93626200D01*
X101757400Y-105405000D02*
X97300000Y-105405000D01*
X122350000Y-93626200D02*
X122350000Y-91802500D01*
X117856000Y-112522000D02*
X117856000Y-116687600D01*
X119659400Y-103860600D02*
X119659400Y-96316800D01*
X122631200Y-129133600D02*
X126477600Y-132980000D01*
X109296200Y-129133600D02*
X122631200Y-129133600D01*
X119684800Y-103886000D02*
X119684800Y-110693200D01*
X119659400Y-103860600D02*
X119684800Y-103886000D01*
X102819200Y-104343200D02*
X101757400Y-105405000D01*
X104519800Y-128345000D02*
X105156000Y-128981200D01*
X109143800Y-128981200D02*
X109296200Y-129133600D01*
X119684800Y-110693200D02*
X117856000Y-112522000D01*
%TO.N,AD5*%
X102001400Y-101595000D02*
X97300000Y-101595000D01*
X102870000Y-102463600D02*
X102001400Y-101595000D01*
X110769400Y-124053600D02*
X120091200Y-124053600D01*
X104419084Y-125805884D02*
X97600884Y-125805884D01*
X126477600Y-130440000D02*
X126490000Y-130440000D01*
X104419084Y-125805884D02*
X105054400Y-126441200D01*
X121080000Y-91802500D02*
X121080000Y-93673400D01*
X120091200Y-124053600D02*
X126477600Y-130440000D01*
X105054400Y-126441200D02*
X108381800Y-126441200D01*
X108381800Y-126441200D02*
X110769400Y-124053600D01*
X97600884Y-125805884D02*
X97600000Y-125805000D01*
%TO.N,AD6*%
X119810000Y-93423000D02*
X119810000Y-91802500D01*
X119810000Y-91235000D02*
X118643400Y-90068400D01*
X118821200Y-109143800D02*
X118821200Y-94411800D01*
X118821200Y-94411800D02*
X119810000Y-93423000D01*
X122047000Y-127279400D02*
X121259600Y-126492000D01*
X109423200Y-126492000D02*
X107570200Y-128345000D01*
X97305000Y-100330000D02*
X97300000Y-100325000D01*
X98958400Y-100330000D02*
X97305000Y-100330000D01*
X119810000Y-91802500D02*
X119810000Y-91235000D01*
X107570200Y-128345000D02*
X107000000Y-128345000D01*
X121259600Y-126492000D02*
X109423200Y-126492000D01*
%TO.N,AD7*%
X113157000Y-121005600D02*
X113741200Y-121589800D01*
X118540000Y-92866802D02*
X118517701Y-92889101D01*
X107798800Y-125805000D02*
X109143800Y-124460000D01*
X115959178Y-93463822D02*
X117043200Y-93463822D01*
X122707400Y-121589800D02*
X126477600Y-125360000D01*
X118517701Y-92962699D02*
X118016578Y-93463822D01*
X113741200Y-121589800D02*
X122707400Y-121589800D01*
X115519200Y-109931200D02*
X113157000Y-112293400D01*
X104998600Y-100325000D02*
X106700000Y-100325000D01*
X115925600Y-93497400D02*
X115959178Y-93463822D01*
X107000000Y-125805000D02*
X107798800Y-125805000D01*
X118517701Y-92889101D02*
X118517701Y-92962699D01*
X126477600Y-125360000D02*
X126490000Y-125360000D01*
X115959178Y-93463822D02*
X115519200Y-93903800D01*
X112598200Y-121589800D02*
X113157000Y-121031000D01*
X109143800Y-124460000D02*
X109143800Y-122910600D01*
X113157000Y-112293400D02*
X113157000Y-121005600D01*
X109143800Y-122910600D02*
X110464600Y-121589800D01*
X110464600Y-121589800D02*
X112598200Y-121589800D01*
X115519200Y-93903800D02*
X115519200Y-109931200D01*
X118540000Y-91802500D02*
X118540000Y-92866802D01*
X118016578Y-93463822D02*
X117043200Y-93463822D01*
%TO.N,AD2*%
X116255800Y-96367600D02*
X116509800Y-96621600D01*
X104952800Y-101600000D02*
X106695000Y-101600000D01*
X113995200Y-119989600D02*
X114122200Y-120116600D01*
X122174000Y-90068400D02*
X122174000Y-89281000D01*
X106695000Y-101600000D02*
X106700000Y-101595000D01*
X116509800Y-110261400D02*
X113995200Y-112776000D01*
X122174000Y-89281000D02*
X122435000Y-89020000D01*
X107000000Y-133425000D02*
X108967200Y-133425000D01*
X113995200Y-112776000D02*
X113995200Y-119989600D01*
X111239000Y-132969000D02*
X111250000Y-132980000D01*
X108967200Y-133425000D02*
X109423200Y-132969000D01*
X116509800Y-96621600D02*
X116509800Y-110261400D01*
X122435000Y-89020000D02*
X123862500Y-89020000D01*
X109423200Y-132969000D02*
X111239000Y-132969000D01*
%TO.N,AD0*%
X122130200Y-86480000D02*
X123862500Y-86480000D01*
X119862600Y-88747600D02*
X122130200Y-86480000D01*
X116103400Y-127279400D02*
X115493800Y-127889000D01*
X97624200Y-133400800D02*
X97600000Y-133425000D01*
X117297200Y-108940600D02*
X117297200Y-110693200D01*
X111239000Y-127889000D02*
X111250000Y-127900000D01*
X115316000Y-112674400D02*
X115316000Y-120116600D01*
X109118400Y-127889000D02*
X111239000Y-127889000D01*
X105130600Y-133400800D02*
X97624200Y-133400800D01*
X117297200Y-110693200D02*
X115316000Y-112674400D01*
X117297200Y-95580200D02*
X116255800Y-94538800D01*
X115493800Y-127889000D02*
X111261000Y-127889000D01*
X106700000Y-106675000D02*
X105054400Y-106654600D01*
X119862600Y-90043000D02*
X119862600Y-88747600D01*
X111261000Y-127889000D02*
X111250000Y-127900000D01*
X117297200Y-108940600D02*
X117297200Y-95580200D01*
%TO.N,AD3*%
X126034800Y-135077200D02*
X126047200Y-135077200D01*
X123862500Y-90290000D02*
X123862500Y-92818256D01*
X119456200Y-112598200D02*
X119456200Y-116713000D01*
X123862500Y-92818256D02*
X120777000Y-95903756D01*
X107855482Y-130885000D02*
X107000000Y-130885000D01*
X102717600Y-106705400D02*
X102687200Y-106675000D01*
X120777000Y-111277400D02*
X119456200Y-112598200D01*
X120294400Y-131749800D02*
X117017800Y-131749800D01*
X102687200Y-106675000D02*
X97300000Y-106675000D01*
X120777000Y-95903756D02*
X120777000Y-111277400D01*
X108720282Y-131749800D02*
X107855482Y-130885000D01*
X120294400Y-131749800D02*
X122707400Y-131749800D01*
X122707400Y-131749800D02*
X126034800Y-135077200D01*
X126047200Y-135077200D02*
X126490000Y-135520000D01*
X117017800Y-131749800D02*
X108720282Y-131749800D01*
%TO.N,AD1*%
X116789200Y-112458500D02*
X116789200Y-119126000D01*
X118084600Y-111163100D02*
X116789200Y-112458500D01*
X108810825Y-130253975D02*
X108813600Y-130251200D01*
X118084600Y-106248200D02*
X118084600Y-111163100D01*
X121056400Y-90043000D02*
X121056400Y-88950800D01*
X111061200Y-130251200D02*
X111250000Y-130440000D01*
X108813600Y-130251200D02*
X111061200Y-130251200D01*
X121056400Y-88950800D02*
X122257200Y-87750000D01*
X118084600Y-106248200D02*
X118084600Y-95046800D01*
X104292400Y-130886200D02*
X104924625Y-130253975D01*
X118084600Y-95046800D02*
X117551200Y-94513400D01*
X122257200Y-87750000D02*
X123862500Y-87750000D01*
X104924625Y-130253975D02*
X108810825Y-130253975D01*
X106700000Y-105405000D02*
X105079800Y-105410000D01*
X97601200Y-130886200D02*
X104292400Y-130886200D01*
X97600000Y-130885000D02*
X97601200Y-130886200D01*
%TD*%
M02*
