%TF.GenerationSoftware,KiCad,Pcbnew,8.0.6+1*%
%TF.CreationDate,2024-11-21T22:42:01+01:00*%
%TF.ProjectId,8051,38303531-2e6b-4696-9361-645f70636258,rev?*%
%TF.SameCoordinates,Original*%
%TF.FileFunction,Legend,Top*%
%TF.FilePolarity,Positive*%
%FSLAX46Y46*%
G04 Gerber Fmt 4.6, Leading zero omitted, Abs format (unit mm)*
G04 Created by KiCad (PCBNEW 8.0.6+1) date 2024-11-21 22:42:01*
%MOMM*%
%LPD*%
G01*
G04 APERTURE LIST*
%ADD10C,0.120000*%
%ADD11C,0.889000*%
%ADD12C,0.568000*%
%ADD13C,0.150000*%
%ADD14C,0.190500*%
%ADD15C,0.100000*%
G04 APERTURE END LIST*
D10*
X118170000Y-83252000D02*
X120700000Y-82700000D01*
X114600000Y-87100000D02*
X114700000Y-87400000D01*
X115570000Y-85912000D02*
X114600000Y-87100000D01*
X114600000Y-87100000D02*
X114200000Y-87200000D01*
D11*
X96189800Y-62534800D02*
X96189800Y-71628000D01*
D10*
X118200000Y-85900000D02*
X120800000Y-86300000D01*
X114600000Y-82300000D02*
X114600000Y-82000000D01*
X115570000Y-83252000D02*
X114600000Y-82300000D01*
X114600000Y-82300000D02*
X114400000Y-82200000D01*
D12*
X126141000Y-83947000D02*
G75*
G02*
X125573000Y-83947000I-284000J0D01*
G01*
X125573000Y-83947000D02*
G75*
G02*
X126141000Y-83947000I284000J0D01*
G01*
D13*
X95169219Y-81607819D02*
X95169219Y-80607819D01*
X95169219Y-80607819D02*
X95550171Y-80607819D01*
X95550171Y-80607819D02*
X95645409Y-80655438D01*
X95645409Y-80655438D02*
X95693028Y-80703057D01*
X95693028Y-80703057D02*
X95740647Y-80798295D01*
X95740647Y-80798295D02*
X95740647Y-80941152D01*
X95740647Y-80941152D02*
X95693028Y-81036390D01*
X95693028Y-81036390D02*
X95645409Y-81084009D01*
X95645409Y-81084009D02*
X95550171Y-81131628D01*
X95550171Y-81131628D02*
X95169219Y-81131628D01*
X96693028Y-81607819D02*
X96121600Y-81607819D01*
X96407314Y-81607819D02*
X96407314Y-80607819D01*
X96407314Y-80607819D02*
X96312076Y-80750676D01*
X96312076Y-80750676D02*
X96216838Y-80845914D01*
X96216838Y-80845914D02*
X96121600Y-80893533D01*
X97121600Y-81512580D02*
X97169219Y-81560200D01*
X97169219Y-81560200D02*
X97121600Y-81607819D01*
X97121600Y-81607819D02*
X97073981Y-81560200D01*
X97073981Y-81560200D02*
X97121600Y-81512580D01*
X97121600Y-81512580D02*
X97121600Y-81607819D01*
X98026361Y-80607819D02*
X97835885Y-80607819D01*
X97835885Y-80607819D02*
X97740647Y-80655438D01*
X97740647Y-80655438D02*
X97693028Y-80703057D01*
X97693028Y-80703057D02*
X97597790Y-80845914D01*
X97597790Y-80845914D02*
X97550171Y-81036390D01*
X97550171Y-81036390D02*
X97550171Y-81417342D01*
X97550171Y-81417342D02*
X97597790Y-81512580D01*
X97597790Y-81512580D02*
X97645409Y-81560200D01*
X97645409Y-81560200D02*
X97740647Y-81607819D01*
X97740647Y-81607819D02*
X97931123Y-81607819D01*
X97931123Y-81607819D02*
X98026361Y-81560200D01*
X98026361Y-81560200D02*
X98073980Y-81512580D01*
X98073980Y-81512580D02*
X98121599Y-81417342D01*
X98121599Y-81417342D02*
X98121599Y-81179247D01*
X98121599Y-81179247D02*
X98073980Y-81084009D01*
X98073980Y-81084009D02*
X98026361Y-81036390D01*
X98026361Y-81036390D02*
X97931123Y-80988771D01*
X97931123Y-80988771D02*
X97740647Y-80988771D01*
X97740647Y-80988771D02*
X97645409Y-81036390D01*
X97645409Y-81036390D02*
X97597790Y-81084009D01*
X97597790Y-81084009D02*
X97550171Y-81179247D01*
X95194619Y-94180819D02*
X95194619Y-93180819D01*
X95194619Y-93180819D02*
X95575571Y-93180819D01*
X95575571Y-93180819D02*
X95670809Y-93228438D01*
X95670809Y-93228438D02*
X95718428Y-93276057D01*
X95718428Y-93276057D02*
X95766047Y-93371295D01*
X95766047Y-93371295D02*
X95766047Y-93514152D01*
X95766047Y-93514152D02*
X95718428Y-93609390D01*
X95718428Y-93609390D02*
X95670809Y-93657009D01*
X95670809Y-93657009D02*
X95575571Y-93704628D01*
X95575571Y-93704628D02*
X95194619Y-93704628D01*
X96718428Y-94180819D02*
X96147000Y-94180819D01*
X96432714Y-94180819D02*
X96432714Y-93180819D01*
X96432714Y-93180819D02*
X96337476Y-93323676D01*
X96337476Y-93323676D02*
X96242238Y-93418914D01*
X96242238Y-93418914D02*
X96147000Y-93466533D01*
X97147000Y-94085580D02*
X97194619Y-94133200D01*
X97194619Y-94133200D02*
X97147000Y-94180819D01*
X97147000Y-94180819D02*
X97099381Y-94133200D01*
X97099381Y-94133200D02*
X97147000Y-94085580D01*
X97147000Y-94085580D02*
X97147000Y-94180819D01*
X98146999Y-94180819D02*
X97575571Y-94180819D01*
X97861285Y-94180819D02*
X97861285Y-93180819D01*
X97861285Y-93180819D02*
X97766047Y-93323676D01*
X97766047Y-93323676D02*
X97670809Y-93418914D01*
X97670809Y-93418914D02*
X97575571Y-93466533D01*
X115025657Y-65666209D02*
X115168514Y-65713828D01*
X115168514Y-65713828D02*
X115216133Y-65761447D01*
X115216133Y-65761447D02*
X115263752Y-65856685D01*
X115263752Y-65856685D02*
X115263752Y-65999542D01*
X115263752Y-65999542D02*
X115216133Y-66094780D01*
X115216133Y-66094780D02*
X115168514Y-66142400D01*
X115168514Y-66142400D02*
X115073276Y-66190019D01*
X115073276Y-66190019D02*
X114692324Y-66190019D01*
X114692324Y-66190019D02*
X114692324Y-65190019D01*
X114692324Y-65190019D02*
X115025657Y-65190019D01*
X115025657Y-65190019D02*
X115120895Y-65237638D01*
X115120895Y-65237638D02*
X115168514Y-65285257D01*
X115168514Y-65285257D02*
X115216133Y-65380495D01*
X115216133Y-65380495D02*
X115216133Y-65475733D01*
X115216133Y-65475733D02*
X115168514Y-65570971D01*
X115168514Y-65570971D02*
X115120895Y-65618590D01*
X115120895Y-65618590D02*
X115025657Y-65666209D01*
X115025657Y-65666209D02*
X114692324Y-65666209D01*
X115597086Y-65190019D02*
X116263752Y-65190019D01*
X116263752Y-65190019D02*
X115597086Y-66190019D01*
X115597086Y-66190019D02*
X116263752Y-66190019D01*
X116549467Y-65190019D02*
X117216133Y-65190019D01*
X117216133Y-65190019D02*
X116549467Y-66190019D01*
X116549467Y-66190019D02*
X117216133Y-66190019D01*
X117501848Y-65190019D02*
X118168514Y-65190019D01*
X118168514Y-65190019D02*
X117501848Y-66190019D01*
X117501848Y-66190019D02*
X118168514Y-66190019D01*
X102366723Y-95990580D02*
X102319104Y-96038200D01*
X102319104Y-96038200D02*
X102176247Y-96085819D01*
X102176247Y-96085819D02*
X102081009Y-96085819D01*
X102081009Y-96085819D02*
X101938152Y-96038200D01*
X101938152Y-96038200D02*
X101842914Y-95942961D01*
X101842914Y-95942961D02*
X101795295Y-95847723D01*
X101795295Y-95847723D02*
X101747676Y-95657247D01*
X101747676Y-95657247D02*
X101747676Y-95514390D01*
X101747676Y-95514390D02*
X101795295Y-95323914D01*
X101795295Y-95323914D02*
X101842914Y-95228676D01*
X101842914Y-95228676D02*
X101938152Y-95133438D01*
X101938152Y-95133438D02*
X102081009Y-95085819D01*
X102081009Y-95085819D02*
X102176247Y-95085819D01*
X102176247Y-95085819D02*
X102319104Y-95133438D01*
X102319104Y-95133438D02*
X102366723Y-95181057D01*
X116206924Y-111284657D02*
X116254543Y-111237038D01*
X116254543Y-111237038D02*
X116349781Y-111189419D01*
X116349781Y-111189419D02*
X116587876Y-111189419D01*
X116587876Y-111189419D02*
X116683114Y-111237038D01*
X116683114Y-111237038D02*
X116730733Y-111284657D01*
X116730733Y-111284657D02*
X116778352Y-111379895D01*
X116778352Y-111379895D02*
X116778352Y-111475133D01*
X116778352Y-111475133D02*
X116730733Y-111617990D01*
X116730733Y-111617990D02*
X116159305Y-112189419D01*
X116159305Y-112189419D02*
X116778352Y-112189419D01*
X117111686Y-111189419D02*
X117778352Y-111189419D01*
X117778352Y-111189419D02*
X117349781Y-112189419D01*
X118730733Y-112094180D02*
X118683114Y-112141800D01*
X118683114Y-112141800D02*
X118540257Y-112189419D01*
X118540257Y-112189419D02*
X118445019Y-112189419D01*
X118445019Y-112189419D02*
X118302162Y-112141800D01*
X118302162Y-112141800D02*
X118206924Y-112046561D01*
X118206924Y-112046561D02*
X118159305Y-111951323D01*
X118159305Y-111951323D02*
X118111686Y-111760847D01*
X118111686Y-111760847D02*
X118111686Y-111617990D01*
X118111686Y-111617990D02*
X118159305Y-111427514D01*
X118159305Y-111427514D02*
X118206924Y-111332276D01*
X118206924Y-111332276D02*
X118302162Y-111237038D01*
X118302162Y-111237038D02*
X118445019Y-111189419D01*
X118445019Y-111189419D02*
X118540257Y-111189419D01*
X118540257Y-111189419D02*
X118683114Y-111237038D01*
X118683114Y-111237038D02*
X118730733Y-111284657D01*
X119635495Y-111189419D02*
X119159305Y-111189419D01*
X119159305Y-111189419D02*
X119111686Y-111665609D01*
X119111686Y-111665609D02*
X119159305Y-111617990D01*
X119159305Y-111617990D02*
X119254543Y-111570371D01*
X119254543Y-111570371D02*
X119492638Y-111570371D01*
X119492638Y-111570371D02*
X119587876Y-111617990D01*
X119587876Y-111617990D02*
X119635495Y-111665609D01*
X119635495Y-111665609D02*
X119683114Y-111760847D01*
X119683114Y-111760847D02*
X119683114Y-111998942D01*
X119683114Y-111998942D02*
X119635495Y-112094180D01*
X119635495Y-112094180D02*
X119587876Y-112141800D01*
X119587876Y-112141800D02*
X119492638Y-112189419D01*
X119492638Y-112189419D02*
X119254543Y-112189419D01*
X119254543Y-112189419D02*
X119159305Y-112141800D01*
X119159305Y-112141800D02*
X119111686Y-112094180D01*
X120635495Y-112189419D02*
X120064067Y-112189419D01*
X120349781Y-112189419D02*
X120349781Y-111189419D01*
X120349781Y-111189419D02*
X120254543Y-111332276D01*
X120254543Y-111332276D02*
X120159305Y-111427514D01*
X120159305Y-111427514D02*
X120064067Y-111475133D01*
X121016448Y-111284657D02*
X121064067Y-111237038D01*
X121064067Y-111237038D02*
X121159305Y-111189419D01*
X121159305Y-111189419D02*
X121397400Y-111189419D01*
X121397400Y-111189419D02*
X121492638Y-111237038D01*
X121492638Y-111237038D02*
X121540257Y-111284657D01*
X121540257Y-111284657D02*
X121587876Y-111379895D01*
X121587876Y-111379895D02*
X121587876Y-111475133D01*
X121587876Y-111475133D02*
X121540257Y-111617990D01*
X121540257Y-111617990D02*
X120968829Y-112189419D01*
X120968829Y-112189419D02*
X121587876Y-112189419D01*
X96074580Y-116116171D02*
X96074580Y-116306647D01*
X96074580Y-116306647D02*
X96026961Y-116401885D01*
X96026961Y-116401885D02*
X95931723Y-116497123D01*
X95931723Y-116497123D02*
X95741247Y-116544742D01*
X95741247Y-116544742D02*
X95407914Y-116544742D01*
X95407914Y-116544742D02*
X95217438Y-116497123D01*
X95217438Y-116497123D02*
X95122200Y-116401885D01*
X95122200Y-116401885D02*
X95074580Y-116306647D01*
X95074580Y-116306647D02*
X95074580Y-116116171D01*
X95074580Y-116116171D02*
X95122200Y-116020933D01*
X95122200Y-116020933D02*
X95217438Y-115925695D01*
X95217438Y-115925695D02*
X95407914Y-115878076D01*
X95407914Y-115878076D02*
X95741247Y-115878076D01*
X95741247Y-115878076D02*
X95931723Y-115925695D01*
X95931723Y-115925695D02*
X96026961Y-116020933D01*
X96026961Y-116020933D02*
X96074580Y-116116171D01*
X96074580Y-117163790D02*
X96074580Y-117259028D01*
X96074580Y-117259028D02*
X96026961Y-117354266D01*
X96026961Y-117354266D02*
X95979342Y-117401885D01*
X95979342Y-117401885D02*
X95884104Y-117449504D01*
X95884104Y-117449504D02*
X95693628Y-117497123D01*
X95693628Y-117497123D02*
X95455533Y-117497123D01*
X95455533Y-117497123D02*
X95265057Y-117449504D01*
X95265057Y-117449504D02*
X95169819Y-117401885D01*
X95169819Y-117401885D02*
X95122200Y-117354266D01*
X95122200Y-117354266D02*
X95074580Y-117259028D01*
X95074580Y-117259028D02*
X95074580Y-117163790D01*
X95074580Y-117163790D02*
X95122200Y-117068552D01*
X95122200Y-117068552D02*
X95169819Y-117020933D01*
X95169819Y-117020933D02*
X95265057Y-116973314D01*
X95265057Y-116973314D02*
X95455533Y-116925695D01*
X95455533Y-116925695D02*
X95693628Y-116925695D01*
X95693628Y-116925695D02*
X95884104Y-116973314D01*
X95884104Y-116973314D02*
X95979342Y-117020933D01*
X95979342Y-117020933D02*
X96026961Y-117068552D01*
X96026961Y-117068552D02*
X96074580Y-117163790D01*
X95074580Y-131426010D02*
X96074580Y-131426010D01*
X95979342Y-131854581D02*
X96026961Y-131902200D01*
X96026961Y-131902200D02*
X96074580Y-131997438D01*
X96074580Y-131997438D02*
X96074580Y-132235533D01*
X96074580Y-132235533D02*
X96026961Y-132330771D01*
X96026961Y-132330771D02*
X95979342Y-132378390D01*
X95979342Y-132378390D02*
X95884104Y-132426009D01*
X95884104Y-132426009D02*
X95788866Y-132426009D01*
X95788866Y-132426009D02*
X95646009Y-132378390D01*
X95646009Y-132378390D02*
X95074580Y-131806962D01*
X95074580Y-131806962D02*
X95074580Y-132426009D01*
X96074580Y-110959971D02*
X96074580Y-111150447D01*
X96074580Y-111150447D02*
X96026961Y-111245685D01*
X96026961Y-111245685D02*
X95931723Y-111340923D01*
X95931723Y-111340923D02*
X95741247Y-111388542D01*
X95741247Y-111388542D02*
X95407914Y-111388542D01*
X95407914Y-111388542D02*
X95217438Y-111340923D01*
X95217438Y-111340923D02*
X95122200Y-111245685D01*
X95122200Y-111245685D02*
X95074580Y-111150447D01*
X95074580Y-111150447D02*
X95074580Y-110959971D01*
X95074580Y-110959971D02*
X95122200Y-110864733D01*
X95122200Y-110864733D02*
X95217438Y-110769495D01*
X95217438Y-110769495D02*
X95407914Y-110721876D01*
X95407914Y-110721876D02*
X95741247Y-110721876D01*
X95741247Y-110721876D02*
X95931723Y-110769495D01*
X95931723Y-110769495D02*
X96026961Y-110864733D01*
X96026961Y-110864733D02*
X96074580Y-110959971D01*
X95979342Y-111769495D02*
X96026961Y-111817114D01*
X96026961Y-111817114D02*
X96074580Y-111912352D01*
X96074580Y-111912352D02*
X96074580Y-112150447D01*
X96074580Y-112150447D02*
X96026961Y-112245685D01*
X96026961Y-112245685D02*
X95979342Y-112293304D01*
X95979342Y-112293304D02*
X95884104Y-112340923D01*
X95884104Y-112340923D02*
X95788866Y-112340923D01*
X95788866Y-112340923D02*
X95646009Y-112293304D01*
X95646009Y-112293304D02*
X95074580Y-111721876D01*
X95074580Y-111721876D02*
X95074580Y-112340923D01*
X101572664Y-92277291D02*
X101525045Y-92372529D01*
X101525045Y-92372529D02*
X101525045Y-92515386D01*
X101525045Y-92515386D02*
X101572664Y-92658243D01*
X101572664Y-92658243D02*
X101667902Y-92753481D01*
X101667902Y-92753481D02*
X101763140Y-92801100D01*
X101763140Y-92801100D02*
X101953616Y-92848719D01*
X101953616Y-92848719D02*
X102096473Y-92848719D01*
X102096473Y-92848719D02*
X102286949Y-92801100D01*
X102286949Y-92801100D02*
X102382187Y-92753481D01*
X102382187Y-92753481D02*
X102477426Y-92658243D01*
X102477426Y-92658243D02*
X102525045Y-92515386D01*
X102525045Y-92515386D02*
X102525045Y-92420148D01*
X102525045Y-92420148D02*
X102477426Y-92277291D01*
X102477426Y-92277291D02*
X102429806Y-92229672D01*
X102429806Y-92229672D02*
X102096473Y-92229672D01*
X102096473Y-92229672D02*
X102096473Y-92420148D01*
X102525045Y-91801100D02*
X101525045Y-91801100D01*
X101525045Y-91801100D02*
X102525045Y-91229672D01*
X102525045Y-91229672D02*
X101525045Y-91229672D01*
X102525045Y-90753481D02*
X101525045Y-90753481D01*
X101525045Y-90753481D02*
X101525045Y-90515386D01*
X101525045Y-90515386D02*
X101572664Y-90372529D01*
X101572664Y-90372529D02*
X101667902Y-90277291D01*
X101667902Y-90277291D02*
X101763140Y-90229672D01*
X101763140Y-90229672D02*
X101953616Y-90182053D01*
X101953616Y-90182053D02*
X102096473Y-90182053D01*
X102096473Y-90182053D02*
X102286949Y-90229672D01*
X102286949Y-90229672D02*
X102382187Y-90277291D01*
X102382187Y-90277291D02*
X102477426Y-90372529D01*
X102477426Y-90372529D02*
X102525045Y-90515386D01*
X102525045Y-90515386D02*
X102525045Y-90753481D01*
X95023780Y-126346010D02*
X96023780Y-126346010D01*
X95690447Y-127250771D02*
X95023780Y-127250771D01*
X96071400Y-127012676D02*
X95357114Y-126774581D01*
X95357114Y-126774581D02*
X95357114Y-127393628D01*
X102350961Y-63777019D02*
X102017628Y-63300828D01*
X101779533Y-63777019D02*
X101779533Y-62777019D01*
X101779533Y-62777019D02*
X102160485Y-62777019D01*
X102160485Y-62777019D02*
X102255723Y-62824638D01*
X102255723Y-62824638D02*
X102303342Y-62872257D01*
X102303342Y-62872257D02*
X102350961Y-62967495D01*
X102350961Y-62967495D02*
X102350961Y-63110352D01*
X102350961Y-63110352D02*
X102303342Y-63205590D01*
X102303342Y-63205590D02*
X102255723Y-63253209D01*
X102255723Y-63253209D02*
X102160485Y-63300828D01*
X102160485Y-63300828D02*
X101779533Y-63300828D01*
X102684295Y-63777019D02*
X103208104Y-63110352D01*
X102684295Y-63110352D02*
X103208104Y-63777019D01*
X103589057Y-63777019D02*
X103589057Y-62777019D01*
X103589057Y-62777019D02*
X103827152Y-62777019D01*
X103827152Y-62777019D02*
X103970009Y-62824638D01*
X103970009Y-62824638D02*
X104065247Y-62919876D01*
X104065247Y-62919876D02*
X104112866Y-63015114D01*
X104112866Y-63015114D02*
X104160485Y-63205590D01*
X104160485Y-63205590D02*
X104160485Y-63348447D01*
X104160485Y-63348447D02*
X104112866Y-63538923D01*
X104112866Y-63538923D02*
X104065247Y-63634161D01*
X104065247Y-63634161D02*
X103970009Y-63729400D01*
X103970009Y-63729400D02*
X103827152Y-63777019D01*
X103827152Y-63777019D02*
X103589057Y-63777019D01*
X95194619Y-89253219D02*
X95194619Y-88253219D01*
X95194619Y-88253219D02*
X95575571Y-88253219D01*
X95575571Y-88253219D02*
X95670809Y-88300838D01*
X95670809Y-88300838D02*
X95718428Y-88348457D01*
X95718428Y-88348457D02*
X95766047Y-88443695D01*
X95766047Y-88443695D02*
X95766047Y-88586552D01*
X95766047Y-88586552D02*
X95718428Y-88681790D01*
X95718428Y-88681790D02*
X95670809Y-88729409D01*
X95670809Y-88729409D02*
X95575571Y-88777028D01*
X95575571Y-88777028D02*
X95194619Y-88777028D01*
X96718428Y-89253219D02*
X96147000Y-89253219D01*
X96432714Y-89253219D02*
X96432714Y-88253219D01*
X96432714Y-88253219D02*
X96337476Y-88396076D01*
X96337476Y-88396076D02*
X96242238Y-88491314D01*
X96242238Y-88491314D02*
X96147000Y-88538933D01*
X97147000Y-89157980D02*
X97194619Y-89205600D01*
X97194619Y-89205600D02*
X97147000Y-89253219D01*
X97147000Y-89253219D02*
X97099381Y-89205600D01*
X97099381Y-89205600D02*
X97147000Y-89157980D01*
X97147000Y-89157980D02*
X97147000Y-89253219D01*
X97527952Y-88253219D02*
X98146999Y-88253219D01*
X98146999Y-88253219D02*
X97813666Y-88634171D01*
X97813666Y-88634171D02*
X97956523Y-88634171D01*
X97956523Y-88634171D02*
X98051761Y-88681790D01*
X98051761Y-88681790D02*
X98099380Y-88729409D01*
X98099380Y-88729409D02*
X98146999Y-88824647D01*
X98146999Y-88824647D02*
X98146999Y-89062742D01*
X98146999Y-89062742D02*
X98099380Y-89157980D01*
X98099380Y-89157980D02*
X98051761Y-89205600D01*
X98051761Y-89205600D02*
X97956523Y-89253219D01*
X97956523Y-89253219D02*
X97670809Y-89253219D01*
X97670809Y-89253219D02*
X97575571Y-89205600D01*
X97575571Y-89205600D02*
X97527952Y-89157980D01*
X100953219Y-106893904D02*
X100953219Y-106227238D01*
X100953219Y-106227238D02*
X101953219Y-106655809D01*
X101286552Y-105417714D02*
X101953219Y-105417714D01*
X100905600Y-105655809D02*
X101619885Y-105893904D01*
X101619885Y-105893904D02*
X101619885Y-105274857D01*
X101953219Y-104893904D02*
X100953219Y-104893904D01*
X101429409Y-104893904D02*
X101429409Y-104322476D01*
X101953219Y-104322476D02*
X100953219Y-104322476D01*
X101857980Y-103274857D02*
X101905600Y-103322476D01*
X101905600Y-103322476D02*
X101953219Y-103465333D01*
X101953219Y-103465333D02*
X101953219Y-103560571D01*
X101953219Y-103560571D02*
X101905600Y-103703428D01*
X101905600Y-103703428D02*
X101810361Y-103798666D01*
X101810361Y-103798666D02*
X101715123Y-103846285D01*
X101715123Y-103846285D02*
X101524647Y-103893904D01*
X101524647Y-103893904D02*
X101381790Y-103893904D01*
X101381790Y-103893904D02*
X101191314Y-103846285D01*
X101191314Y-103846285D02*
X101096076Y-103798666D01*
X101096076Y-103798666D02*
X101000838Y-103703428D01*
X101000838Y-103703428D02*
X100953219Y-103560571D01*
X100953219Y-103560571D02*
X100953219Y-103465333D01*
X100953219Y-103465333D02*
X101000838Y-103322476D01*
X101000838Y-103322476D02*
X101048457Y-103274857D01*
X100953219Y-102941523D02*
X100953219Y-102322476D01*
X100953219Y-102322476D02*
X101334171Y-102655809D01*
X101334171Y-102655809D02*
X101334171Y-102512952D01*
X101334171Y-102512952D02*
X101381790Y-102417714D01*
X101381790Y-102417714D02*
X101429409Y-102370095D01*
X101429409Y-102370095D02*
X101524647Y-102322476D01*
X101524647Y-102322476D02*
X101762742Y-102322476D01*
X101762742Y-102322476D02*
X101857980Y-102370095D01*
X101857980Y-102370095D02*
X101905600Y-102417714D01*
X101905600Y-102417714D02*
X101953219Y-102512952D01*
X101953219Y-102512952D02*
X101953219Y-102798666D01*
X101953219Y-102798666D02*
X101905600Y-102893904D01*
X101905600Y-102893904D02*
X101857980Y-102941523D01*
X100953219Y-101989142D02*
X100953219Y-101322476D01*
X100953219Y-101322476D02*
X101953219Y-101751047D01*
X101286552Y-100512952D02*
X101953219Y-100512952D01*
X100905600Y-100751047D02*
X101619885Y-100989142D01*
X101619885Y-100989142D02*
X101619885Y-100370095D01*
X95049180Y-118827610D02*
X96049180Y-118827610D01*
X96049180Y-119208562D02*
X96049180Y-119875228D01*
X96049180Y-119875228D02*
X95049180Y-119446657D01*
X95143819Y-96466819D02*
X95143819Y-95466819D01*
X95143819Y-95466819D02*
X95524771Y-95466819D01*
X95524771Y-95466819D02*
X95620009Y-95514438D01*
X95620009Y-95514438D02*
X95667628Y-95562057D01*
X95667628Y-95562057D02*
X95715247Y-95657295D01*
X95715247Y-95657295D02*
X95715247Y-95800152D01*
X95715247Y-95800152D02*
X95667628Y-95895390D01*
X95667628Y-95895390D02*
X95620009Y-95943009D01*
X95620009Y-95943009D02*
X95524771Y-95990628D01*
X95524771Y-95990628D02*
X95143819Y-95990628D01*
X96667628Y-96466819D02*
X96096200Y-96466819D01*
X96381914Y-96466819D02*
X96381914Y-95466819D01*
X96381914Y-95466819D02*
X96286676Y-95609676D01*
X96286676Y-95609676D02*
X96191438Y-95704914D01*
X96191438Y-95704914D02*
X96096200Y-95752533D01*
X97096200Y-96371580D02*
X97143819Y-96419200D01*
X97143819Y-96419200D02*
X97096200Y-96466819D01*
X97096200Y-96466819D02*
X97048581Y-96419200D01*
X97048581Y-96419200D02*
X97096200Y-96371580D01*
X97096200Y-96371580D02*
X97096200Y-96466819D01*
X97762866Y-95466819D02*
X97858104Y-95466819D01*
X97858104Y-95466819D02*
X97953342Y-95514438D01*
X97953342Y-95514438D02*
X98000961Y-95562057D01*
X98000961Y-95562057D02*
X98048580Y-95657295D01*
X98048580Y-95657295D02*
X98096199Y-95847771D01*
X98096199Y-95847771D02*
X98096199Y-96085866D01*
X98096199Y-96085866D02*
X98048580Y-96276342D01*
X98048580Y-96276342D02*
X98000961Y-96371580D01*
X98000961Y-96371580D02*
X97953342Y-96419200D01*
X97953342Y-96419200D02*
X97858104Y-96466819D01*
X97858104Y-96466819D02*
X97762866Y-96466819D01*
X97762866Y-96466819D02*
X97667628Y-96419200D01*
X97667628Y-96419200D02*
X97620009Y-96371580D01*
X97620009Y-96371580D02*
X97572390Y-96276342D01*
X97572390Y-96276342D02*
X97524771Y-96085866D01*
X97524771Y-96085866D02*
X97524771Y-95847771D01*
X97524771Y-95847771D02*
X97572390Y-95657295D01*
X97572390Y-95657295D02*
X97620009Y-95562057D01*
X97620009Y-95562057D02*
X97667628Y-95514438D01*
X97667628Y-95514438D02*
X97762866Y-95466819D01*
X95169219Y-84097019D02*
X95169219Y-83097019D01*
X95169219Y-83097019D02*
X95550171Y-83097019D01*
X95550171Y-83097019D02*
X95645409Y-83144638D01*
X95645409Y-83144638D02*
X95693028Y-83192257D01*
X95693028Y-83192257D02*
X95740647Y-83287495D01*
X95740647Y-83287495D02*
X95740647Y-83430352D01*
X95740647Y-83430352D02*
X95693028Y-83525590D01*
X95693028Y-83525590D02*
X95645409Y-83573209D01*
X95645409Y-83573209D02*
X95550171Y-83620828D01*
X95550171Y-83620828D02*
X95169219Y-83620828D01*
X96693028Y-84097019D02*
X96121600Y-84097019D01*
X96407314Y-84097019D02*
X96407314Y-83097019D01*
X96407314Y-83097019D02*
X96312076Y-83239876D01*
X96312076Y-83239876D02*
X96216838Y-83335114D01*
X96216838Y-83335114D02*
X96121600Y-83382733D01*
X97121600Y-84001780D02*
X97169219Y-84049400D01*
X97169219Y-84049400D02*
X97121600Y-84097019D01*
X97121600Y-84097019D02*
X97073981Y-84049400D01*
X97073981Y-84049400D02*
X97121600Y-84001780D01*
X97121600Y-84001780D02*
X97121600Y-84097019D01*
X98073980Y-83097019D02*
X97597790Y-83097019D01*
X97597790Y-83097019D02*
X97550171Y-83573209D01*
X97550171Y-83573209D02*
X97597790Y-83525590D01*
X97597790Y-83525590D02*
X97693028Y-83477971D01*
X97693028Y-83477971D02*
X97931123Y-83477971D01*
X97931123Y-83477971D02*
X98026361Y-83525590D01*
X98026361Y-83525590D02*
X98073980Y-83573209D01*
X98073980Y-83573209D02*
X98121599Y-83668447D01*
X98121599Y-83668447D02*
X98121599Y-83906542D01*
X98121599Y-83906542D02*
X98073980Y-84001780D01*
X98073980Y-84001780D02*
X98026361Y-84049400D01*
X98026361Y-84049400D02*
X97931123Y-84097019D01*
X97931123Y-84097019D02*
X97693028Y-84097019D01*
X97693028Y-84097019D02*
X97597790Y-84049400D01*
X97597790Y-84049400D02*
X97550171Y-84001780D01*
X96023780Y-108445371D02*
X96023780Y-108635847D01*
X96023780Y-108635847D02*
X95976161Y-108731085D01*
X95976161Y-108731085D02*
X95880923Y-108826323D01*
X95880923Y-108826323D02*
X95690447Y-108873942D01*
X95690447Y-108873942D02*
X95357114Y-108873942D01*
X95357114Y-108873942D02*
X95166638Y-108826323D01*
X95166638Y-108826323D02*
X95071400Y-108731085D01*
X95071400Y-108731085D02*
X95023780Y-108635847D01*
X95023780Y-108635847D02*
X95023780Y-108445371D01*
X95023780Y-108445371D02*
X95071400Y-108350133D01*
X95071400Y-108350133D02*
X95166638Y-108254895D01*
X95166638Y-108254895D02*
X95357114Y-108207276D01*
X95357114Y-108207276D02*
X95690447Y-108207276D01*
X95690447Y-108207276D02*
X95880923Y-108254895D01*
X95880923Y-108254895D02*
X95976161Y-108350133D01*
X95976161Y-108350133D02*
X96023780Y-108445371D01*
X96023780Y-109207276D02*
X96023780Y-109826323D01*
X96023780Y-109826323D02*
X95642828Y-109492990D01*
X95642828Y-109492990D02*
X95642828Y-109635847D01*
X95642828Y-109635847D02*
X95595209Y-109731085D01*
X95595209Y-109731085D02*
X95547590Y-109778704D01*
X95547590Y-109778704D02*
X95452352Y-109826323D01*
X95452352Y-109826323D02*
X95214257Y-109826323D01*
X95214257Y-109826323D02*
X95119019Y-109778704D01*
X95119019Y-109778704D02*
X95071400Y-109731085D01*
X95071400Y-109731085D02*
X95023780Y-109635847D01*
X95023780Y-109635847D02*
X95023780Y-109350133D01*
X95023780Y-109350133D02*
X95071400Y-109254895D01*
X95071400Y-109254895D02*
X95119019Y-109207276D01*
X95099980Y-133991410D02*
X96099980Y-133991410D01*
X95099980Y-134991409D02*
X95099980Y-134419981D01*
X95099980Y-134705695D02*
X96099980Y-134705695D01*
X96099980Y-134705695D02*
X95957123Y-134610457D01*
X95957123Y-134610457D02*
X95861885Y-134515219D01*
X95861885Y-134515219D02*
X95814266Y-134419981D01*
X95049180Y-123806010D02*
X96049180Y-123806010D01*
X96049180Y-124758390D02*
X96049180Y-124282200D01*
X96049180Y-124282200D02*
X95572990Y-124234581D01*
X95572990Y-124234581D02*
X95620609Y-124282200D01*
X95620609Y-124282200D02*
X95668228Y-124377438D01*
X95668228Y-124377438D02*
X95668228Y-124615533D01*
X95668228Y-124615533D02*
X95620609Y-124710771D01*
X95620609Y-124710771D02*
X95572990Y-124758390D01*
X95572990Y-124758390D02*
X95477752Y-124806009D01*
X95477752Y-124806009D02*
X95239657Y-124806009D01*
X95239657Y-124806009D02*
X95144419Y-124758390D01*
X95144419Y-124758390D02*
X95096800Y-124710771D01*
X95096800Y-124710771D02*
X95049180Y-124615533D01*
X95049180Y-124615533D02*
X95049180Y-124377438D01*
X95049180Y-124377438D02*
X95096800Y-124282200D01*
X95096800Y-124282200D02*
X95144419Y-124234581D01*
X101893019Y-133309904D02*
X101893019Y-132643238D01*
X101893019Y-132643238D02*
X102893019Y-133071809D01*
X102226352Y-131833714D02*
X102893019Y-131833714D01*
X101845400Y-132071809D02*
X102559685Y-132309904D01*
X102559685Y-132309904D02*
X102559685Y-131690857D01*
X102893019Y-131309904D02*
X101893019Y-131309904D01*
X102369209Y-131309904D02*
X102369209Y-130738476D01*
X102893019Y-130738476D02*
X101893019Y-130738476D01*
X102797780Y-129690857D02*
X102845400Y-129738476D01*
X102845400Y-129738476D02*
X102893019Y-129881333D01*
X102893019Y-129881333D02*
X102893019Y-129976571D01*
X102893019Y-129976571D02*
X102845400Y-130119428D01*
X102845400Y-130119428D02*
X102750161Y-130214666D01*
X102750161Y-130214666D02*
X102654923Y-130262285D01*
X102654923Y-130262285D02*
X102464447Y-130309904D01*
X102464447Y-130309904D02*
X102321590Y-130309904D01*
X102321590Y-130309904D02*
X102131114Y-130262285D01*
X102131114Y-130262285D02*
X102035876Y-130214666D01*
X102035876Y-130214666D02*
X101940638Y-130119428D01*
X101940638Y-130119428D02*
X101893019Y-129976571D01*
X101893019Y-129976571D02*
X101893019Y-129881333D01*
X101893019Y-129881333D02*
X101940638Y-129738476D01*
X101940638Y-129738476D02*
X101988257Y-129690857D01*
X101988257Y-129309904D02*
X101940638Y-129262285D01*
X101940638Y-129262285D02*
X101893019Y-129167047D01*
X101893019Y-129167047D02*
X101893019Y-128928952D01*
X101893019Y-128928952D02*
X101940638Y-128833714D01*
X101940638Y-128833714D02*
X101988257Y-128786095D01*
X101988257Y-128786095D02*
X102083495Y-128738476D01*
X102083495Y-128738476D02*
X102178733Y-128738476D01*
X102178733Y-128738476D02*
X102321590Y-128786095D01*
X102321590Y-128786095D02*
X102893019Y-129357523D01*
X102893019Y-129357523D02*
X102893019Y-128738476D01*
X102226352Y-127881333D02*
X102893019Y-127881333D01*
X101845400Y-128119428D02*
X102559685Y-128357523D01*
X102559685Y-128357523D02*
X102559685Y-127738476D01*
X102226352Y-126928952D02*
X102893019Y-126928952D01*
X101845400Y-127167047D02*
X102559685Y-127405142D01*
X102559685Y-127405142D02*
X102559685Y-126786095D01*
X95998380Y-103466971D02*
X95998380Y-103657447D01*
X95998380Y-103657447D02*
X95950761Y-103752685D01*
X95950761Y-103752685D02*
X95855523Y-103847923D01*
X95855523Y-103847923D02*
X95665047Y-103895542D01*
X95665047Y-103895542D02*
X95331714Y-103895542D01*
X95331714Y-103895542D02*
X95141238Y-103847923D01*
X95141238Y-103847923D02*
X95046000Y-103752685D01*
X95046000Y-103752685D02*
X94998380Y-103657447D01*
X94998380Y-103657447D02*
X94998380Y-103466971D01*
X94998380Y-103466971D02*
X95046000Y-103371733D01*
X95046000Y-103371733D02*
X95141238Y-103276495D01*
X95141238Y-103276495D02*
X95331714Y-103228876D01*
X95331714Y-103228876D02*
X95665047Y-103228876D01*
X95665047Y-103228876D02*
X95855523Y-103276495D01*
X95855523Y-103276495D02*
X95950761Y-103371733D01*
X95950761Y-103371733D02*
X95998380Y-103466971D01*
X95998380Y-104800304D02*
X95998380Y-104324114D01*
X95998380Y-104324114D02*
X95522190Y-104276495D01*
X95522190Y-104276495D02*
X95569809Y-104324114D01*
X95569809Y-104324114D02*
X95617428Y-104419352D01*
X95617428Y-104419352D02*
X95617428Y-104657447D01*
X95617428Y-104657447D02*
X95569809Y-104752685D01*
X95569809Y-104752685D02*
X95522190Y-104800304D01*
X95522190Y-104800304D02*
X95426952Y-104847923D01*
X95426952Y-104847923D02*
X95188857Y-104847923D01*
X95188857Y-104847923D02*
X95093619Y-104800304D01*
X95093619Y-104800304D02*
X95046000Y-104752685D01*
X95046000Y-104752685D02*
X94998380Y-104657447D01*
X94998380Y-104657447D02*
X94998380Y-104419352D01*
X94998380Y-104419352D02*
X95046000Y-104324114D01*
X95046000Y-104324114D02*
X95093619Y-104276495D01*
X99597380Y-78379676D02*
X99645000Y-78427295D01*
X99645000Y-78427295D02*
X99692619Y-78570152D01*
X99692619Y-78570152D02*
X99692619Y-78665390D01*
X99692619Y-78665390D02*
X99645000Y-78808247D01*
X99645000Y-78808247D02*
X99549761Y-78903485D01*
X99549761Y-78903485D02*
X99454523Y-78951104D01*
X99454523Y-78951104D02*
X99264047Y-78998723D01*
X99264047Y-78998723D02*
X99121190Y-78998723D01*
X99121190Y-78998723D02*
X98930714Y-78951104D01*
X98930714Y-78951104D02*
X98835476Y-78903485D01*
X98835476Y-78903485D02*
X98740238Y-78808247D01*
X98740238Y-78808247D02*
X98692619Y-78665390D01*
X98692619Y-78665390D02*
X98692619Y-78570152D01*
X98692619Y-78570152D02*
X98740238Y-78427295D01*
X98740238Y-78427295D02*
X98787857Y-78379676D01*
X95321619Y-86586219D02*
X95321619Y-85586219D01*
X95321619Y-85586219D02*
X95702571Y-85586219D01*
X95702571Y-85586219D02*
X95797809Y-85633838D01*
X95797809Y-85633838D02*
X95845428Y-85681457D01*
X95845428Y-85681457D02*
X95893047Y-85776695D01*
X95893047Y-85776695D02*
X95893047Y-85919552D01*
X95893047Y-85919552D02*
X95845428Y-86014790D01*
X95845428Y-86014790D02*
X95797809Y-86062409D01*
X95797809Y-86062409D02*
X95702571Y-86110028D01*
X95702571Y-86110028D02*
X95321619Y-86110028D01*
X96845428Y-86586219D02*
X96274000Y-86586219D01*
X96559714Y-86586219D02*
X96559714Y-85586219D01*
X96559714Y-85586219D02*
X96464476Y-85729076D01*
X96464476Y-85729076D02*
X96369238Y-85824314D01*
X96369238Y-85824314D02*
X96274000Y-85871933D01*
X97274000Y-86490980D02*
X97321619Y-86538600D01*
X97321619Y-86538600D02*
X97274000Y-86586219D01*
X97274000Y-86586219D02*
X97226381Y-86538600D01*
X97226381Y-86538600D02*
X97274000Y-86490980D01*
X97274000Y-86490980D02*
X97274000Y-86586219D01*
X98178761Y-85919552D02*
X98178761Y-86586219D01*
X97940666Y-85538600D02*
X97702571Y-86252885D01*
X97702571Y-86252885D02*
X98321618Y-86252885D01*
X96074580Y-100774571D02*
X96074580Y-100965047D01*
X96074580Y-100965047D02*
X96026961Y-101060285D01*
X96026961Y-101060285D02*
X95931723Y-101155523D01*
X95931723Y-101155523D02*
X95741247Y-101203142D01*
X95741247Y-101203142D02*
X95407914Y-101203142D01*
X95407914Y-101203142D02*
X95217438Y-101155523D01*
X95217438Y-101155523D02*
X95122200Y-101060285D01*
X95122200Y-101060285D02*
X95074580Y-100965047D01*
X95074580Y-100965047D02*
X95074580Y-100774571D01*
X95074580Y-100774571D02*
X95122200Y-100679333D01*
X95122200Y-100679333D02*
X95217438Y-100584095D01*
X95217438Y-100584095D02*
X95407914Y-100536476D01*
X95407914Y-100536476D02*
X95741247Y-100536476D01*
X95741247Y-100536476D02*
X95931723Y-100584095D01*
X95931723Y-100584095D02*
X96026961Y-100679333D01*
X96026961Y-100679333D02*
X96074580Y-100774571D01*
X96074580Y-102060285D02*
X96074580Y-101869809D01*
X96074580Y-101869809D02*
X96026961Y-101774571D01*
X96026961Y-101774571D02*
X95979342Y-101726952D01*
X95979342Y-101726952D02*
X95836485Y-101631714D01*
X95836485Y-101631714D02*
X95646009Y-101584095D01*
X95646009Y-101584095D02*
X95265057Y-101584095D01*
X95265057Y-101584095D02*
X95169819Y-101631714D01*
X95169819Y-101631714D02*
X95122200Y-101679333D01*
X95122200Y-101679333D02*
X95074580Y-101774571D01*
X95074580Y-101774571D02*
X95074580Y-101965047D01*
X95074580Y-101965047D02*
X95122200Y-102060285D01*
X95122200Y-102060285D02*
X95169819Y-102107904D01*
X95169819Y-102107904D02*
X95265057Y-102155523D01*
X95265057Y-102155523D02*
X95503152Y-102155523D01*
X95503152Y-102155523D02*
X95598390Y-102107904D01*
X95598390Y-102107904D02*
X95646009Y-102060285D01*
X95646009Y-102060285D02*
X95693628Y-101965047D01*
X95693628Y-101965047D02*
X95693628Y-101774571D01*
X95693628Y-101774571D02*
X95646009Y-101679333D01*
X95646009Y-101679333D02*
X95598390Y-101631714D01*
X95598390Y-101631714D02*
X95503152Y-101584095D01*
X95732695Y-75426219D02*
X96304123Y-75426219D01*
X96018409Y-76426219D02*
X96018409Y-75426219D01*
X97161266Y-76426219D02*
X96589838Y-76426219D01*
X96875552Y-76426219D02*
X96875552Y-75426219D01*
X96875552Y-75426219D02*
X96780314Y-75569076D01*
X96780314Y-75569076D02*
X96685076Y-75664314D01*
X96685076Y-75664314D02*
X96589838Y-75711933D01*
X95049180Y-128860610D02*
X96049180Y-128860610D01*
X96049180Y-129241562D02*
X96049180Y-129860609D01*
X96049180Y-129860609D02*
X95668228Y-129527276D01*
X95668228Y-129527276D02*
X95668228Y-129670133D01*
X95668228Y-129670133D02*
X95620609Y-129765371D01*
X95620609Y-129765371D02*
X95572990Y-129812990D01*
X95572990Y-129812990D02*
X95477752Y-129860609D01*
X95477752Y-129860609D02*
X95239657Y-129860609D01*
X95239657Y-129860609D02*
X95144419Y-129812990D01*
X95144419Y-129812990D02*
X95096800Y-129765371D01*
X95096800Y-129765371D02*
X95049180Y-129670133D01*
X95049180Y-129670133D02*
X95049180Y-129384419D01*
X95049180Y-129384419D02*
X95096800Y-129289181D01*
X95096800Y-129289181D02*
X95144419Y-129241562D01*
X95194619Y-91742419D02*
X95194619Y-90742419D01*
X95194619Y-90742419D02*
X95575571Y-90742419D01*
X95575571Y-90742419D02*
X95670809Y-90790038D01*
X95670809Y-90790038D02*
X95718428Y-90837657D01*
X95718428Y-90837657D02*
X95766047Y-90932895D01*
X95766047Y-90932895D02*
X95766047Y-91075752D01*
X95766047Y-91075752D02*
X95718428Y-91170990D01*
X95718428Y-91170990D02*
X95670809Y-91218609D01*
X95670809Y-91218609D02*
X95575571Y-91266228D01*
X95575571Y-91266228D02*
X95194619Y-91266228D01*
X96718428Y-91742419D02*
X96147000Y-91742419D01*
X96432714Y-91742419D02*
X96432714Y-90742419D01*
X96432714Y-90742419D02*
X96337476Y-90885276D01*
X96337476Y-90885276D02*
X96242238Y-90980514D01*
X96242238Y-90980514D02*
X96147000Y-91028133D01*
X97147000Y-91647180D02*
X97194619Y-91694800D01*
X97194619Y-91694800D02*
X97147000Y-91742419D01*
X97147000Y-91742419D02*
X97099381Y-91694800D01*
X97099381Y-91694800D02*
X97147000Y-91647180D01*
X97147000Y-91647180D02*
X97147000Y-91742419D01*
X97575571Y-90837657D02*
X97623190Y-90790038D01*
X97623190Y-90790038D02*
X97718428Y-90742419D01*
X97718428Y-90742419D02*
X97956523Y-90742419D01*
X97956523Y-90742419D02*
X98051761Y-90790038D01*
X98051761Y-90790038D02*
X98099380Y-90837657D01*
X98099380Y-90837657D02*
X98146999Y-90932895D01*
X98146999Y-90932895D02*
X98146999Y-91028133D01*
X98146999Y-91028133D02*
X98099380Y-91170990D01*
X98099380Y-91170990D02*
X97527952Y-91742419D01*
X97527952Y-91742419D02*
X98146999Y-91742419D01*
X95947580Y-105854571D02*
X95947580Y-106045047D01*
X95947580Y-106045047D02*
X95899961Y-106140285D01*
X95899961Y-106140285D02*
X95804723Y-106235523D01*
X95804723Y-106235523D02*
X95614247Y-106283142D01*
X95614247Y-106283142D02*
X95280914Y-106283142D01*
X95280914Y-106283142D02*
X95090438Y-106235523D01*
X95090438Y-106235523D02*
X94995200Y-106140285D01*
X94995200Y-106140285D02*
X94947580Y-106045047D01*
X94947580Y-106045047D02*
X94947580Y-105854571D01*
X94947580Y-105854571D02*
X94995200Y-105759333D01*
X94995200Y-105759333D02*
X95090438Y-105664095D01*
X95090438Y-105664095D02*
X95280914Y-105616476D01*
X95280914Y-105616476D02*
X95614247Y-105616476D01*
X95614247Y-105616476D02*
X95804723Y-105664095D01*
X95804723Y-105664095D02*
X95899961Y-105759333D01*
X95899961Y-105759333D02*
X95947580Y-105854571D01*
X95614247Y-107140285D02*
X94947580Y-107140285D01*
X95995200Y-106902190D02*
X95280914Y-106664095D01*
X95280914Y-106664095D02*
X95280914Y-107283142D01*
X95074580Y-136429810D02*
X96074580Y-136429810D01*
X96074580Y-137096476D02*
X96074580Y-137191714D01*
X96074580Y-137191714D02*
X96026961Y-137286952D01*
X96026961Y-137286952D02*
X95979342Y-137334571D01*
X95979342Y-137334571D02*
X95884104Y-137382190D01*
X95884104Y-137382190D02*
X95693628Y-137429809D01*
X95693628Y-137429809D02*
X95455533Y-137429809D01*
X95455533Y-137429809D02*
X95265057Y-137382190D01*
X95265057Y-137382190D02*
X95169819Y-137334571D01*
X95169819Y-137334571D02*
X95122200Y-137286952D01*
X95122200Y-137286952D02*
X95074580Y-137191714D01*
X95074580Y-137191714D02*
X95074580Y-137096476D01*
X95074580Y-137096476D02*
X95122200Y-137001238D01*
X95122200Y-137001238D02*
X95169819Y-136953619D01*
X95169819Y-136953619D02*
X95265057Y-136906000D01*
X95265057Y-136906000D02*
X95455533Y-136858381D01*
X95455533Y-136858381D02*
X95693628Y-136858381D01*
X95693628Y-136858381D02*
X95884104Y-136906000D01*
X95884104Y-136906000D02*
X95979342Y-136953619D01*
X95979342Y-136953619D02*
X96026961Y-137001238D01*
X96026961Y-137001238D02*
X96074580Y-137096476D01*
X98058696Y-121479552D02*
X97296791Y-121765266D01*
X97296791Y-121765266D02*
X98058696Y-122050980D01*
X98534886Y-121765266D02*
X99296791Y-121765266D01*
X100534886Y-122146219D02*
X100534886Y-121146219D01*
X101011076Y-122146219D02*
X101011076Y-121146219D01*
X101011076Y-121146219D02*
X101582504Y-122146219D01*
X101582504Y-122146219D02*
X101582504Y-121146219D01*
X102058695Y-122146219D02*
X102058695Y-121146219D01*
X102058695Y-121146219D02*
X102439647Y-121146219D01*
X102439647Y-121146219D02*
X102534885Y-121193838D01*
X102534885Y-121193838D02*
X102582504Y-121241457D01*
X102582504Y-121241457D02*
X102630123Y-121336695D01*
X102630123Y-121336695D02*
X102630123Y-121479552D01*
X102630123Y-121479552D02*
X102582504Y-121574790D01*
X102582504Y-121574790D02*
X102534885Y-121622409D01*
X102534885Y-121622409D02*
X102439647Y-121670028D01*
X102439647Y-121670028D02*
X102058695Y-121670028D01*
X103058695Y-121146219D02*
X103058695Y-121955742D01*
X103058695Y-121955742D02*
X103106314Y-122050980D01*
X103106314Y-122050980D02*
X103153933Y-122098600D01*
X103153933Y-122098600D02*
X103249171Y-122146219D01*
X103249171Y-122146219D02*
X103439647Y-122146219D01*
X103439647Y-122146219D02*
X103534885Y-122098600D01*
X103534885Y-122098600D02*
X103582504Y-122050980D01*
X103582504Y-122050980D02*
X103630123Y-121955742D01*
X103630123Y-121955742D02*
X103630123Y-121146219D01*
X103963457Y-121146219D02*
X104534885Y-121146219D01*
X104249171Y-122146219D02*
X104249171Y-121146219D01*
X104772981Y-121146219D02*
X105439647Y-121146219D01*
X105439647Y-121146219D02*
X104772981Y-122146219D01*
X104772981Y-122146219D02*
X105439647Y-122146219D01*
X103848898Y-71003900D02*
X103750570Y-70963040D01*
X103750570Y-70963040D02*
X103699746Y-70918859D01*
X103699746Y-70918859D02*
X103645599Y-70827175D01*
X103645599Y-70827175D02*
X103642277Y-70779671D01*
X103642277Y-70779671D02*
X103683137Y-70681344D01*
X103683137Y-70681344D02*
X103727318Y-70630519D01*
X103727318Y-70630519D02*
X103819003Y-70576372D01*
X103819003Y-70576372D02*
X104009015Y-70563085D01*
X104009015Y-70563085D02*
X104107343Y-70603945D01*
X104107343Y-70603945D02*
X104158167Y-70648126D01*
X104158167Y-70648126D02*
X104212314Y-70739811D01*
X104212314Y-70739811D02*
X104215636Y-70787314D01*
X104215636Y-70787314D02*
X104174776Y-70885642D01*
X104174776Y-70885642D02*
X104130595Y-70936466D01*
X104130595Y-70936466D02*
X104038910Y-70990613D01*
X104038910Y-70990613D02*
X103848898Y-71003900D01*
X103848898Y-71003900D02*
X103757214Y-71058046D01*
X103757214Y-71058046D02*
X103713033Y-71108871D01*
X103713033Y-71108871D02*
X103672173Y-71207199D01*
X103672173Y-71207199D02*
X103685460Y-71397211D01*
X103685460Y-71397211D02*
X103739606Y-71488896D01*
X103739606Y-71488896D02*
X103790431Y-71533077D01*
X103790431Y-71533077D02*
X103888759Y-71573936D01*
X103888759Y-71573936D02*
X104078771Y-71560649D01*
X104078771Y-71560649D02*
X104170456Y-71506503D01*
X104170456Y-71506503D02*
X104214637Y-71455678D01*
X104214637Y-71455678D02*
X104255497Y-71357350D01*
X104255497Y-71357350D02*
X104242210Y-71167338D01*
X104242210Y-71167338D02*
X104188063Y-71075654D01*
X104188063Y-71075654D02*
X104137238Y-71031472D01*
X104137238Y-71031472D02*
X104038910Y-70990613D01*
X104816567Y-70506616D02*
X104911573Y-70499972D01*
X104911573Y-70499972D02*
X105009901Y-70540832D01*
X105009901Y-70540832D02*
X105060725Y-70585013D01*
X105060725Y-70585013D02*
X105114872Y-70676698D01*
X105114872Y-70676698D02*
X105175662Y-70863388D01*
X105175662Y-70863388D02*
X105192271Y-71100903D01*
X105192271Y-71100903D02*
X105158055Y-71294237D01*
X105158055Y-71294237D02*
X105117195Y-71392565D01*
X105117195Y-71392565D02*
X105073014Y-71443390D01*
X105073014Y-71443390D02*
X104981329Y-71497536D01*
X104981329Y-71497536D02*
X104886323Y-71504180D01*
X104886323Y-71504180D02*
X104787995Y-71463320D01*
X104787995Y-71463320D02*
X104737171Y-71419139D01*
X104737171Y-71419139D02*
X104683024Y-71327455D01*
X104683024Y-71327455D02*
X104622234Y-71140764D01*
X104622234Y-71140764D02*
X104605625Y-70903249D01*
X104605625Y-70903249D02*
X104639841Y-70709915D01*
X104639841Y-70709915D02*
X104680701Y-70611587D01*
X104680701Y-70611587D02*
X104724882Y-70560762D01*
X104724882Y-70560762D02*
X104816567Y-70506616D01*
X106209765Y-71316165D02*
X106165584Y-71366990D01*
X106165584Y-71366990D02*
X106026396Y-71424458D01*
X106026396Y-71424458D02*
X105931390Y-71431102D01*
X105931390Y-71431102D02*
X105785559Y-71393564D01*
X105785559Y-71393564D02*
X105683910Y-71305201D01*
X105683910Y-71305201D02*
X105629763Y-71213517D01*
X105629763Y-71213517D02*
X105568973Y-71026826D01*
X105568973Y-71026826D02*
X105559008Y-70884317D01*
X105559008Y-70884317D02*
X105593224Y-70690983D01*
X105593224Y-70690983D02*
X105634084Y-70592655D01*
X105634084Y-70592655D02*
X105722446Y-70491006D01*
X105722446Y-70491006D02*
X105861634Y-70433538D01*
X105861634Y-70433538D02*
X105956640Y-70426894D01*
X105956640Y-70426894D02*
X106102471Y-70464432D01*
X106102471Y-70464432D02*
X106153296Y-70508613D01*
X107049210Y-70350494D02*
X106574180Y-70383712D01*
X106574180Y-70383712D02*
X106559894Y-70862064D01*
X106559894Y-70862064D02*
X106604075Y-70811239D01*
X106604075Y-70811239D02*
X106695760Y-70757093D01*
X106695760Y-70757093D02*
X106933275Y-70740484D01*
X106933275Y-70740484D02*
X107031603Y-70781343D01*
X107031603Y-70781343D02*
X107082427Y-70825525D01*
X107082427Y-70825525D02*
X107136574Y-70917209D01*
X107136574Y-70917209D02*
X107153183Y-71154724D01*
X107153183Y-71154724D02*
X107112323Y-71253052D01*
X107112323Y-71253052D02*
X107068142Y-71303877D01*
X107068142Y-71303877D02*
X106976457Y-71358023D01*
X106976457Y-71358023D02*
X106738942Y-71374632D01*
X106738942Y-71374632D02*
X106640614Y-71333773D01*
X106640614Y-71333773D02*
X106589790Y-71289591D01*
X108116531Y-71278302D02*
X107546494Y-71318163D01*
X107831512Y-71298232D02*
X107761756Y-70300668D01*
X107761756Y-70300668D02*
X107676715Y-70449821D01*
X107676715Y-70449821D02*
X107588352Y-70551470D01*
X107588352Y-70551470D02*
X107496668Y-70605617D01*
X109760206Y-70208658D02*
X109661878Y-70167799D01*
X109661878Y-70167799D02*
X109519369Y-70177764D01*
X109519369Y-70177764D02*
X109380182Y-70235232D01*
X109380182Y-70235232D02*
X109291819Y-70336882D01*
X109291819Y-70336882D02*
X109250959Y-70435210D01*
X109250959Y-70435210D02*
X109216743Y-70628543D01*
X109216743Y-70628543D02*
X109226709Y-70771053D01*
X109226709Y-70771053D02*
X109287499Y-70957743D01*
X109287499Y-70957743D02*
X109341645Y-71049427D01*
X109341645Y-71049427D02*
X109443295Y-71137790D01*
X109443295Y-71137790D02*
X109589126Y-71175328D01*
X109589126Y-71175328D02*
X109684132Y-71168684D01*
X109684132Y-71168684D02*
X109823319Y-71111216D01*
X109823319Y-71111216D02*
X109867500Y-71060391D01*
X109867500Y-71060391D02*
X109844248Y-70727870D01*
X109844248Y-70727870D02*
X109654236Y-70741157D01*
X110421927Y-70114651D02*
X110611939Y-70101364D01*
X110611939Y-70101364D02*
X110710267Y-70142224D01*
X110710267Y-70142224D02*
X110811917Y-70230586D01*
X110811917Y-70230586D02*
X110872707Y-70417277D01*
X110872707Y-70417277D02*
X110895959Y-70749798D01*
X110895959Y-70749798D02*
X110861743Y-70943132D01*
X110861743Y-70943132D02*
X110773380Y-71044781D01*
X110773380Y-71044781D02*
X110681696Y-71098928D01*
X110681696Y-71098928D02*
X110491683Y-71112215D01*
X110491683Y-71112215D02*
X110393356Y-71071355D01*
X110393356Y-71071355D02*
X110291706Y-70982993D01*
X110291706Y-70982993D02*
X110230916Y-70796302D01*
X110230916Y-70796302D02*
X110207664Y-70463781D01*
X110207664Y-70463781D02*
X110241880Y-70270447D01*
X110241880Y-70270447D02*
X110330243Y-70168797D01*
X110330243Y-70168797D02*
X110421927Y-70114651D01*
X111310199Y-70529890D02*
X111642721Y-70506638D01*
X111821769Y-71019206D02*
X111346738Y-71052424D01*
X111346738Y-71052424D02*
X111276982Y-70054860D01*
X111276982Y-70054860D02*
X111752012Y-70021642D01*
X112198472Y-70945129D02*
X112344302Y-70982667D01*
X112344302Y-70982667D02*
X112581818Y-70966059D01*
X112581818Y-70966059D02*
X112673502Y-70911912D01*
X112673502Y-70911912D02*
X112717683Y-70861087D01*
X112717683Y-70861087D02*
X112758543Y-70762759D01*
X112758543Y-70762759D02*
X112751899Y-70667753D01*
X112751899Y-70667753D02*
X112697753Y-70576069D01*
X112697753Y-70576069D02*
X112646928Y-70531888D01*
X112646928Y-70531888D02*
X112548600Y-70491028D01*
X112548600Y-70491028D02*
X112355266Y-70456812D01*
X112355266Y-70456812D02*
X112256939Y-70415952D01*
X112256939Y-70415952D02*
X112206114Y-70371771D01*
X112206114Y-70371771D02*
X112151967Y-70280087D01*
X112151967Y-70280087D02*
X112145324Y-70185081D01*
X112145324Y-70185081D02*
X112186183Y-70086753D01*
X112186183Y-70086753D02*
X112230365Y-70035928D01*
X112230365Y-70035928D02*
X112322049Y-69981781D01*
X112322049Y-69981781D02*
X112559564Y-69965173D01*
X112559564Y-69965173D02*
X112705395Y-70002711D01*
X113747141Y-69882129D02*
X114317177Y-69842268D01*
X114101916Y-70859763D02*
X114032159Y-69862199D01*
X114719455Y-70816580D02*
X114649699Y-69819016D01*
X114682916Y-70294047D02*
X115252953Y-70254186D01*
X115289492Y-70776719D02*
X115219736Y-69779155D01*
X115727983Y-70220969D02*
X116060505Y-70197716D01*
X116239553Y-70710285D02*
X115764523Y-70743502D01*
X115764523Y-70743502D02*
X115694766Y-69745938D01*
X115694766Y-69745938D02*
X116169797Y-69712721D01*
X117237117Y-70640528D02*
X116871378Y-70188750D01*
X116667081Y-70680389D02*
X116597324Y-69682825D01*
X116597324Y-69682825D02*
X116977349Y-69656251D01*
X116977349Y-69656251D02*
X117075676Y-69697111D01*
X117075676Y-69697111D02*
X117126501Y-69741292D01*
X117126501Y-69741292D02*
X117180648Y-69832976D01*
X117180648Y-69832976D02*
X117190613Y-69975486D01*
X117190613Y-69975486D02*
X117149753Y-70073813D01*
X117149753Y-70073813D02*
X117105572Y-70124638D01*
X117105572Y-70124638D02*
X117013888Y-70178785D01*
X117013888Y-70178785D02*
X116633863Y-70205359D01*
X117628106Y-70088099D02*
X117960627Y-70064847D01*
X118139675Y-70577415D02*
X117664645Y-70610633D01*
X117664645Y-70610633D02*
X117594888Y-69613069D01*
X117594888Y-69613069D02*
X118069919Y-69579851D01*
X118560559Y-70452514D02*
X118611384Y-70496695D01*
X118611384Y-70496695D02*
X118567203Y-70547520D01*
X118567203Y-70547520D02*
X118516378Y-70503338D01*
X118516378Y-70503338D02*
X118560559Y-70452514D01*
X118560559Y-70452514D02*
X118567203Y-70547520D01*
X111118659Y-71390196D02*
X111657407Y-71928944D01*
X111994125Y-72265661D02*
X112532873Y-72804409D01*
X112869590Y-73141127D02*
X113408338Y-73679875D01*
X113543025Y-74218623D02*
X114283803Y-74555340D01*
X114283803Y-74555340D02*
X113947086Y-73814561D01*
X95681895Y-72886219D02*
X96253323Y-72886219D01*
X95967609Y-73886219D02*
X95967609Y-72886219D01*
X96777133Y-72886219D02*
X96872371Y-72886219D01*
X96872371Y-72886219D02*
X96967609Y-72933838D01*
X96967609Y-72933838D02*
X97015228Y-72981457D01*
X97015228Y-72981457D02*
X97062847Y-73076695D01*
X97062847Y-73076695D02*
X97110466Y-73267171D01*
X97110466Y-73267171D02*
X97110466Y-73505266D01*
X97110466Y-73505266D02*
X97062847Y-73695742D01*
X97062847Y-73695742D02*
X97015228Y-73790980D01*
X97015228Y-73790980D02*
X96967609Y-73838600D01*
X96967609Y-73838600D02*
X96872371Y-73886219D01*
X96872371Y-73886219D02*
X96777133Y-73886219D01*
X96777133Y-73886219D02*
X96681895Y-73838600D01*
X96681895Y-73838600D02*
X96634276Y-73790980D01*
X96634276Y-73790980D02*
X96586657Y-73695742D01*
X96586657Y-73695742D02*
X96539038Y-73505266D01*
X96539038Y-73505266D02*
X96539038Y-73267171D01*
X96539038Y-73267171D02*
X96586657Y-73076695D01*
X96586657Y-73076695D02*
X96634276Y-72981457D01*
X96634276Y-72981457D02*
X96681895Y-72933838D01*
X96681895Y-72933838D02*
X96777133Y-72886219D01*
X99876780Y-92086038D02*
X99924400Y-92133657D01*
X99924400Y-92133657D02*
X99972019Y-92276514D01*
X99972019Y-92276514D02*
X99972019Y-92371752D01*
X99972019Y-92371752D02*
X99924400Y-92514609D01*
X99924400Y-92514609D02*
X99829161Y-92609847D01*
X99829161Y-92609847D02*
X99733923Y-92657466D01*
X99733923Y-92657466D02*
X99543447Y-92705085D01*
X99543447Y-92705085D02*
X99400590Y-92705085D01*
X99400590Y-92705085D02*
X99210114Y-92657466D01*
X99210114Y-92657466D02*
X99114876Y-92609847D01*
X99114876Y-92609847D02*
X99019638Y-92514609D01*
X99019638Y-92514609D02*
X98972019Y-92371752D01*
X98972019Y-92371752D02*
X98972019Y-92276514D01*
X98972019Y-92276514D02*
X99019638Y-92133657D01*
X99019638Y-92133657D02*
X99067257Y-92086038D01*
X99972019Y-91181276D02*
X99972019Y-91657466D01*
X99972019Y-91657466D02*
X98972019Y-91657466D01*
X99972019Y-90847942D02*
X98972019Y-90847942D01*
X99972019Y-90276514D02*
X99400590Y-90705085D01*
X98972019Y-90276514D02*
X99543447Y-90847942D01*
X99597380Y-82519876D02*
X99645000Y-82567495D01*
X99645000Y-82567495D02*
X99692619Y-82710352D01*
X99692619Y-82710352D02*
X99692619Y-82805590D01*
X99692619Y-82805590D02*
X99645000Y-82948447D01*
X99645000Y-82948447D02*
X99549761Y-83043685D01*
X99549761Y-83043685D02*
X99454523Y-83091304D01*
X99454523Y-83091304D02*
X99264047Y-83138923D01*
X99264047Y-83138923D02*
X99121190Y-83138923D01*
X99121190Y-83138923D02*
X98930714Y-83091304D01*
X98930714Y-83091304D02*
X98835476Y-83043685D01*
X98835476Y-83043685D02*
X98740238Y-82948447D01*
X98740238Y-82948447D02*
X98692619Y-82805590D01*
X98692619Y-82805590D02*
X98692619Y-82710352D01*
X98692619Y-82710352D02*
X98740238Y-82567495D01*
X98740238Y-82567495D02*
X98787857Y-82519876D01*
X119131447Y-130071095D02*
X119131447Y-130547285D01*
X119131447Y-130547285D02*
X118131447Y-130547285D01*
X118845732Y-129785380D02*
X118845732Y-129309190D01*
X119131447Y-129880618D02*
X118131447Y-129547285D01*
X118131447Y-129547285D02*
X119131447Y-129213952D01*
X119131447Y-128309190D02*
X118655256Y-128642523D01*
X119131447Y-128880618D02*
X118131447Y-128880618D01*
X118131447Y-128880618D02*
X118131447Y-128499666D01*
X118131447Y-128499666D02*
X118179066Y-128404428D01*
X118179066Y-128404428D02*
X118226685Y-128356809D01*
X118226685Y-128356809D02*
X118321923Y-128309190D01*
X118321923Y-128309190D02*
X118464780Y-128309190D01*
X118464780Y-128309190D02*
X118560018Y-128356809D01*
X118560018Y-128356809D02*
X118607637Y-128404428D01*
X118607637Y-128404428D02*
X118655256Y-128499666D01*
X118655256Y-128499666D02*
X118655256Y-128880618D01*
X118179066Y-127356809D02*
X118131447Y-127452047D01*
X118131447Y-127452047D02*
X118131447Y-127594904D01*
X118131447Y-127594904D02*
X118179066Y-127737761D01*
X118179066Y-127737761D02*
X118274304Y-127832999D01*
X118274304Y-127832999D02*
X118369542Y-127880618D01*
X118369542Y-127880618D02*
X118560018Y-127928237D01*
X118560018Y-127928237D02*
X118702875Y-127928237D01*
X118702875Y-127928237D02*
X118893351Y-127880618D01*
X118893351Y-127880618D02*
X118988589Y-127832999D01*
X118988589Y-127832999D02*
X119083828Y-127737761D01*
X119083828Y-127737761D02*
X119131447Y-127594904D01*
X119131447Y-127594904D02*
X119131447Y-127499666D01*
X119131447Y-127499666D02*
X119083828Y-127356809D01*
X119083828Y-127356809D02*
X119036208Y-127309190D01*
X119036208Y-127309190D02*
X118702875Y-127309190D01*
X118702875Y-127309190D02*
X118702875Y-127499666D01*
X118607637Y-126880618D02*
X118607637Y-126547285D01*
X119131447Y-126404428D02*
X119131447Y-126880618D01*
X119131447Y-126880618D02*
X118131447Y-126880618D01*
X118131447Y-126880618D02*
X118131447Y-126404428D01*
X119131447Y-125213951D02*
X118131447Y-125213951D01*
X118131447Y-125213951D02*
X118845732Y-124880618D01*
X118845732Y-124880618D02*
X118131447Y-124547285D01*
X118131447Y-124547285D02*
X119131447Y-124547285D01*
X118607637Y-124071094D02*
X118607637Y-123737761D01*
X119131447Y-123594904D02*
X119131447Y-124071094D01*
X119131447Y-124071094D02*
X118131447Y-124071094D01*
X118131447Y-124071094D02*
X118131447Y-123594904D01*
X119131447Y-123166332D02*
X118131447Y-123166332D01*
X118131447Y-123166332D02*
X118845732Y-122832999D01*
X118845732Y-122832999D02*
X118131447Y-122499666D01*
X118131447Y-122499666D02*
X119131447Y-122499666D01*
X118131447Y-121832999D02*
X118131447Y-121642523D01*
X118131447Y-121642523D02*
X118179066Y-121547285D01*
X118179066Y-121547285D02*
X118274304Y-121452047D01*
X118274304Y-121452047D02*
X118464780Y-121404428D01*
X118464780Y-121404428D02*
X118798113Y-121404428D01*
X118798113Y-121404428D02*
X118988589Y-121452047D01*
X118988589Y-121452047D02*
X119083828Y-121547285D01*
X119083828Y-121547285D02*
X119131447Y-121642523D01*
X119131447Y-121642523D02*
X119131447Y-121832999D01*
X119131447Y-121832999D02*
X119083828Y-121928237D01*
X119083828Y-121928237D02*
X118988589Y-122023475D01*
X118988589Y-122023475D02*
X118798113Y-122071094D01*
X118798113Y-122071094D02*
X118464780Y-122071094D01*
X118464780Y-122071094D02*
X118274304Y-122023475D01*
X118274304Y-122023475D02*
X118179066Y-121928237D01*
X118179066Y-121928237D02*
X118131447Y-121832999D01*
X119131447Y-120404428D02*
X118655256Y-120737761D01*
X119131447Y-120975856D02*
X118131447Y-120975856D01*
X118131447Y-120975856D02*
X118131447Y-120594904D01*
X118131447Y-120594904D02*
X118179066Y-120499666D01*
X118179066Y-120499666D02*
X118226685Y-120452047D01*
X118226685Y-120452047D02*
X118321923Y-120404428D01*
X118321923Y-120404428D02*
X118464780Y-120404428D01*
X118464780Y-120404428D02*
X118560018Y-120452047D01*
X118560018Y-120452047D02*
X118607637Y-120499666D01*
X118607637Y-120499666D02*
X118655256Y-120594904D01*
X118655256Y-120594904D02*
X118655256Y-120975856D01*
X119131447Y-119975856D02*
X118131447Y-119975856D01*
X118607637Y-119499666D02*
X118607637Y-119166333D01*
X119131447Y-119023476D02*
X119131447Y-119499666D01*
X119131447Y-119499666D02*
X118131447Y-119499666D01*
X118131447Y-119499666D02*
X118131447Y-119023476D01*
X119083828Y-118642523D02*
X119131447Y-118499666D01*
X119131447Y-118499666D02*
X119131447Y-118261571D01*
X119131447Y-118261571D02*
X119083828Y-118166333D01*
X119083828Y-118166333D02*
X119036208Y-118118714D01*
X119036208Y-118118714D02*
X118940970Y-118071095D01*
X118940970Y-118071095D02*
X118845732Y-118071095D01*
X118845732Y-118071095D02*
X118750494Y-118118714D01*
X118750494Y-118118714D02*
X118702875Y-118166333D01*
X118702875Y-118166333D02*
X118655256Y-118261571D01*
X118655256Y-118261571D02*
X118607637Y-118452047D01*
X118607637Y-118452047D02*
X118560018Y-118547285D01*
X118560018Y-118547285D02*
X118512399Y-118594904D01*
X118512399Y-118594904D02*
X118417161Y-118642523D01*
X118417161Y-118642523D02*
X118321923Y-118642523D01*
X118321923Y-118642523D02*
X118226685Y-118594904D01*
X118226685Y-118594904D02*
X118179066Y-118547285D01*
X118179066Y-118547285D02*
X118131447Y-118452047D01*
X118131447Y-118452047D02*
X118131447Y-118213952D01*
X118131447Y-118213952D02*
X118179066Y-118071095D01*
X119789010Y-126380618D02*
X119741391Y-126475856D01*
X119741391Y-126475856D02*
X119741391Y-126618713D01*
X119741391Y-126618713D02*
X119789010Y-126761570D01*
X119789010Y-126761570D02*
X119884248Y-126856808D01*
X119884248Y-126856808D02*
X119979486Y-126904427D01*
X119979486Y-126904427D02*
X120169962Y-126952046D01*
X120169962Y-126952046D02*
X120312819Y-126952046D01*
X120312819Y-126952046D02*
X120503295Y-126904427D01*
X120503295Y-126904427D02*
X120598533Y-126856808D01*
X120598533Y-126856808D02*
X120693772Y-126761570D01*
X120693772Y-126761570D02*
X120741391Y-126618713D01*
X120741391Y-126618713D02*
X120741391Y-126523475D01*
X120741391Y-126523475D02*
X120693772Y-126380618D01*
X120693772Y-126380618D02*
X120646152Y-126332999D01*
X120646152Y-126332999D02*
X120312819Y-126332999D01*
X120312819Y-126332999D02*
X120312819Y-126523475D01*
X119741391Y-125713951D02*
X119741391Y-125523475D01*
X119741391Y-125523475D02*
X119789010Y-125428237D01*
X119789010Y-125428237D02*
X119884248Y-125332999D01*
X119884248Y-125332999D02*
X120074724Y-125285380D01*
X120074724Y-125285380D02*
X120408057Y-125285380D01*
X120408057Y-125285380D02*
X120598533Y-125332999D01*
X120598533Y-125332999D02*
X120693772Y-125428237D01*
X120693772Y-125428237D02*
X120741391Y-125523475D01*
X120741391Y-125523475D02*
X120741391Y-125713951D01*
X120741391Y-125713951D02*
X120693772Y-125809189D01*
X120693772Y-125809189D02*
X120598533Y-125904427D01*
X120598533Y-125904427D02*
X120408057Y-125952046D01*
X120408057Y-125952046D02*
X120074724Y-125952046D01*
X120074724Y-125952046D02*
X119884248Y-125904427D01*
X119884248Y-125904427D02*
X119789010Y-125809189D01*
X119789010Y-125809189D02*
X119741391Y-125713951D01*
X120741391Y-124094903D02*
X119741391Y-124094903D01*
X120217581Y-124094903D02*
X120217581Y-123523475D01*
X120741391Y-123523475D02*
X119741391Y-123523475D01*
X120217581Y-123047284D02*
X120217581Y-122713951D01*
X120741391Y-122571094D02*
X120741391Y-123047284D01*
X120741391Y-123047284D02*
X119741391Y-123047284D01*
X119741391Y-123047284D02*
X119741391Y-122571094D01*
X120741391Y-121571094D02*
X120265200Y-121904427D01*
X120741391Y-122142522D02*
X119741391Y-122142522D01*
X119741391Y-122142522D02*
X119741391Y-121761570D01*
X119741391Y-121761570D02*
X119789010Y-121666332D01*
X119789010Y-121666332D02*
X119836629Y-121618713D01*
X119836629Y-121618713D02*
X119931867Y-121571094D01*
X119931867Y-121571094D02*
X120074724Y-121571094D01*
X120074724Y-121571094D02*
X120169962Y-121618713D01*
X120169962Y-121618713D02*
X120217581Y-121666332D01*
X120217581Y-121666332D02*
X120265200Y-121761570D01*
X120265200Y-121761570D02*
X120265200Y-122142522D01*
X120217581Y-121142522D02*
X120217581Y-120809189D01*
X120741391Y-120666332D02*
X120741391Y-121142522D01*
X120741391Y-121142522D02*
X119741391Y-121142522D01*
X119741391Y-121142522D02*
X119741391Y-120666332D01*
X120646152Y-120237760D02*
X120693772Y-120190141D01*
X120693772Y-120190141D02*
X120741391Y-120237760D01*
X120741391Y-120237760D02*
X120693772Y-120285379D01*
X120693772Y-120285379D02*
X120646152Y-120237760D01*
X120646152Y-120237760D02*
X120741391Y-120237760D01*
X98072771Y-70120800D02*
X97215629Y-71406514D01*
X99168010Y-71168419D02*
X99168010Y-70168419D01*
X99644200Y-71168419D02*
X99644200Y-70168419D01*
X99644200Y-70168419D02*
X100215628Y-71168419D01*
X100215628Y-71168419D02*
X100215628Y-70168419D01*
X100548962Y-70168419D02*
X101120390Y-70168419D01*
X100834676Y-71168419D02*
X100834676Y-70168419D01*
X101977533Y-71168419D02*
X101406105Y-71168419D01*
X101691819Y-71168419D02*
X101691819Y-70168419D01*
X101691819Y-70168419D02*
X101596581Y-70311276D01*
X101596581Y-70311276D02*
X101501343Y-70406514D01*
X101501343Y-70406514D02*
X101406105Y-70454133D01*
X95169219Y-78991619D02*
X95169219Y-77991619D01*
X95169219Y-77991619D02*
X95550171Y-77991619D01*
X95550171Y-77991619D02*
X95645409Y-78039238D01*
X95645409Y-78039238D02*
X95693028Y-78086857D01*
X95693028Y-78086857D02*
X95740647Y-78182095D01*
X95740647Y-78182095D02*
X95740647Y-78324952D01*
X95740647Y-78324952D02*
X95693028Y-78420190D01*
X95693028Y-78420190D02*
X95645409Y-78467809D01*
X95645409Y-78467809D02*
X95550171Y-78515428D01*
X95550171Y-78515428D02*
X95169219Y-78515428D01*
X96693028Y-78991619D02*
X96121600Y-78991619D01*
X96407314Y-78991619D02*
X96407314Y-77991619D01*
X96407314Y-77991619D02*
X96312076Y-78134476D01*
X96312076Y-78134476D02*
X96216838Y-78229714D01*
X96216838Y-78229714D02*
X96121600Y-78277333D01*
X97121600Y-78896380D02*
X97169219Y-78944000D01*
X97169219Y-78944000D02*
X97121600Y-78991619D01*
X97121600Y-78991619D02*
X97073981Y-78944000D01*
X97073981Y-78944000D02*
X97121600Y-78896380D01*
X97121600Y-78896380D02*
X97121600Y-78991619D01*
X97502552Y-77991619D02*
X98169218Y-77991619D01*
X98169218Y-77991619D02*
X97740647Y-78991619D01*
X101347828Y-80728409D02*
X101490685Y-80776028D01*
X101490685Y-80776028D02*
X101538304Y-80823647D01*
X101538304Y-80823647D02*
X101585923Y-80918885D01*
X101585923Y-80918885D02*
X101585923Y-81061742D01*
X101585923Y-81061742D02*
X101538304Y-81156980D01*
X101538304Y-81156980D02*
X101490685Y-81204600D01*
X101490685Y-81204600D02*
X101395447Y-81252219D01*
X101395447Y-81252219D02*
X101014495Y-81252219D01*
X101014495Y-81252219D02*
X101014495Y-80252219D01*
X101014495Y-80252219D02*
X101347828Y-80252219D01*
X101347828Y-80252219D02*
X101443066Y-80299838D01*
X101443066Y-80299838D02*
X101490685Y-80347457D01*
X101490685Y-80347457D02*
X101538304Y-80442695D01*
X101538304Y-80442695D02*
X101538304Y-80537933D01*
X101538304Y-80537933D02*
X101490685Y-80633171D01*
X101490685Y-80633171D02*
X101443066Y-80680790D01*
X101443066Y-80680790D02*
X101347828Y-80728409D01*
X101347828Y-80728409D02*
X101014495Y-80728409D01*
X102585923Y-81252219D02*
X102252590Y-80776028D01*
X102014495Y-81252219D02*
X102014495Y-80252219D01*
X102014495Y-80252219D02*
X102395447Y-80252219D01*
X102395447Y-80252219D02*
X102490685Y-80299838D01*
X102490685Y-80299838D02*
X102538304Y-80347457D01*
X102538304Y-80347457D02*
X102585923Y-80442695D01*
X102585923Y-80442695D02*
X102585923Y-80585552D01*
X102585923Y-80585552D02*
X102538304Y-80680790D01*
X102538304Y-80680790D02*
X102490685Y-80728409D01*
X102490685Y-80728409D02*
X102395447Y-80776028D01*
X102395447Y-80776028D02*
X102014495Y-80776028D01*
X103585923Y-81252219D02*
X103252590Y-80776028D01*
X103014495Y-81252219D02*
X103014495Y-80252219D01*
X103014495Y-80252219D02*
X103395447Y-80252219D01*
X103395447Y-80252219D02*
X103490685Y-80299838D01*
X103490685Y-80299838D02*
X103538304Y-80347457D01*
X103538304Y-80347457D02*
X103585923Y-80442695D01*
X103585923Y-80442695D02*
X103585923Y-80585552D01*
X103585923Y-80585552D02*
X103538304Y-80680790D01*
X103538304Y-80680790D02*
X103490685Y-80728409D01*
X103490685Y-80728409D02*
X103395447Y-80776028D01*
X103395447Y-80776028D02*
X103014495Y-80776028D01*
X104585923Y-81252219D02*
X104252590Y-80776028D01*
X104014495Y-81252219D02*
X104014495Y-80252219D01*
X104014495Y-80252219D02*
X104395447Y-80252219D01*
X104395447Y-80252219D02*
X104490685Y-80299838D01*
X104490685Y-80299838D02*
X104538304Y-80347457D01*
X104538304Y-80347457D02*
X104585923Y-80442695D01*
X104585923Y-80442695D02*
X104585923Y-80585552D01*
X104585923Y-80585552D02*
X104538304Y-80680790D01*
X104538304Y-80680790D02*
X104490685Y-80728409D01*
X104490685Y-80728409D02*
X104395447Y-80776028D01*
X104395447Y-80776028D02*
X104014495Y-80776028D01*
X105585923Y-81252219D02*
X105252590Y-80776028D01*
X105014495Y-81252219D02*
X105014495Y-80252219D01*
X105014495Y-80252219D02*
X105395447Y-80252219D01*
X105395447Y-80252219D02*
X105490685Y-80299838D01*
X105490685Y-80299838D02*
X105538304Y-80347457D01*
X105538304Y-80347457D02*
X105585923Y-80442695D01*
X105585923Y-80442695D02*
X105585923Y-80585552D01*
X105585923Y-80585552D02*
X105538304Y-80680790D01*
X105538304Y-80680790D02*
X105490685Y-80728409D01*
X105490685Y-80728409D02*
X105395447Y-80776028D01*
X105395447Y-80776028D02*
X105014495Y-80776028D01*
X101781124Y-65342419D02*
X102352552Y-65342419D01*
X102066838Y-66342419D02*
X102066838Y-65342419D01*
X102590648Y-66342419D02*
X103114457Y-65675752D01*
X102590648Y-65675752D02*
X103114457Y-66342419D01*
X103495410Y-66342419D02*
X103495410Y-65342419D01*
X103495410Y-65342419D02*
X103733505Y-65342419D01*
X103733505Y-65342419D02*
X103876362Y-65390038D01*
X103876362Y-65390038D02*
X103971600Y-65485276D01*
X103971600Y-65485276D02*
X104019219Y-65580514D01*
X104019219Y-65580514D02*
X104066838Y-65770990D01*
X104066838Y-65770990D02*
X104066838Y-65913847D01*
X104066838Y-65913847D02*
X104019219Y-66104323D01*
X104019219Y-66104323D02*
X103971600Y-66199561D01*
X103971600Y-66199561D02*
X103876362Y-66294800D01*
X103876362Y-66294800D02*
X103733505Y-66342419D01*
X103733505Y-66342419D02*
X103495410Y-66342419D01*
X96049180Y-98285371D02*
X96049180Y-98475847D01*
X96049180Y-98475847D02*
X96001561Y-98571085D01*
X96001561Y-98571085D02*
X95906323Y-98666323D01*
X95906323Y-98666323D02*
X95715847Y-98713942D01*
X95715847Y-98713942D02*
X95382514Y-98713942D01*
X95382514Y-98713942D02*
X95192038Y-98666323D01*
X95192038Y-98666323D02*
X95096800Y-98571085D01*
X95096800Y-98571085D02*
X95049180Y-98475847D01*
X95049180Y-98475847D02*
X95049180Y-98285371D01*
X95049180Y-98285371D02*
X95096800Y-98190133D01*
X95096800Y-98190133D02*
X95192038Y-98094895D01*
X95192038Y-98094895D02*
X95382514Y-98047276D01*
X95382514Y-98047276D02*
X95715847Y-98047276D01*
X95715847Y-98047276D02*
X95906323Y-98094895D01*
X95906323Y-98094895D02*
X96001561Y-98190133D01*
X96001561Y-98190133D02*
X96049180Y-98285371D01*
X96049180Y-99047276D02*
X96049180Y-99713942D01*
X96049180Y-99713942D02*
X95049180Y-99285371D01*
X98001629Y-111065552D02*
X97239724Y-111351266D01*
X97239724Y-111351266D02*
X98001629Y-111636980D01*
X98477819Y-111351266D02*
X99239724Y-111351266D01*
X100668295Y-110732219D02*
X100858771Y-110732219D01*
X100858771Y-110732219D02*
X100954009Y-110779838D01*
X100954009Y-110779838D02*
X101049247Y-110875076D01*
X101049247Y-110875076D02*
X101096866Y-111065552D01*
X101096866Y-111065552D02*
X101096866Y-111398885D01*
X101096866Y-111398885D02*
X101049247Y-111589361D01*
X101049247Y-111589361D02*
X100954009Y-111684600D01*
X100954009Y-111684600D02*
X100858771Y-111732219D01*
X100858771Y-111732219D02*
X100668295Y-111732219D01*
X100668295Y-111732219D02*
X100573057Y-111684600D01*
X100573057Y-111684600D02*
X100477819Y-111589361D01*
X100477819Y-111589361D02*
X100430200Y-111398885D01*
X100430200Y-111398885D02*
X100430200Y-111065552D01*
X100430200Y-111065552D02*
X100477819Y-110875076D01*
X100477819Y-110875076D02*
X100573057Y-110779838D01*
X100573057Y-110779838D02*
X100668295Y-110732219D01*
X101525438Y-110732219D02*
X101525438Y-111541742D01*
X101525438Y-111541742D02*
X101573057Y-111636980D01*
X101573057Y-111636980D02*
X101620676Y-111684600D01*
X101620676Y-111684600D02*
X101715914Y-111732219D01*
X101715914Y-111732219D02*
X101906390Y-111732219D01*
X101906390Y-111732219D02*
X102001628Y-111684600D01*
X102001628Y-111684600D02*
X102049247Y-111636980D01*
X102049247Y-111636980D02*
X102096866Y-111541742D01*
X102096866Y-111541742D02*
X102096866Y-110732219D01*
X102430200Y-110732219D02*
X103001628Y-110732219D01*
X102715914Y-111732219D02*
X102715914Y-110732219D01*
X103334962Y-111732219D02*
X103334962Y-110732219D01*
X103334962Y-110732219D02*
X103715914Y-110732219D01*
X103715914Y-110732219D02*
X103811152Y-110779838D01*
X103811152Y-110779838D02*
X103858771Y-110827457D01*
X103858771Y-110827457D02*
X103906390Y-110922695D01*
X103906390Y-110922695D02*
X103906390Y-111065552D01*
X103906390Y-111065552D02*
X103858771Y-111160790D01*
X103858771Y-111160790D02*
X103811152Y-111208409D01*
X103811152Y-111208409D02*
X103715914Y-111256028D01*
X103715914Y-111256028D02*
X103334962Y-111256028D01*
X104334962Y-110732219D02*
X104334962Y-111541742D01*
X104334962Y-111541742D02*
X104382581Y-111636980D01*
X104382581Y-111636980D02*
X104430200Y-111684600D01*
X104430200Y-111684600D02*
X104525438Y-111732219D01*
X104525438Y-111732219D02*
X104715914Y-111732219D01*
X104715914Y-111732219D02*
X104811152Y-111684600D01*
X104811152Y-111684600D02*
X104858771Y-111636980D01*
X104858771Y-111636980D02*
X104906390Y-111541742D01*
X104906390Y-111541742D02*
X104906390Y-110732219D01*
X105239724Y-110732219D02*
X105811152Y-110732219D01*
X105525438Y-111732219D02*
X105525438Y-110732219D01*
X106049248Y-110732219D02*
X106715914Y-110732219D01*
X106715914Y-110732219D02*
X106049248Y-111732219D01*
X106049248Y-111732219D02*
X106715914Y-111732219D01*
D14*
X99045571Y-98142609D02*
X98973000Y-98106324D01*
X98973000Y-98106324D02*
X98936714Y-98070038D01*
X98936714Y-98070038D02*
X98900428Y-97997466D01*
X98900428Y-97997466D02*
X98900428Y-97779752D01*
X98900428Y-97779752D02*
X98936714Y-97707181D01*
X98936714Y-97707181D02*
X98973000Y-97670895D01*
X98973000Y-97670895D02*
X99045571Y-97634609D01*
X99045571Y-97634609D02*
X99154428Y-97634609D01*
X99154428Y-97634609D02*
X99227000Y-97670895D01*
X99227000Y-97670895D02*
X99263286Y-97707181D01*
X99263286Y-97707181D02*
X99299571Y-97779752D01*
X99299571Y-97779752D02*
X99299571Y-97997466D01*
X99299571Y-97997466D02*
X99263286Y-98070038D01*
X99263286Y-98070038D02*
X99227000Y-98106324D01*
X99227000Y-98106324D02*
X99154428Y-98142609D01*
X99154428Y-98142609D02*
X99045571Y-98142609D01*
D13*
X96023780Y-113626971D02*
X96023780Y-113817447D01*
X96023780Y-113817447D02*
X95976161Y-113912685D01*
X95976161Y-113912685D02*
X95880923Y-114007923D01*
X95880923Y-114007923D02*
X95690447Y-114055542D01*
X95690447Y-114055542D02*
X95357114Y-114055542D01*
X95357114Y-114055542D02*
X95166638Y-114007923D01*
X95166638Y-114007923D02*
X95071400Y-113912685D01*
X95071400Y-113912685D02*
X95023780Y-113817447D01*
X95023780Y-113817447D02*
X95023780Y-113626971D01*
X95023780Y-113626971D02*
X95071400Y-113531733D01*
X95071400Y-113531733D02*
X95166638Y-113436495D01*
X95166638Y-113436495D02*
X95357114Y-113388876D01*
X95357114Y-113388876D02*
X95690447Y-113388876D01*
X95690447Y-113388876D02*
X95880923Y-113436495D01*
X95880923Y-113436495D02*
X95976161Y-113531733D01*
X95976161Y-113531733D02*
X96023780Y-113626971D01*
X95023780Y-115007923D02*
X95023780Y-114436495D01*
X95023780Y-114722209D02*
X96023780Y-114722209D01*
X96023780Y-114722209D02*
X95880923Y-114626971D01*
X95880923Y-114626971D02*
X95785685Y-114531733D01*
X95785685Y-114531733D02*
X95738066Y-114436495D01*
X126883438Y-88852095D02*
X126835819Y-88947333D01*
X126835819Y-88947333D02*
X126835819Y-89090190D01*
X126835819Y-89090190D02*
X126883438Y-89233047D01*
X126883438Y-89233047D02*
X126978676Y-89328285D01*
X126978676Y-89328285D02*
X127073914Y-89375904D01*
X127073914Y-89375904D02*
X127264390Y-89423523D01*
X127264390Y-89423523D02*
X127407247Y-89423523D01*
X127407247Y-89423523D02*
X127597723Y-89375904D01*
X127597723Y-89375904D02*
X127692961Y-89328285D01*
X127692961Y-89328285D02*
X127788200Y-89233047D01*
X127788200Y-89233047D02*
X127835819Y-89090190D01*
X127835819Y-89090190D02*
X127835819Y-88994952D01*
X127835819Y-88994952D02*
X127788200Y-88852095D01*
X127788200Y-88852095D02*
X127740580Y-88804476D01*
X127740580Y-88804476D02*
X127407247Y-88804476D01*
X127407247Y-88804476D02*
X127407247Y-88994952D01*
X126835819Y-87756856D02*
X126835819Y-87185428D01*
X127835819Y-87471142D02*
X126835819Y-87471142D01*
X127835819Y-85518761D02*
X127359628Y-85852094D01*
X127835819Y-86090189D02*
X126835819Y-86090189D01*
X126835819Y-86090189D02*
X126835819Y-85709237D01*
X126835819Y-85709237D02*
X126883438Y-85613999D01*
X126883438Y-85613999D02*
X126931057Y-85566380D01*
X126931057Y-85566380D02*
X127026295Y-85518761D01*
X127026295Y-85518761D02*
X127169152Y-85518761D01*
X127169152Y-85518761D02*
X127264390Y-85566380D01*
X127264390Y-85566380D02*
X127312009Y-85613999D01*
X127312009Y-85613999D02*
X127359628Y-85709237D01*
X127359628Y-85709237D02*
X127359628Y-86090189D01*
X126835819Y-83852094D02*
X126835819Y-84328284D01*
X126835819Y-84328284D02*
X127312009Y-84375903D01*
X127312009Y-84375903D02*
X127264390Y-84328284D01*
X127264390Y-84328284D02*
X127216771Y-84233046D01*
X127216771Y-84233046D02*
X127216771Y-83994951D01*
X127216771Y-83994951D02*
X127264390Y-83899713D01*
X127264390Y-83899713D02*
X127312009Y-83852094D01*
X127312009Y-83852094D02*
X127407247Y-83804475D01*
X127407247Y-83804475D02*
X127645342Y-83804475D01*
X127645342Y-83804475D02*
X127740580Y-83852094D01*
X127740580Y-83852094D02*
X127788200Y-83899713D01*
X127788200Y-83899713D02*
X127835819Y-83994951D01*
X127835819Y-83994951D02*
X127835819Y-84233046D01*
X127835819Y-84233046D02*
X127788200Y-84328284D01*
X127788200Y-84328284D02*
X127740580Y-84375903D01*
X98123571Y-67809400D02*
X97266429Y-69095114D01*
X99218810Y-68857019D02*
X99218810Y-67857019D01*
X99695000Y-68857019D02*
X99695000Y-67857019D01*
X99695000Y-67857019D02*
X100266428Y-68857019D01*
X100266428Y-68857019D02*
X100266428Y-67857019D01*
X100599762Y-67857019D02*
X101171190Y-67857019D01*
X100885476Y-68857019D02*
X100885476Y-67857019D01*
X101695000Y-67857019D02*
X101790238Y-67857019D01*
X101790238Y-67857019D02*
X101885476Y-67904638D01*
X101885476Y-67904638D02*
X101933095Y-67952257D01*
X101933095Y-67952257D02*
X101980714Y-68047495D01*
X101980714Y-68047495D02*
X102028333Y-68237971D01*
X102028333Y-68237971D02*
X102028333Y-68476066D01*
X102028333Y-68476066D02*
X101980714Y-68666542D01*
X101980714Y-68666542D02*
X101933095Y-68761780D01*
X101933095Y-68761780D02*
X101885476Y-68809400D01*
X101885476Y-68809400D02*
X101790238Y-68857019D01*
X101790238Y-68857019D02*
X101695000Y-68857019D01*
X101695000Y-68857019D02*
X101599762Y-68809400D01*
X101599762Y-68809400D02*
X101552143Y-68761780D01*
X101552143Y-68761780D02*
X101504524Y-68666542D01*
X101504524Y-68666542D02*
X101456905Y-68476066D01*
X101456905Y-68476066D02*
X101456905Y-68237971D01*
X101456905Y-68237971D02*
X101504524Y-68047495D01*
X101504524Y-68047495D02*
X101552143Y-67952257D01*
X101552143Y-67952257D02*
X101599762Y-67904638D01*
X101599762Y-67904638D02*
X101695000Y-67857019D01*
X95099980Y-121215210D02*
X96099980Y-121215210D01*
X96099980Y-122119971D02*
X96099980Y-121929495D01*
X96099980Y-121929495D02*
X96052361Y-121834257D01*
X96052361Y-121834257D02*
X96004742Y-121786638D01*
X96004742Y-121786638D02*
X95861885Y-121691400D01*
X95861885Y-121691400D02*
X95671409Y-121643781D01*
X95671409Y-121643781D02*
X95290457Y-121643781D01*
X95290457Y-121643781D02*
X95195219Y-121691400D01*
X95195219Y-121691400D02*
X95147600Y-121739019D01*
X95147600Y-121739019D02*
X95099980Y-121834257D01*
X95099980Y-121834257D02*
X95099980Y-122024733D01*
X95099980Y-122024733D02*
X95147600Y-122119971D01*
X95147600Y-122119971D02*
X95195219Y-122167590D01*
X95195219Y-122167590D02*
X95290457Y-122215209D01*
X95290457Y-122215209D02*
X95528552Y-122215209D01*
X95528552Y-122215209D02*
X95623790Y-122167590D01*
X95623790Y-122167590D02*
X95671409Y-122119971D01*
X95671409Y-122119971D02*
X95719028Y-122024733D01*
X95719028Y-122024733D02*
X95719028Y-121834257D01*
X95719028Y-121834257D02*
X95671409Y-121739019D01*
X95671409Y-121739019D02*
X95623790Y-121691400D01*
X95623790Y-121691400D02*
X95528552Y-121643781D01*
X121764609Y-70136609D02*
X121907466Y-70184228D01*
X121907466Y-70184228D02*
X121955085Y-70231847D01*
X121955085Y-70231847D02*
X122002704Y-70327085D01*
X122002704Y-70327085D02*
X122002704Y-70469942D01*
X122002704Y-70469942D02*
X121955085Y-70565180D01*
X121955085Y-70565180D02*
X121907466Y-70612800D01*
X121907466Y-70612800D02*
X121812228Y-70660419D01*
X121812228Y-70660419D02*
X121431276Y-70660419D01*
X121431276Y-70660419D02*
X121431276Y-69660419D01*
X121431276Y-69660419D02*
X121764609Y-69660419D01*
X121764609Y-69660419D02*
X121859847Y-69708038D01*
X121859847Y-69708038D02*
X121907466Y-69755657D01*
X121907466Y-69755657D02*
X121955085Y-69850895D01*
X121955085Y-69850895D02*
X121955085Y-69946133D01*
X121955085Y-69946133D02*
X121907466Y-70041371D01*
X121907466Y-70041371D02*
X121859847Y-70088990D01*
X121859847Y-70088990D02*
X121764609Y-70136609D01*
X121764609Y-70136609D02*
X121431276Y-70136609D01*
X122621752Y-69660419D02*
X122812228Y-69660419D01*
X122812228Y-69660419D02*
X122907466Y-69708038D01*
X122907466Y-69708038D02*
X123002704Y-69803276D01*
X123002704Y-69803276D02*
X123050323Y-69993752D01*
X123050323Y-69993752D02*
X123050323Y-70327085D01*
X123050323Y-70327085D02*
X123002704Y-70517561D01*
X123002704Y-70517561D02*
X122907466Y-70612800D01*
X122907466Y-70612800D02*
X122812228Y-70660419D01*
X122812228Y-70660419D02*
X122621752Y-70660419D01*
X122621752Y-70660419D02*
X122526514Y-70612800D01*
X122526514Y-70612800D02*
X122431276Y-70517561D01*
X122431276Y-70517561D02*
X122383657Y-70327085D01*
X122383657Y-70327085D02*
X122383657Y-69993752D01*
X122383657Y-69993752D02*
X122431276Y-69803276D01*
X122431276Y-69803276D02*
X122526514Y-69708038D01*
X122526514Y-69708038D02*
X122621752Y-69660419D01*
X123669371Y-69660419D02*
X123859847Y-69660419D01*
X123859847Y-69660419D02*
X123955085Y-69708038D01*
X123955085Y-69708038D02*
X124050323Y-69803276D01*
X124050323Y-69803276D02*
X124097942Y-69993752D01*
X124097942Y-69993752D02*
X124097942Y-70327085D01*
X124097942Y-70327085D02*
X124050323Y-70517561D01*
X124050323Y-70517561D02*
X123955085Y-70612800D01*
X123955085Y-70612800D02*
X123859847Y-70660419D01*
X123859847Y-70660419D02*
X123669371Y-70660419D01*
X123669371Y-70660419D02*
X123574133Y-70612800D01*
X123574133Y-70612800D02*
X123478895Y-70517561D01*
X123478895Y-70517561D02*
X123431276Y-70327085D01*
X123431276Y-70327085D02*
X123431276Y-69993752D01*
X123431276Y-69993752D02*
X123478895Y-69803276D01*
X123478895Y-69803276D02*
X123574133Y-69708038D01*
X123574133Y-69708038D02*
X123669371Y-69660419D01*
X124526514Y-70660419D02*
X124526514Y-69660419D01*
X124526514Y-69660419D02*
X124907466Y-69660419D01*
X124907466Y-69660419D02*
X125002704Y-69708038D01*
X125002704Y-69708038D02*
X125050323Y-69755657D01*
X125050323Y-69755657D02*
X125097942Y-69850895D01*
X125097942Y-69850895D02*
X125097942Y-69993752D01*
X125097942Y-69993752D02*
X125050323Y-70088990D01*
X125050323Y-70088990D02*
X125002704Y-70136609D01*
X125002704Y-70136609D02*
X124907466Y-70184228D01*
X124907466Y-70184228D02*
X124526514Y-70184228D01*
X105462533Y-112707057D02*
X105510152Y-112659438D01*
X105510152Y-112659438D02*
X105605390Y-112611819D01*
X105605390Y-112611819D02*
X105843485Y-112611819D01*
X105843485Y-112611819D02*
X105938723Y-112659438D01*
X105938723Y-112659438D02*
X105986342Y-112707057D01*
X105986342Y-112707057D02*
X106033961Y-112802295D01*
X106033961Y-112802295D02*
X106033961Y-112897533D01*
X106033961Y-112897533D02*
X105986342Y-113040390D01*
X105986342Y-113040390D02*
X105414914Y-113611819D01*
X105414914Y-113611819D02*
X106033961Y-113611819D01*
X106462533Y-113611819D02*
X106462533Y-112611819D01*
X106557771Y-113230866D02*
X106843485Y-113611819D01*
X106843485Y-112945152D02*
X106462533Y-113326104D01*
X107224438Y-112707057D02*
X107272057Y-112659438D01*
X107272057Y-112659438D02*
X107367295Y-112611819D01*
X107367295Y-112611819D02*
X107605390Y-112611819D01*
X107605390Y-112611819D02*
X107700628Y-112659438D01*
X107700628Y-112659438D02*
X107748247Y-112707057D01*
X107748247Y-112707057D02*
X107795866Y-112802295D01*
X107795866Y-112802295D02*
X107795866Y-112897533D01*
X107795866Y-112897533D02*
X107748247Y-113040390D01*
X107748247Y-113040390D02*
X107176819Y-113611819D01*
X107176819Y-113611819D02*
X107795866Y-113611819D01*
D14*
X104845571Y-136042609D02*
X104773000Y-136006324D01*
X104773000Y-136006324D02*
X104736714Y-135970038D01*
X104736714Y-135970038D02*
X104700428Y-135897466D01*
X104700428Y-135897466D02*
X104700428Y-135679752D01*
X104700428Y-135679752D02*
X104736714Y-135607181D01*
X104736714Y-135607181D02*
X104773000Y-135570895D01*
X104773000Y-135570895D02*
X104845571Y-135534609D01*
X104845571Y-135534609D02*
X104954428Y-135534609D01*
X104954428Y-135534609D02*
X105027000Y-135570895D01*
X105027000Y-135570895D02*
X105063286Y-135607181D01*
X105063286Y-135607181D02*
X105099571Y-135679752D01*
X105099571Y-135679752D02*
X105099571Y-135897466D01*
X105099571Y-135897466D02*
X105063286Y-135970038D01*
X105063286Y-135970038D02*
X105027000Y-136006324D01*
X105027000Y-136006324D02*
X104954428Y-136042609D01*
X104954428Y-136042609D02*
X104845571Y-136042609D01*
D13*
X106045095Y-95609819D02*
X106045095Y-96419342D01*
X106045095Y-96419342D02*
X106092714Y-96514580D01*
X106092714Y-96514580D02*
X106140333Y-96562200D01*
X106140333Y-96562200D02*
X106235571Y-96609819D01*
X106235571Y-96609819D02*
X106426047Y-96609819D01*
X106426047Y-96609819D02*
X106521285Y-96562200D01*
X106521285Y-96562200D02*
X106568904Y-96514580D01*
X106568904Y-96514580D02*
X106616523Y-96419342D01*
X106616523Y-96419342D02*
X106616523Y-95609819D01*
X107521285Y-95609819D02*
X107330809Y-95609819D01*
X107330809Y-95609819D02*
X107235571Y-95657438D01*
X107235571Y-95657438D02*
X107187952Y-95705057D01*
X107187952Y-95705057D02*
X107092714Y-95847914D01*
X107092714Y-95847914D02*
X107045095Y-96038390D01*
X107045095Y-96038390D02*
X107045095Y-96419342D01*
X107045095Y-96419342D02*
X107092714Y-96514580D01*
X107092714Y-96514580D02*
X107140333Y-96562200D01*
X107140333Y-96562200D02*
X107235571Y-96609819D01*
X107235571Y-96609819D02*
X107426047Y-96609819D01*
X107426047Y-96609819D02*
X107521285Y-96562200D01*
X107521285Y-96562200D02*
X107568904Y-96514580D01*
X107568904Y-96514580D02*
X107616523Y-96419342D01*
X107616523Y-96419342D02*
X107616523Y-96181247D01*
X107616523Y-96181247D02*
X107568904Y-96086009D01*
X107568904Y-96086009D02*
X107521285Y-96038390D01*
X107521285Y-96038390D02*
X107426047Y-95990771D01*
X107426047Y-95990771D02*
X107235571Y-95990771D01*
X107235571Y-95990771D02*
X107140333Y-96038390D01*
X107140333Y-96038390D02*
X107092714Y-96086009D01*
X107092714Y-96086009D02*
X107045095Y-96181247D01*
X106372819Y-115901694D02*
X105372819Y-115901694D01*
X105372819Y-115901694D02*
X105372819Y-115663599D01*
X105372819Y-115663599D02*
X105420438Y-115520742D01*
X105420438Y-115520742D02*
X105515676Y-115425504D01*
X105515676Y-115425504D02*
X105610914Y-115377885D01*
X105610914Y-115377885D02*
X105801390Y-115330266D01*
X105801390Y-115330266D02*
X105944247Y-115330266D01*
X105944247Y-115330266D02*
X106134723Y-115377885D01*
X106134723Y-115377885D02*
X106229961Y-115425504D01*
X106229961Y-115425504D02*
X106325200Y-115520742D01*
X106325200Y-115520742D02*
X106372819Y-115663599D01*
X106372819Y-115663599D02*
X106372819Y-115901694D01*
X105372819Y-114473123D02*
X105372819Y-114663599D01*
X105372819Y-114663599D02*
X105420438Y-114758837D01*
X105420438Y-114758837D02*
X105468057Y-114806456D01*
X105468057Y-114806456D02*
X105610914Y-114901694D01*
X105610914Y-114901694D02*
X105801390Y-114949313D01*
X105801390Y-114949313D02*
X106182342Y-114949313D01*
X106182342Y-114949313D02*
X106277580Y-114901694D01*
X106277580Y-114901694D02*
X106325200Y-114854075D01*
X106325200Y-114854075D02*
X106372819Y-114758837D01*
X106372819Y-114758837D02*
X106372819Y-114568361D01*
X106372819Y-114568361D02*
X106325200Y-114473123D01*
X106325200Y-114473123D02*
X106277580Y-114425504D01*
X106277580Y-114425504D02*
X106182342Y-114377885D01*
X106182342Y-114377885D02*
X105944247Y-114377885D01*
X105944247Y-114377885D02*
X105849009Y-114425504D01*
X105849009Y-114425504D02*
X105801390Y-114473123D01*
X105801390Y-114473123D02*
X105753771Y-114568361D01*
X105753771Y-114568361D02*
X105753771Y-114758837D01*
X105753771Y-114758837D02*
X105801390Y-114854075D01*
X105801390Y-114854075D02*
X105849009Y-114901694D01*
X105849009Y-114901694D02*
X105944247Y-114949313D01*
X101140419Y-115952494D02*
X100140419Y-115952494D01*
X100140419Y-115952494D02*
X100140419Y-115714399D01*
X100140419Y-115714399D02*
X100188038Y-115571542D01*
X100188038Y-115571542D02*
X100283276Y-115476304D01*
X100283276Y-115476304D02*
X100378514Y-115428685D01*
X100378514Y-115428685D02*
X100568990Y-115381066D01*
X100568990Y-115381066D02*
X100711847Y-115381066D01*
X100711847Y-115381066D02*
X100902323Y-115428685D01*
X100902323Y-115428685D02*
X100997561Y-115476304D01*
X100997561Y-115476304D02*
X101092800Y-115571542D01*
X101092800Y-115571542D02*
X101140419Y-115714399D01*
X101140419Y-115714399D02*
X101140419Y-115952494D01*
X100235657Y-115000113D02*
X100188038Y-114952494D01*
X100188038Y-114952494D02*
X100140419Y-114857256D01*
X100140419Y-114857256D02*
X100140419Y-114619161D01*
X100140419Y-114619161D02*
X100188038Y-114523923D01*
X100188038Y-114523923D02*
X100235657Y-114476304D01*
X100235657Y-114476304D02*
X100330895Y-114428685D01*
X100330895Y-114428685D02*
X100426133Y-114428685D01*
X100426133Y-114428685D02*
X100568990Y-114476304D01*
X100568990Y-114476304D02*
X101140419Y-115047732D01*
X101140419Y-115047732D02*
X101140419Y-114428685D01*
X104312819Y-88953533D02*
X105027104Y-88953533D01*
X105027104Y-88953533D02*
X105169961Y-89001152D01*
X105169961Y-89001152D02*
X105265200Y-89096390D01*
X105265200Y-89096390D02*
X105312819Y-89239247D01*
X105312819Y-89239247D02*
X105312819Y-89334485D01*
X104312819Y-88572580D02*
X104312819Y-87905914D01*
X104312819Y-87905914D02*
X105312819Y-88334485D01*
X131375666Y-71108819D02*
X131375666Y-71823104D01*
X131375666Y-71823104D02*
X131328047Y-71965961D01*
X131328047Y-71965961D02*
X131232809Y-72061200D01*
X131232809Y-72061200D02*
X131089952Y-72108819D01*
X131089952Y-72108819D02*
X130994714Y-72108819D01*
X132280428Y-71108819D02*
X132089952Y-71108819D01*
X132089952Y-71108819D02*
X131994714Y-71156438D01*
X131994714Y-71156438D02*
X131947095Y-71204057D01*
X131947095Y-71204057D02*
X131851857Y-71346914D01*
X131851857Y-71346914D02*
X131804238Y-71537390D01*
X131804238Y-71537390D02*
X131804238Y-71918342D01*
X131804238Y-71918342D02*
X131851857Y-72013580D01*
X131851857Y-72013580D02*
X131899476Y-72061200D01*
X131899476Y-72061200D02*
X131994714Y-72108819D01*
X131994714Y-72108819D02*
X132185190Y-72108819D01*
X132185190Y-72108819D02*
X132280428Y-72061200D01*
X132280428Y-72061200D02*
X132328047Y-72013580D01*
X132328047Y-72013580D02*
X132375666Y-71918342D01*
X132375666Y-71918342D02*
X132375666Y-71680247D01*
X132375666Y-71680247D02*
X132328047Y-71585009D01*
X132328047Y-71585009D02*
X132280428Y-71537390D01*
X132280428Y-71537390D02*
X132185190Y-71489771D01*
X132185190Y-71489771D02*
X131994714Y-71489771D01*
X131994714Y-71489771D02*
X131899476Y-71537390D01*
X131899476Y-71537390D02*
X131851857Y-71585009D01*
X131851857Y-71585009D02*
X131804238Y-71680247D01*
X103934419Y-115952494D02*
X102934419Y-115952494D01*
X102934419Y-115952494D02*
X102934419Y-115714399D01*
X102934419Y-115714399D02*
X102982038Y-115571542D01*
X102982038Y-115571542D02*
X103077276Y-115476304D01*
X103077276Y-115476304D02*
X103172514Y-115428685D01*
X103172514Y-115428685D02*
X103362990Y-115381066D01*
X103362990Y-115381066D02*
X103505847Y-115381066D01*
X103505847Y-115381066D02*
X103696323Y-115428685D01*
X103696323Y-115428685D02*
X103791561Y-115476304D01*
X103791561Y-115476304D02*
X103886800Y-115571542D01*
X103886800Y-115571542D02*
X103934419Y-115714399D01*
X103934419Y-115714399D02*
X103934419Y-115952494D01*
X102934419Y-114476304D02*
X102934419Y-114952494D01*
X102934419Y-114952494D02*
X103410609Y-115000113D01*
X103410609Y-115000113D02*
X103362990Y-114952494D01*
X103362990Y-114952494D02*
X103315371Y-114857256D01*
X103315371Y-114857256D02*
X103315371Y-114619161D01*
X103315371Y-114619161D02*
X103362990Y-114523923D01*
X103362990Y-114523923D02*
X103410609Y-114476304D01*
X103410609Y-114476304D02*
X103505847Y-114428685D01*
X103505847Y-114428685D02*
X103743942Y-114428685D01*
X103743942Y-114428685D02*
X103839180Y-114476304D01*
X103839180Y-114476304D02*
X103886800Y-114523923D01*
X103886800Y-114523923D02*
X103934419Y-114619161D01*
X103934419Y-114619161D02*
X103934419Y-114857256D01*
X103934419Y-114857256D02*
X103886800Y-114952494D01*
X103886800Y-114952494D02*
X103839180Y-115000113D01*
D10*
%TO.C,SW1*%
X119750000Y-65000000D02*
X119750000Y-66500000D01*
X121000000Y-69000000D02*
X125500000Y-69000000D01*
X125500000Y-62500000D02*
X121000000Y-62500000D01*
X126750000Y-66500000D02*
X126750000Y-65000000D01*
D15*
%TO.C,U1*%
X107025000Y-74965000D02*
X108675000Y-74965000D01*
X107025000Y-76615000D02*
X107025000Y-74965000D01*
X107025000Y-91265000D02*
X107025000Y-92915000D01*
X107025000Y-92915000D02*
X108675000Y-92915000D01*
X123825000Y-74965000D02*
X123325000Y-74965000D01*
X124975000Y-76115000D02*
X123825000Y-74965000D01*
X124975000Y-76615000D02*
X124975000Y-76115000D01*
X124975000Y-91265000D02*
X124975000Y-92915000D01*
X124975000Y-92915000D02*
X123325000Y-92915000D01*
D10*
%TO.C,J2*%
X89630000Y-62000000D02*
X90960000Y-62000000D01*
X89630000Y-63330000D02*
X89630000Y-62000000D01*
X89630000Y-64600000D02*
X89630000Y-138320000D01*
X89630000Y-64600000D02*
X92230000Y-64600000D01*
X89630000Y-138320000D02*
X94830000Y-138320000D01*
X92230000Y-62000000D02*
X94830000Y-62000000D01*
X92230000Y-64600000D02*
X92230000Y-62000000D01*
X94830000Y-62000000D02*
X94830000Y-138320000D01*
%TO.C,C4*%
X102724364Y-94670200D02*
X101520236Y-94670200D01*
X102724364Y-96490200D02*
X101520236Y-96490200D01*
%TO.C,D1*%
X114615000Y-62540000D02*
X114615000Y-64460000D01*
X114615000Y-64460000D02*
X117475000Y-64460000D01*
X117475000Y-62540000D02*
X114615000Y-62540000D01*
%TO.C,R5*%
X103604852Y-112548600D02*
X103082348Y-112548600D01*
X103604852Y-113968600D02*
X103082348Y-113968600D01*
%TO.C,D3*%
X97445000Y-62286000D02*
X97445000Y-64206000D01*
X97445000Y-64206000D02*
X100305000Y-64206000D01*
X100305000Y-62286000D02*
X97445000Y-62286000D01*
%TO.C,D4*%
X97463000Y-64953000D02*
X97463000Y-66873000D01*
X97463000Y-66873000D02*
X100323000Y-66873000D01*
X100323000Y-64953000D02*
X97463000Y-64953000D01*
%TO.C,J3*%
X111954000Y-101219000D02*
X111954000Y-98619000D01*
X111954000Y-103819000D02*
X111954000Y-102489000D01*
X113284000Y-103819000D02*
X111954000Y-103819000D01*
X114614000Y-98619000D02*
X111954000Y-98619000D01*
X114614000Y-101219000D02*
X111954000Y-101219000D01*
X114614000Y-101219000D02*
X114614000Y-98619000D01*
%TO.C,U5*%
X112410000Y-101170000D02*
X112410000Y-136850000D01*
X112410000Y-136850000D02*
X125330000Y-136850000D01*
X117870000Y-101170000D02*
X112410000Y-101170000D01*
X125330000Y-101170000D02*
X119870000Y-101170000D01*
X125330000Y-136850000D02*
X125330000Y-101170000D01*
X119870000Y-101170000D02*
G75*
G02*
X117870000Y-101170000I-1000000J0D01*
G01*
%TO.C,J4*%
X123003000Y-103886000D02*
X123003000Y-106486000D01*
X123003000Y-103886000D02*
X125663000Y-103886000D01*
X123003000Y-106486000D02*
X125663000Y-106486000D01*
X124333000Y-101286000D02*
X125663000Y-101286000D01*
X125663000Y-101286000D02*
X125663000Y-102616000D01*
X125663000Y-103886000D02*
X125663000Y-106486000D01*
%TO.C,C1*%
X98477000Y-78342748D02*
X98477000Y-78865252D01*
X99897000Y-78342748D02*
X99897000Y-78865252D01*
%TO.C,Y1*%
X100725000Y-77490000D02*
X100725000Y-83890000D01*
X105775000Y-77490000D02*
X105775000Y-83890000D01*
X100725000Y-77490000D02*
G75*
G02*
X105775000Y-77490000I2525000J0D01*
G01*
X105775000Y-83890000D02*
G75*
G02*
X100725000Y-83890000I-2525000J0D01*
G01*
%TO.C,C2*%
X98477000Y-83056252D02*
X98477000Y-82533748D01*
X99897000Y-83056252D02*
X99897000Y-82533748D01*
%TO.C,J1*%
X112970000Y-83252000D02*
X114300000Y-83252000D01*
X112970000Y-84582000D02*
X112970000Y-83252000D01*
X115570000Y-83252000D02*
X118170000Y-83252000D01*
X115570000Y-85912000D02*
X115570000Y-83252000D01*
X115570000Y-85912000D02*
X118170000Y-85912000D01*
X118170000Y-85912000D02*
X118170000Y-83252000D01*
D13*
%TO.C,U2*%
X98425000Y-123675000D02*
X98425000Y-124010000D01*
X98425000Y-136825000D02*
X98425000Y-136490000D01*
X106175000Y-123675000D02*
X98425000Y-123675000D01*
X106175000Y-123675000D02*
X106175000Y-124010000D01*
X106175000Y-136575000D02*
X107975000Y-136575000D01*
X106175000Y-136825000D02*
X98425000Y-136825000D01*
X106175000Y-136825000D02*
X106175000Y-136575000D01*
D10*
%TO.C,J5*%
X122670000Y-121510000D02*
X122670000Y-121630000D01*
X122670000Y-121630000D02*
X125330000Y-121630000D01*
X124000000Y-118970000D02*
X125330000Y-118970000D01*
X125330000Y-118970000D02*
X125330000Y-120300000D01*
X125330000Y-121510000D02*
X125330000Y-121630000D01*
%TO.C,U6*%
X98170000Y-96995000D02*
X98170000Y-97230000D01*
X98170000Y-110015000D02*
X98170000Y-109780000D01*
X102030000Y-96995000D02*
X98170000Y-96995000D01*
X102030000Y-96995000D02*
X105890000Y-96995000D01*
X102030000Y-110015000D02*
X98170000Y-110015000D01*
X102030000Y-110015000D02*
X105890000Y-110015000D01*
X105890000Y-96995000D02*
X105890000Y-97230000D01*
X105890000Y-110015000D02*
X105890000Y-109780000D01*
X97317500Y-97230000D02*
X96977500Y-96760000D01*
X97657500Y-96760000D01*
X97317500Y-97230000D01*
G36*
X97317500Y-97230000D02*
G01*
X96977500Y-96760000D01*
X97657500Y-96760000D01*
X97317500Y-97230000D01*
G37*
%TO.C,D6*%
X105593000Y-116974000D02*
X105593000Y-119834000D01*
X105593000Y-119834000D02*
X107513000Y-119834000D01*
X107513000Y-119834000D02*
X107513000Y-116974000D01*
%TO.C,D2*%
X99624000Y-116983000D02*
X99624000Y-119843000D01*
X99624000Y-119843000D02*
X101544000Y-119843000D01*
X101544000Y-119843000D02*
X101544000Y-116983000D01*
%TO.C,J7*%
X98218000Y-87290200D02*
X98218000Y-89950200D01*
X100818000Y-87290200D02*
X98218000Y-87290200D01*
X100818000Y-87290200D02*
X100818000Y-89950200D01*
X100818000Y-89950200D02*
X98218000Y-89950200D01*
X103418000Y-88620200D02*
X103418000Y-89950200D01*
X103418000Y-89950200D02*
X102088000Y-89950200D01*
%TO.C,J6*%
X126054000Y-72654000D02*
X127324000Y-72654000D01*
X126054000Y-73924000D02*
X126054000Y-72654000D01*
X128366929Y-76084000D02*
X128764000Y-76084000D01*
X128366929Y-76844000D02*
X128764000Y-76844000D01*
X128366929Y-78624000D02*
X128764000Y-78624000D01*
X128366929Y-79384000D02*
X128764000Y-79384000D01*
X128366929Y-81164000D02*
X128764000Y-81164000D01*
X128366929Y-81924000D02*
X128764000Y-81924000D01*
X128434000Y-73544000D02*
X128764000Y-73544000D01*
X128434000Y-74304000D02*
X128764000Y-74304000D01*
X128764000Y-72594000D02*
X128764000Y-82874000D01*
X128764000Y-75194000D02*
X131424000Y-75194000D01*
X128764000Y-77734000D02*
X131424000Y-77734000D01*
X128764000Y-80274000D02*
X131424000Y-80274000D01*
X128764000Y-82874000D02*
X131424000Y-82874000D01*
X131424000Y-72594000D02*
X128764000Y-72594000D01*
X131424000Y-73544000D02*
X137424000Y-73544000D01*
X131424000Y-73604000D02*
X137424000Y-73604000D01*
X131424000Y-73724000D02*
X137424000Y-73724000D01*
X131424000Y-73844000D02*
X137424000Y-73844000D01*
X131424000Y-73964000D02*
X137424000Y-73964000D01*
X131424000Y-74084000D02*
X137424000Y-74084000D01*
X131424000Y-74204000D02*
X137424000Y-74204000D01*
X131424000Y-76084000D02*
X137424000Y-76084000D01*
X131424000Y-78624000D02*
X137424000Y-78624000D01*
X131424000Y-81164000D02*
X137424000Y-81164000D01*
X131424000Y-82874000D02*
X131424000Y-72594000D01*
X137424000Y-73544000D02*
X137424000Y-74304000D01*
X137424000Y-74304000D02*
X131424000Y-74304000D01*
X137424000Y-76084000D02*
X137424000Y-76844000D01*
X137424000Y-76844000D02*
X131424000Y-76844000D01*
X137424000Y-78624000D02*
X137424000Y-79384000D01*
X137424000Y-79384000D02*
X131424000Y-79384000D01*
X137424000Y-81164000D02*
X137424000Y-81924000D01*
X137424000Y-81924000D02*
X131424000Y-81924000D01*
%TO.C,D5*%
X102545000Y-116992000D02*
X102545000Y-119852000D01*
X102545000Y-119852000D02*
X104465000Y-119852000D01*
X104465000Y-119852000D02*
X104465000Y-116992000D01*
%TD*%
M02*
