%TF.GenerationSoftware,KiCad,Pcbnew,8.0.6+1*%
%TF.CreationDate,2024-11-21T22:42:01+01:00*%
%TF.ProjectId,8051,38303531-2e6b-4696-9361-645f70636258,rev?*%
%TF.SameCoordinates,Original*%
%TF.FileFunction,Soldermask,Bot*%
%TF.FilePolarity,Negative*%
%FSLAX46Y46*%
G04 Gerber Fmt 4.6, Leading zero omitted, Abs format (unit mm)*
G04 Created by KiCad (PCBNEW 8.0.6+1) date 2024-11-21 22:42:01*
%MOMM*%
%LPD*%
G01*
G04 APERTURE LIST*
G04 Aperture macros list*
%AMRoundRect*
0 Rectangle with rounded corners*
0 $1 Rounding radius*
0 $2 $3 $4 $5 $6 $7 $8 $9 X,Y pos of 4 corners*
0 Add a 4 corners polygon primitive as box body*
4,1,4,$2,$3,$4,$5,$6,$7,$8,$9,$2,$3,0*
0 Add four circle primitives for the rounded corners*
1,1,$1+$1,$2,$3*
1,1,$1+$1,$4,$5*
1,1,$1+$1,$6,$7*
1,1,$1+$1,$8,$9*
0 Add four rect primitives between the rounded corners*
20,1,$1+$1,$2,$3,$4,$5,0*
20,1,$1+$1,$4,$5,$6,$7,0*
20,1,$1+$1,$6,$7,$8,$9,0*
20,1,$1+$1,$8,$9,$2,$3,0*%
G04 Aperture macros list end*
%ADD10C,0.100000*%
%ADD11C,2.000000*%
%ADD12R,1.700000X1.700000*%
%ADD13O,1.700000X1.700000*%
%ADD14R,1.600000X1.600000*%
%ADD15O,1.600000X1.600000*%
%ADD16C,1.500000*%
%ADD17C,3.200000*%
%ADD18RoundRect,0.250000X-0.625000X0.462500X-0.625000X-0.462500X0.625000X-0.462500X0.625000X0.462500X0*%
%ADD19R,1.950000X0.600000*%
%ADD20RoundRect,0.249999X0.325001X0.450001X-0.325001X0.450001X-0.325001X-0.450001X0.325001X-0.450001X0*%
%ADD21RoundRect,0.250000X0.462500X0.625000X-0.462500X0.625000X-0.462500X-0.625000X0.462500X-0.625000X0*%
G04 APERTURE END LIST*
D10*
X124850000Y-118600000D02*
X123250000Y-118600000D01*
X123250000Y-116950000D01*
X124850000Y-116950000D01*
X124850000Y-118600000D01*
G36*
X124850000Y-118600000D02*
G01*
X123250000Y-118600000D01*
X123250000Y-116950000D01*
X124850000Y-116950000D01*
X124850000Y-118600000D01*
G37*
X128500000Y-123600000D02*
X127550000Y-123600000D01*
X127550000Y-122050000D01*
X128500000Y-122050000D01*
X128500000Y-123600000D01*
G36*
X128500000Y-123600000D02*
G01*
X127550000Y-123600000D01*
X127550000Y-122050000D01*
X128500000Y-122050000D01*
X128500000Y-123600000D01*
G37*
D11*
%TO.C,SW1*%
X120000000Y-63500000D03*
X126500000Y-63500000D03*
X120000000Y-68000000D03*
X126500000Y-68000000D03*
%TD*%
D12*
%TO.C,J2*%
X90960000Y-63330000D03*
D13*
X93500000Y-63330000D03*
X90960000Y-65870000D03*
X93500000Y-65870000D03*
X90960000Y-68410000D03*
X93500000Y-68410000D03*
X90960000Y-70950000D03*
X93500000Y-70950000D03*
X90960000Y-73490000D03*
X93500000Y-73490000D03*
X90960000Y-76030000D03*
X93500000Y-76030000D03*
X90960000Y-78570000D03*
X93500000Y-78570000D03*
X90960000Y-81110000D03*
X93500000Y-81110000D03*
X90960000Y-83650000D03*
X93500000Y-83650000D03*
X90960000Y-86190000D03*
X93500000Y-86190000D03*
X90960000Y-88730000D03*
X93500000Y-88730000D03*
X90960000Y-91270000D03*
X93500000Y-91270000D03*
X90960000Y-93810000D03*
X93500000Y-93810000D03*
X90960000Y-96350000D03*
X93500000Y-96350000D03*
X90960000Y-98890000D03*
X93500000Y-98890000D03*
X90960000Y-101430000D03*
X93500000Y-101430000D03*
X90960000Y-103970000D03*
X93500000Y-103970000D03*
X90960000Y-106510000D03*
X93500000Y-106510000D03*
X90960000Y-109050000D03*
X93500000Y-109050000D03*
X90960000Y-111590000D03*
X93500000Y-111590000D03*
X90960000Y-114130000D03*
X93500000Y-114130000D03*
X90960000Y-116670000D03*
X93500000Y-116670000D03*
X90960000Y-119210000D03*
X93500000Y-119210000D03*
X90960000Y-121750000D03*
X93500000Y-121750000D03*
X90960000Y-124290000D03*
X93500000Y-124290000D03*
X90960000Y-126830000D03*
X93500000Y-126830000D03*
X90960000Y-129370000D03*
X93500000Y-129370000D03*
X90960000Y-131910000D03*
X93500000Y-131910000D03*
X90960000Y-134450000D03*
X93500000Y-134450000D03*
X90960000Y-136990000D03*
X93500000Y-136990000D03*
%TD*%
D12*
%TO.C,J3*%
X113284000Y-102489000D03*
D13*
X113284000Y-99949000D03*
%TD*%
D14*
%TO.C,U5*%
X111250000Y-102500000D03*
D15*
X111250000Y-105040000D03*
X111250000Y-107580000D03*
X111250000Y-110120000D03*
X111250000Y-112660000D03*
X111250000Y-115200000D03*
X111250000Y-117740000D03*
X111250000Y-120280000D03*
X111250000Y-122820000D03*
X111250000Y-125360000D03*
X111250000Y-127900000D03*
X111250000Y-130440000D03*
X111250000Y-132980000D03*
X111250000Y-135520000D03*
X126490000Y-135520000D03*
X126490000Y-132980000D03*
X126490000Y-130440000D03*
X126490000Y-127900000D03*
X126490000Y-125360000D03*
X126490000Y-122820000D03*
X126490000Y-120280000D03*
X126490000Y-117740000D03*
X126490000Y-115200000D03*
X126490000Y-112660000D03*
X126490000Y-110120000D03*
X126490000Y-107580000D03*
X126490000Y-105040000D03*
X126490000Y-102500000D03*
%TD*%
D12*
%TO.C,J4*%
X124333000Y-102616000D03*
D13*
X124333000Y-105156000D03*
%TD*%
D16*
%TO.C,Y1*%
X103250000Y-78250000D03*
X103250000Y-83130000D03*
%TD*%
D12*
%TO.C,J1*%
X114300000Y-84582000D03*
D13*
X116840000Y-84582000D03*
%TD*%
D17*
%TO.C,H1*%
X108700000Y-64400000D03*
%TD*%
D12*
%TO.C,J5*%
X124000000Y-120300000D03*
%TD*%
%TO.C,J7*%
X102088000Y-88620200D03*
D13*
X99548000Y-88620200D03*
%TD*%
D12*
%TO.C,J6*%
X127324000Y-73924000D03*
D13*
X127324000Y-76464000D03*
X127324000Y-79004000D03*
X127324000Y-81544000D03*
%TD*%
D18*
%TO.C,C3*%
X123250000Y-64275000D03*
X123250000Y-67250000D03*
%TD*%
D19*
%TO.C,U4*%
X114198400Y-134924800D03*
X114198400Y-133654800D03*
X114198400Y-132384800D03*
X114198400Y-131114800D03*
X114198400Y-129844800D03*
X114198400Y-128574800D03*
X114198400Y-127304800D03*
X114198400Y-126034800D03*
X114198400Y-124764800D03*
X114198400Y-123494800D03*
X123598400Y-123494800D03*
X123598400Y-124764800D03*
X123598400Y-126034800D03*
X123598400Y-127304800D03*
X123598400Y-128574800D03*
X123598400Y-129844800D03*
X123598400Y-131114800D03*
X123598400Y-132384800D03*
X123598400Y-133654800D03*
X123598400Y-134924800D03*
%TD*%
D18*
%TO.C,C6*%
X108966000Y-135201000D03*
X108966000Y-138176000D03*
%TD*%
%TO.C,C7*%
X99618800Y-135607400D03*
X99618800Y-138582400D03*
%TD*%
D20*
%TO.C,R2*%
X115461000Y-63500000D03*
X113411000Y-63500000D03*
%TD*%
%TO.C,R3*%
X115443000Y-67945000D03*
X113393000Y-67945000D03*
%TD*%
%TO.C,R4*%
X100965000Y-114858800D03*
X98915000Y-114858800D03*
%TD*%
%TO.C,R6*%
X105410000Y-114858800D03*
X103360000Y-114858800D03*
%TD*%
%TO.C,R1*%
X98250000Y-63250000D03*
X96200000Y-63250000D03*
%TD*%
%TO.C,R7*%
X98298000Y-65913000D03*
X96248000Y-65913000D03*
%TD*%
%TO.C,R8*%
X98443000Y-68326000D03*
X96393000Y-68326000D03*
%TD*%
%TO.C,R9*%
X98434000Y-70866000D03*
X96384000Y-70866000D03*
%TD*%
D21*
%TO.C,C5*%
X122021600Y-84607400D03*
X119046600Y-84607400D03*
%TD*%
D18*
%TO.C,C8*%
X103500000Y-66512500D03*
X103500000Y-69487500D03*
%TD*%
M02*
