M48
; DRILL file {KiCad 8.0.6+1} date 2024-11-21T22:42:03+0100
; FORMAT={-:-/ absolute / inch / decimal}
; #@! TF.CreationDate,2024-11-21T22:42:03+01:00
; #@! TF.GenerationSoftware,Kicad,Pcbnew,8.0.6+1
; #@! TF.FileFunction,Plated,1,2,PTH
FMAT,2
INCH
; #@! TA.AperFunction,Plated,PTH,ViaDrill
T1C0.0157
; #@! TA.AperFunction,Plated,PTH,ComponentDrill
T2C0.0315
; #@! TA.AperFunction,Plated,PTH,ComponentDrill
T3C0.0394
; #@! TA.AperFunction,Plated,PTH,ComponentDrill
T4C0.0433
%
G90
G05
T1
X3.8693Y-2.49
X3.87Y-2.595
X3.896Y-3.95
X3.9156Y-2.4721
X3.925Y-5.338
X3.9988Y-2.8298
X4.044Y-4.201
X4.048Y-4.108
X4.05Y-4.034
X4.084Y-5.304
X4.111Y-4.953
X4.1146Y-3.457
X4.125Y-4.575
X4.132Y-4.0
X4.1338Y-3.9498
X4.136Y-4.199
X4.137Y-4.15
X4.139Y-5.252
X4.14Y-5.303
X4.156Y-3.455
X4.167Y-4.844
X4.1753Y-3.2547
X4.205Y-4.53
X4.292Y-5.322
X4.296Y-5.035
X4.304Y-4.786
X4.31Y-3.455
X4.3102Y-3.4058
X4.311Y-3.504
X4.363Y-3.406
X4.365Y-3.332
X4.409Y-3.406
X4.4155Y-3.2975
X4.463Y-2.728
X4.465Y-3.458
X4.466Y-3.561
X4.493Y-4.729
X4.519Y-4.22
X4.52Y-2.865
X4.54Y-4.729
X4.545Y-2.5
X4.564Y-3.681
X4.571Y-5.011
X4.577Y-3.722
X4.577Y-3.794
X4.598Y-4.69
X4.607Y-5.187
X4.618Y-4.289
X4.628Y-3.721
X4.635Y-2.825
X4.64Y-4.594
X4.649Y-4.183
X4.65Y-3.197
X4.6513Y-3.1047
X4.671Y-3.546
X4.678Y-4.297
X4.703Y-4.595
X4.711Y-4.089
X4.715Y-2.825
X4.715Y-2.87
X4.715Y-2.915
X4.719Y-3.545
X4.736Y-5.187
X4.748Y-3.156
X4.75Y-3.068
X4.75Y-3.23
X4.765Y-2.915
X4.766Y-3.545
X4.7669Y-3.6879
X4.805Y-5.011
X4.81Y-3.546
X4.815Y-2.915
X4.8523Y-3.73
X4.866Y-5.351
X4.9135Y-3.695
X4.97Y-3.36
T2
X4.065Y-3.0807
X4.065Y-3.2728
X4.3799Y-4.0354
X4.3799Y-4.1354
X4.3799Y-4.2354
X4.3799Y-4.3354
X4.3799Y-4.4354
X4.3799Y-4.5354
X4.3799Y-4.6354
X4.3799Y-4.7354
X4.3799Y-4.8354
X4.3799Y-4.9354
X4.3799Y-5.0354
X4.3799Y-5.1354
X4.3799Y-5.2354
X4.3799Y-5.3354
X4.9799Y-4.0354
X4.9799Y-4.1354
X4.9799Y-4.2354
X4.9799Y-4.3354
X4.9799Y-4.4354
X4.9799Y-4.5354
X4.9799Y-4.6354
X4.9799Y-4.7354
X4.9799Y-4.8354
X4.9799Y-4.9354
X4.9799Y-5.0354
X4.9799Y-5.1354
X4.9799Y-5.2354
X4.9799Y-5.3354
T3
X3.5811Y-2.4933
X3.5811Y-2.5933
X3.5811Y-2.6933
X3.5811Y-2.7933
X3.5811Y-2.8933
X3.5811Y-2.9933
X3.5811Y-3.0933
X3.5811Y-3.1933
X3.5811Y-3.2933
X3.5811Y-3.3933
X3.5811Y-3.4933
X3.5811Y-3.5933
X3.5811Y-3.6933
X3.5811Y-3.7933
X3.5811Y-3.8933
X3.5811Y-3.9933
X3.5811Y-4.0933
X3.5811Y-4.1933
X3.5811Y-4.2933
X3.5811Y-4.3933
X3.5811Y-4.4933
X3.5811Y-4.5933
X3.5811Y-4.6933
X3.5811Y-4.7933
X3.5811Y-4.8933
X3.5811Y-4.9933
X3.5811Y-5.0933
X3.5811Y-5.1933
X3.5811Y-5.2933
X3.5811Y-5.3933
X3.6811Y-2.4933
X3.6811Y-2.5933
X3.6811Y-2.6933
X3.6811Y-2.7933
X3.6811Y-2.8933
X3.6811Y-2.9933
X3.6811Y-3.0933
X3.6811Y-3.1933
X3.6811Y-3.2933
X3.6811Y-3.3933
X3.6811Y-3.4933
X3.6811Y-3.5933
X3.6811Y-3.6933
X3.6811Y-3.7933
X3.6811Y-3.8933
X3.6811Y-3.9933
X3.6811Y-4.0933
X3.6811Y-4.1933
X3.6811Y-4.2933
X3.6811Y-4.3933
X3.6811Y-4.4933
X3.6811Y-4.5933
X3.6811Y-4.6933
X3.6811Y-4.7933
X3.6811Y-4.8933
X3.6811Y-4.9933
X3.6811Y-5.0933
X3.6811Y-5.1933
X3.6811Y-5.2933
X3.6811Y-5.3933
X3.9192Y-3.489
X4.0192Y-3.489
X4.46Y-3.935
X4.46Y-4.035
X4.5Y-3.33
X4.6Y-3.33
X4.8819Y-4.7362
X4.895Y-4.04
X4.895Y-4.14
X5.0128Y-2.9104
X5.0128Y-3.0104
X5.0128Y-3.1104
X5.0128Y-3.2104
T4
X4.7244Y-2.5
X4.7244Y-2.6772
X4.9803Y-2.5
X4.9803Y-2.6772
M30
