%TF.GenerationSoftware,KiCad,Pcbnew,8.0.6+1*%
%TF.CreationDate,2024-11-21T22:42:01+01:00*%
%TF.ProjectId,8051,38303531-2e6b-4696-9361-645f70636258,rev?*%
%TF.SameCoordinates,Original*%
%TF.FileFunction,Soldermask,Top*%
%TF.FilePolarity,Negative*%
%FSLAX46Y46*%
G04 Gerber Fmt 4.6, Leading zero omitted, Abs format (unit mm)*
G04 Created by KiCad (PCBNEW 8.0.6+1) date 2024-11-21 22:42:01*
%MOMM*%
%LPD*%
G01*
G04 APERTURE LIST*
G04 Aperture macros list*
%AMRoundRect*
0 Rectangle with rounded corners*
0 $1 Rounding radius*
0 $2 $3 $4 $5 $6 $7 $8 $9 X,Y pos of 4 corners*
0 Add a 4 corners polygon primitive as box body*
4,1,4,$2,$3,$4,$5,$6,$7,$8,$9,$2,$3,0*
0 Add four circle primitives for the rounded corners*
1,1,$1+$1,$2,$3*
1,1,$1+$1,$4,$5*
1,1,$1+$1,$6,$7*
1,1,$1+$1,$8,$9*
0 Add four rect primitives between the rounded corners*
20,1,$1+$1,$2,$3,$4,$5,0*
20,1,$1+$1,$4,$5,$6,$7,0*
20,1,$1+$1,$6,$7,$8,$9,0*
20,1,$1+$1,$8,$9,$2,$3,0*%
G04 Aperture macros list end*
%ADD10C,2.000000*%
%ADD11R,1.925000X0.700000*%
%ADD12R,0.700000X1.925000*%
%ADD13R,1.700000X1.700000*%
%ADD14O,1.700000X1.700000*%
%ADD15RoundRect,0.250000X0.462500X0.625000X-0.462500X0.625000X-0.462500X-0.625000X0.462500X-0.625000X0*%
%ADD16RoundRect,0.249999X-0.325001X-0.450001X0.325001X-0.450001X0.325001X0.450001X-0.325001X0.450001X0*%
%ADD17RoundRect,0.249999X0.325001X0.450001X-0.325001X0.450001X-0.325001X-0.450001X0.325001X-0.450001X0*%
%ADD18R,1.600000X1.600000*%
%ADD19O,1.600000X1.600000*%
%ADD20RoundRect,0.249999X-0.450001X0.325001X-0.450001X-0.325001X0.450001X-0.325001X0.450001X0.325001X0*%
%ADD21C,1.500000*%
%ADD22RoundRect,0.249999X0.450001X-0.325001X0.450001X0.325001X-0.450001X0.325001X-0.450001X-0.325001X0*%
%ADD23R,1.950000X0.600000*%
%ADD24C,3.200000*%
%ADD25RoundRect,0.150000X-0.875000X-0.150000X0.875000X-0.150000X0.875000X0.150000X-0.875000X0.150000X0*%
%ADD26RoundRect,0.250000X0.450000X-0.325000X0.450000X0.325000X-0.450000X0.325000X-0.450000X-0.325000X0*%
G04 APERTURE END LIST*
D10*
%TO.C,SW1*%
X120000000Y-63500000D03*
X126500000Y-63500000D03*
X120000000Y-68000000D03*
X126500000Y-68000000D03*
%TD*%
D11*
%TO.C,U1*%
X123862500Y-83940000D03*
X123862500Y-82670000D03*
X123862500Y-81400000D03*
X123862500Y-80130000D03*
X123862500Y-78860000D03*
X123862500Y-77590000D03*
D12*
X122350000Y-76077500D03*
X121080000Y-76077500D03*
X119810000Y-76077500D03*
X118540000Y-76077500D03*
X117270000Y-76077500D03*
X116000000Y-76077500D03*
X114730000Y-76077500D03*
X113460000Y-76077500D03*
X112190000Y-76077500D03*
X110920000Y-76077500D03*
X109650000Y-76077500D03*
D11*
X108137500Y-77590000D03*
X108137500Y-78860000D03*
X108137500Y-80130000D03*
X108137500Y-81400000D03*
X108137500Y-82670000D03*
X108137500Y-83940000D03*
X108137500Y-85210000D03*
X108137500Y-86480000D03*
X108137500Y-87750000D03*
X108137500Y-89020000D03*
X108137500Y-90290000D03*
D12*
X109650000Y-91802500D03*
X110920000Y-91802500D03*
X112190000Y-91802500D03*
X113460000Y-91802500D03*
X114730000Y-91802500D03*
X116000000Y-91802500D03*
X117270000Y-91802500D03*
X118540000Y-91802500D03*
X119810000Y-91802500D03*
X121080000Y-91802500D03*
X122350000Y-91802500D03*
D11*
X123862500Y-90290000D03*
X123862500Y-89020000D03*
X123862500Y-87750000D03*
X123862500Y-86480000D03*
X123862500Y-85210000D03*
%TD*%
D13*
%TO.C,J2*%
X90960000Y-63330000D03*
D14*
X93500000Y-63330000D03*
X90960000Y-65870000D03*
X93500000Y-65870000D03*
X90960000Y-68410000D03*
X93500000Y-68410000D03*
X90960000Y-70950000D03*
X93500000Y-70950000D03*
X90960000Y-73490000D03*
X93500000Y-73490000D03*
X90960000Y-76030000D03*
X93500000Y-76030000D03*
X90960000Y-78570000D03*
X93500000Y-78570000D03*
X90960000Y-81110000D03*
X93500000Y-81110000D03*
X90960000Y-83650000D03*
X93500000Y-83650000D03*
X90960000Y-86190000D03*
X93500000Y-86190000D03*
X90960000Y-88730000D03*
X93500000Y-88730000D03*
X90960000Y-91270000D03*
X93500000Y-91270000D03*
X90960000Y-93810000D03*
X93500000Y-93810000D03*
X90960000Y-96350000D03*
X93500000Y-96350000D03*
X90960000Y-98890000D03*
X93500000Y-98890000D03*
X90960000Y-101430000D03*
X93500000Y-101430000D03*
X90960000Y-103970000D03*
X93500000Y-103970000D03*
X90960000Y-106510000D03*
X93500000Y-106510000D03*
X90960000Y-109050000D03*
X93500000Y-109050000D03*
X90960000Y-111590000D03*
X93500000Y-111590000D03*
X90960000Y-114130000D03*
X93500000Y-114130000D03*
X90960000Y-116670000D03*
X93500000Y-116670000D03*
X90960000Y-119210000D03*
X93500000Y-119210000D03*
X90960000Y-121750000D03*
X93500000Y-121750000D03*
X90960000Y-124290000D03*
X93500000Y-124290000D03*
X90960000Y-126830000D03*
X93500000Y-126830000D03*
X90960000Y-129370000D03*
X93500000Y-129370000D03*
X90960000Y-131910000D03*
X93500000Y-131910000D03*
X90960000Y-134450000D03*
X93500000Y-134450000D03*
X90960000Y-136990000D03*
X93500000Y-136990000D03*
%TD*%
D15*
%TO.C,C4*%
X103609800Y-95580200D03*
X100634800Y-95580200D03*
%TD*%
D16*
%TO.C,D1*%
X115450000Y-63500000D03*
X117500000Y-63500000D03*
%TD*%
D17*
%TO.C,R5*%
X104368600Y-113258600D03*
X102318600Y-113258600D03*
%TD*%
D16*
%TO.C,D3*%
X98280000Y-63246000D03*
X100330000Y-63246000D03*
%TD*%
%TO.C,D4*%
X98298000Y-65913000D03*
X100348000Y-65913000D03*
%TD*%
D13*
%TO.C,J3*%
X113284000Y-102489000D03*
D14*
X113284000Y-99949000D03*
%TD*%
D18*
%TO.C,U5*%
X111250000Y-102500000D03*
D19*
X111250000Y-105040000D03*
X111250000Y-107580000D03*
X111250000Y-110120000D03*
X111250000Y-112660000D03*
X111250000Y-115200000D03*
X111250000Y-117740000D03*
X111250000Y-120280000D03*
X111250000Y-122820000D03*
X111250000Y-125360000D03*
X111250000Y-127900000D03*
X111250000Y-130440000D03*
X111250000Y-132980000D03*
X111250000Y-135520000D03*
X126490000Y-135520000D03*
X126490000Y-132980000D03*
X126490000Y-130440000D03*
X126490000Y-127900000D03*
X126490000Y-125360000D03*
X126490000Y-122820000D03*
X126490000Y-120280000D03*
X126490000Y-117740000D03*
X126490000Y-115200000D03*
X126490000Y-112660000D03*
X126490000Y-110120000D03*
X126490000Y-107580000D03*
X126490000Y-105040000D03*
X126490000Y-102500000D03*
%TD*%
D13*
%TO.C,J4*%
X124333000Y-102616000D03*
D14*
X124333000Y-105156000D03*
%TD*%
D20*
%TO.C,C1*%
X99187000Y-77579000D03*
X99187000Y-79629000D03*
%TD*%
D21*
%TO.C,Y1*%
X103250000Y-78250000D03*
X103250000Y-83130000D03*
%TD*%
D22*
%TO.C,C2*%
X99187000Y-83820000D03*
X99187000Y-81770000D03*
%TD*%
D13*
%TO.C,J1*%
X114300000Y-84582000D03*
D14*
X116840000Y-84582000D03*
%TD*%
D23*
%TO.C,U2*%
X107000000Y-135965000D03*
X107000000Y-134695000D03*
X107000000Y-133425000D03*
X107000000Y-132155000D03*
X107000000Y-130885000D03*
X107000000Y-129615000D03*
X107000000Y-128345000D03*
X107000000Y-127075000D03*
X107000000Y-125805000D03*
X107000000Y-124535000D03*
X97600000Y-124535000D03*
X97600000Y-125805000D03*
X97600000Y-127075000D03*
X97600000Y-128345000D03*
X97600000Y-129615000D03*
X97600000Y-130885000D03*
X97600000Y-132155000D03*
X97600000Y-133425000D03*
X97600000Y-134695000D03*
X97600000Y-135965000D03*
%TD*%
D24*
%TO.C,H1*%
X108700000Y-64400000D03*
%TD*%
D13*
%TO.C,J5*%
X124000000Y-120300000D03*
%TD*%
D25*
%TO.C,U6*%
X97380000Y-97790000D03*
X97380000Y-99060000D03*
X97380000Y-100330000D03*
X97380000Y-101600000D03*
X97380000Y-102870000D03*
X97380000Y-104140000D03*
X97380000Y-105410000D03*
X97380000Y-106680000D03*
X97380000Y-107950000D03*
X97380000Y-109220000D03*
X106680000Y-109220000D03*
X106680000Y-107950000D03*
X106680000Y-106680000D03*
X106680000Y-105410000D03*
X106680000Y-104140000D03*
X106680000Y-102870000D03*
X106680000Y-101600000D03*
X106680000Y-100330000D03*
X106680000Y-99060000D03*
X106680000Y-97790000D03*
%TD*%
D26*
%TO.C,D6*%
X106553000Y-118999000D03*
X106553000Y-116949000D03*
%TD*%
%TO.C,D2*%
X100584000Y-119008000D03*
X100584000Y-116958000D03*
%TD*%
D13*
%TO.C,J7*%
X102088000Y-88620200D03*
D14*
X99548000Y-88620200D03*
%TD*%
D13*
%TO.C,J6*%
X127324000Y-73924000D03*
D14*
X127324000Y-76464000D03*
X127324000Y-79004000D03*
X127324000Y-81544000D03*
%TD*%
D26*
%TO.C,D5*%
X103505000Y-119017000D03*
X103505000Y-116967000D03*
%TD*%
M02*
